<?xml version="1.0" encoding="UTF-8"?>
<svg width="640mm" height="320mm" version="1.1" viewBox="0 0 640 320" xml:space="preserve" xmlns="http://www.w3.org/2000/svg"><defs><filter id="filter48" x="-.04094" y="-.45802" width="1.0819" height="1.916" color-interpolation-filters="sRGB"><feGaussianBlur stdDeviation="2.3720997"/></filter></defs><g transform="translate(22.535 -15.512)"><g transform="translate(353.76 15.379)"><path d="m206.78 258.28a69.529 6.2149 0 0 1-67.952 6.2133 69.529 6.2149 0 0 1-71.034-5.9314 69.529 6.2149 0 0 1 64.73-6.4823 69.529 6.2149 0 0 1 73.971 5.6374" fill="#999" filter="url(#filter48)" stroke-linecap="round" stroke-width="2.403" style="mix-blend-mode:normal"/><path d="m167.64 81.491c-1.4617-0.01545-3.2713 1.7476-2.2052 3.165 0.66081 1.0439 2.1206 1.5911 3.155 0.75067 0.89265-0.53962 1.4379-1.6176 0.93735-2.6186-0.27325-0.76034-1.0892-1.2929-1.8872-1.2971z" fill="#d40000"/><path d="m172.61 59.052c-5.1223-0.03382-10.09 2.4913-13.454 6.2867-1.8431 2.0885-3.0747 4.697-3.6595 7.409-0.20177 2.1175-0.30571 4.2778-0.25815 6.3867 0.512 0.23563 0.77359-0.7342 1.1711-1.0013 2.5298-3.0558 6.0851-5.2663 9.9785-6.0191-2.6108 1.737-5.7558 3.0857-7.3509 5.9509-0.71573 1.2936-1.594 2.565-1.9754 4.0006 0.16462 0.67421 1.0555 0.16512 1.4753 0.05032 5.2844-2.0402 10.389-5.012 16.183-5.1854 1.608-0.15967 3.297 0.02341 4.8705-0.37555 0.55178-0.41788-0.312-0.94129-0.57076-1.2465-2.1965-2.1568-5.1482-3.2928-8.1095-3.9283 0.85429-0.29334 2.1559-0.11908 2.4866-1.1934 0.90313-1.863 1.8759-3.6959 3.3875-5.1477 1.1561-1.3127 2.614-2.3959 3.568-3.8681-0.0113-0.83701-1.1111-1.0099-1.7146-1.2887-1.9269-0.70115-3.991-0.8679-6.027-0.83022z" fill="#2a7fff"/><path d="m180.89 79.397c-1.1582 0.11308-2.3635 0.16673-3.4696 0.52524-0.29816 0.5951 0.38052 1.1987 0.44992 1.7993 0.17695 0.70398 0.54285 1.4983 0.47033 2.199-0.57082 0.04783-1.2107-0.84158-1.7108-0.32445-0.27424 2.4365-1.4799 4.6725-2.8872 6.6455 0.0437 0.63136 1.1152 0.57285 1.5507 0.92549 0.53591 0.13365-0.27933 0.41555-0.45188 0.49824-3.9332 1.4715-8.6283 0.86256-12.066-1.6422-1.6899-1.1623-2.8135-2.8851-3.9928-4.5092-0.35851-0.46471-1.278-0.62142-1.6812-0.16741 0.10016 0.97238 0.79224 1.8164 1.1944 2.6948 1.3978 2.6254 3.7617 4.6211 6.2718 6.1428 2.1853 1.0632 4.5048 2.0391 6.9475 2.2549 2.5517 0.1124 5.2255-0.26115 7.3641-1.7563 1.6967-0.9643 2.6271-2.8065 4.1476-3.9404 2.3528-0.72074 5.1686-0.04861 7.2148-1.6953 1.9929-1.6573 2.042-4.5365 1.6622-6.8916-0.14369-1.1367-0.73023-2.5853-2.0729-2.6156-1.4371-0.07821-3.2942 0.54382-3.5862 2.1462-0.53507 1.8581-0.67225 4.1908-2.4984 5.3214 0.242-1.416 0.26831-2.8687-0.0358-4.2822-0.28741-1.0869-0.38977-2.5304-1.4826-3.1356-0.41719-0.18798-0.88851-0.20166-1.3383-0.1927z" fill="#04a"/><path d="m180.31 65.503c-1.6031 0.8132-2.841 2.2837-3.6147 3.884-0.47262 1.1438 0.8055 1.9285 1.5469 2.5364 2.159 1.5286 4.0836 3.3393 5.6676 5.4712 0.51285 0.47945 1.007 1.5495 1.8579 1.3124 1.0739-0.52885 1.6399-1.7656 1.3795-2.929-0.36466-3.446-1.9576-6.8286-4.7304-8.9801-0.6346-0.50597-1.301-1.14-2.1068-1.295z" fill="#003380"/><path d="m184.17 97.368c-1.0436-0.03478-1.406 1.1742-1.3431 2.0253-0.14583 3.0432-0.15005 6.0907-0.2104 9.1362-1.3181 1.1066-2.6492 2.3681-4.2965 2.9297-0.39541-1.4607-0.19548-3.024-0.30296-4.5284-0.10574-2.4042 0.0118-4.8416-0.3199-7.2241-0.70343-0.94093-2.289-0.66022-3.0161 0.13201-0.28788 0.98208-0.059 2.1311-0.14907 3.1766-0.0913 3.481 0.0591 6.9894-0.21609 10.448 0.0128 0.73755-0.55825 1.2363-1.2232 1.4207-0.36003 0.22478-1.3554 0.50962-0.93618 1.0899 0.78588 0.71065 1.8153 1.3784 2.9132 1.3605 1.8643-0.42483 3.4121-1.6695 5.0551-2.5901 1.798-1.2024 3.756-2.2405 5.3237-3.7446 1.0223-1.2923 0.84379-3.0814 0.95431-4.6308-3e-3 -2.752 0.0983-5.5267-0.20325-8.2635-0.39503-0.6416-1.3531-0.69504-2.0296-0.73766z" fill="#025"/><path d="m41.315 37.481c-0.43912 0.24951-0.39364 0.90822-0.57682 1.3343-1.2132 5.742-3.4125 11.204-5.7299 16.573-0.47459 1.2191-1.1655 2.374-1.4492 3.6574-0.14042 0.61213 0.2233 1.1917 0.77889 1.4364 4.0178 2.3747 8.1757 4.5043 12.289 6.707 2.1008 1.0594 4.1483 2.2526 6.3382 3.1187 0.72839 0.05474 1.0334-0.80257 1.3679-1.3077 0.6865-1.2497 1.2719-2.5596 1.8259-3.8658 0.3567-0.24974 0.83402 0.09408 1.1924 0.18958 3.8259 1.7384 7.4807 3.8274 11.2 5.7787 7.2788 3.9328 14.594 7.8015 21.816 11.837 0.38847 0.34065 1.0002 0.46064 1.3683 0.02556 1.3621-1.374 2.2449-3.2202 2.3779-5.1593 0.32645-3.349 0.18775-6.735-0.17292-10.076-0.1434-0.76325-0.09576-1.7887-0.94762-2.1468-5.2934-3.1527-10.73-6.0584-16.113-9.0542-10.413-5.7017-20.797-11.46-31.256-17.077-1.3918-0.69388-2.7535-1.5015-4.2392-1.9733l-0.02629-0.0011zm4.4974 6.145c3.2774 1.5531 6.4311 3.3586 9.6413 5.0457 4.9892 2.7179 10.043 5.3195 14.933 8.2129 0.47194 0.33908 1.0738 0.60219 1.4106 1.0792-0.05244 0.62106-0.25406 1.3894-0.83775 1.7082-2.2921-0.98402-4.4197-2.3109-6.6238-3.4777-6.2364-3.4695-12.551-6.8002-18.697-10.426-0.28902-0.19496-0.81189-0.38295-0.59405-0.83147 0.14696-0.48017 0.37887-0.98608 0.76694-1.3109zm-2.3863 6.2401c2.3294 0.92374 4.496 2.2176 6.7373 3.3453 6.2981 3.3497 12.638 6.6226 18.87 10.093 0.23061 0.16959 0.73728 0.28756 0.51918 0.67547-0.22482 0.60241-0.45974 1.3226-0.97651 1.7145-3.0479-1.4089-5.9621-3.105-8.9532-4.637-5.5794-2.9747-11.231-5.8423-16.742-8.9248-0.473-0.14638-0.66338-0.62258-0.49997-1.0768 0.10571-0.48419 0.34495-0.93444 0.66752-1.3089 0.12589 0.0397 0.25177 0.07939 0.37766 0.11909zm-3.9318 5.9878c4.7153 2.4014 9.4165 4.8317 14.031 7.4216 0.03317 0.75226-0.4658 1.4623-0.81189 2.119-0.25913 0.40431-0.46733 1.0816-0.9853 0.54292-4.7849-2.5695-9.6424-5.002-14.325-7.7543-0.65767-0.18565-0.23972-0.88684-0.08539-1.3153 0.27096-0.56154 0.49669-1.1835 0.96274-1.6167 0.40472 0.20093 0.80944 0.40186 1.2142 0.60279z" fill="#999"/><g fill="#4d4d4d"><path d="m36.099 34.582c-0.5987 0.03021-1.4031 0.17941-1.6717 0.78214 0.02524 0.78888 0.78416 1.3252 0.97294 2.0773 0.29723 1.2299-0.24316 2.4894-0.71786 3.6062-0.68521 1.3735-1.5513 2.7566-2.8479 3.626-0.48992 0.17634-1.1971 0.27175-1.2742 0.91965-0.16539 0.8747 0.78336 1.6969 1.6231 1.3388 1.8744-0.50103 3.1146-2.1764 4.1327-3.7176 1.3605-2.0088 1.7406-4.4853 1.6716-6.866 0.07543-0.63217-0.13013-1.3626-0.8054-1.5711-0.34166-0.1418-0.71478-0.19795-1.0833-0.19545z"/><path d="m154.86 201.41c-2.2961 0.0649-4.729 0.44247-6.6357 1.8098-1.1112 0.99402-2.0854 2.2014-2.6631 3.5836-0.21073 0.42629 0.24267 0.73914 0.63104 0.72242 2.6894 0.21878 5.4101 0.16974 8.047 0.72289 3.6529 0.70162 7.185 2.1119 10.299 4.1778 3.2826 2.0566 6.3588 4.4334 9.6525 6.4768 0.55797 0.25739 0.78763-0.52994 0.79967-0.94325 0.18194-2.7408-0.23408-5.4702-0.61692-8.1758-0.027-0.39855-0.10061-0.86978-0.0388-1.2354 1.5467 0.95269 2.7657 2.3685 4.0031 3.6915 0.40136 0.35402 0.69082 1.0016 1.2617 1.0797 0.43233-0.24721-0.0312-0.79321-0.12839-1.1299-0.83597-1.8502-2.0664-3.5031-3.605-4.8282-2.0847-1.8322-4.5031-3.3367-7.1431-4.2154-0.30925-0.16504-0.77322 0.16222-0.48334 0.48423 1.0804 1.4342 2.3631 2.8032 2.9103 4.5454 0.34167 1.1412 0.76375 2.3464 0.65276 3.5605-0.0909 0.14866-0.29696-0.26983-0.4052-0.34673-2.9627-4.0241-6.847-7.5686-11.594-9.3142-1.5975-0.48532-3.2771-0.68369-4.9439-0.66573z"/><path d="m169.19 177.55c-0.49792-0.0342-1.0737 0.21795-1.09 0.78518-0.83241 4.51-1.3306 9.0759-1.8372 13.632-0.22583 2.2047-0.45336 4.4444-0.25424 6.6496 0.49987 0.32667 1.2378 0.29886 1.8266 0.4916 1.7782 0.35238 3.5189 0.8682 5.1939 1.5472 0.40058 0.20932 0.79371-0.13354 0.80529-0.54568 1.2619-5.9825 2.1994-12.053 3.4964-18.011 0.0585-0.20066 0.09-0.6129 0.36693-0.3503 1.2247 0.74526 2.3346 1.7431 3.6993 2.2229 0.43176-0.10574 0.61302-0.6718 0.68218-1.0681-0.21497-0.84048-1.0137-1.3747-1.5454-2.0174-0.9443-0.86526-1.7949-1.9603-3.0338-2.4086-1.8684-0.44291-3.8052-0.51052-5.7061-0.75454-0.86585-0.0784-1.7334-0.17918-2.6039-0.17273z"/></g><path d="m177.18 160.82c-3.6513 1.5816-7.1853 4.4056-8.2781 8.3811-0.16301 0.72464-0.40959 1.9877 0.68272 2.0424 2.5043 0.37548 5.086 0.84526 7.6143 0.54539 0.75059-0.78313 0.56481-2.0924 1.0876-3.0284 0.93189-2.8518 3.1838-5.4117 6.089-6.3129 1.0797 0.14139 1.9588-0.42524 0.43425-0.87028-2.0979-1.2892-4.6598-0.59668-6.9732-0.77947-0.21674 0.0201-0.44468-0.037-0.65661 0.0222z" fill="#04a"/><path d="m185.65 165.69c-2.6535 0.21755-4.0789 2.9653-4.661 5.269-0.6999 2.8648-0.24275 6.5664 2.4898 8.2194 2.1296 1.1762 5.1976 0.70249 6.3984-1.5682 1.4472-2.7077 1.739-6.1874 0.39483-8.9937-0.85482-1.7316-2.6627-2.9692-4.622-2.9265zm0.1477 3.3285c1.2182-0.14546 2.4395 0.64862 2.541 1.9216 0.3349 1.8965 0.45468 4.2848-1.3418 5.515-1.2469 0.65112-2.7666-0.35201-2.9065-1.707-0.29983-1.7471-0.58204-3.9765 0.8247-5.3545 0.24605-0.22043 0.5385-0.39862 0.88263-0.37515z" fill="#025"/><path d="m164.76 123.52c-1.2058-4e-3 -2.3727 0.56836-3.1222 1.5111-1.3058 1.5999-2.1807 3.4955-3.0843 5.3381-0.71097 1.4949-1.2489 3.0801-1.4306 4.732-0.0362 0.38777-0.1631 0.7788-0.13122 1.1678 0.26899 0.27817 0.73706 0.13176 1.091 0.22049 1.3251 0.08 2.6317 0.30871 3.954 0.3968 0.5533-0.0238 0.6595-0.70308 0.91738-1.0719 0.8972-1.6724 1.6073-3.456 2.7612-4.9711 0.10626-0.19896 0.28287-0.19665 0.39766-4e-3 0.40332 0.37829 0.66804 0.9508 0.45039 1.4963-0.39758 1.5139-1.066 3.008-1.0324 4.5996 2.6e-4 0.48569 0.27686 1.0057 0.79848 1.077 1.2044 0.27796 2.4178 0.57021 3.6502 0.68025 0.76436 0.067 1.1112-0.73625 1.4243-1.2868 0.72028-1.2779 1.3104-2.6922 2.4032-3.7126 0.22183-0.20126 0.65154-0.44934 0.92833-0.22532 0.12375 0.69955-0.17511 1.3938-0.30657 2.073-0.25678 1.1605-0.61479 2.3593-0.4321 3.5564 0.10869 0.66744 0.89793 0.75223 1.4314 0.87281 1.2175 0.24183 2.4298 0.55425 3.6582 0.71745 0.51328-0.22341 0.70372-0.8359 0.99385-1.2753 0.79501-1.3828 1.294-2.9651 2.38-4.1627 1.3476-1.4341 3.3649-2.0121 5.252-2.3535 0.96741-0.17638 1.9803-0.10373 2.8556 0.37882 1.7295 0.87928 2.9656 2.5525 3.4813 4.4102 0.18396 0.40543 0.24089 1.0034 0.69796 1.1968 0.45333-2e-3 0.6502-0.54001 0.88726-0.85106 0.57047-0.90524 0.96171-1.9651 0.81869-3.0498-0.15065-1.3218-0.5172-2.6404-1.15-3.8143-1.018-1.6968-3.0146-2.5676-4.9385-2.6406-1.3664-0.12653-2.7307 0.14603-4.0053 0.63002-0.35697 0.27616-0.51247-0.13803-0.73435-0.35838-0.65548-0.82288-1.5552-1.447-2.584-1.6935-1.8772-0.49932-3.876-0.19512-5.6548 0.523-0.28457 0.0895-0.55479 0.20578-0.85639 0.24252-0.22514-0.77269-0.24863-1.6351-0.68228-2.3304-0.65465-0.77396-1.7871-0.7899-2.7219-0.78969-1.2935 0.0151-2.644 0.28482-3.6532 1.1473-0.38659 0.26688-0.70897 0.66153-1.1443 0.84134-0.3861 0.0288-0.33879-0.49135-0.38906-0.74133-7e-3 -0.81752-0.45015-1.5962-1.1704-1.9903-0.60208-0.35753-1.3137-0.50087-2.0086-0.48592z" fill="#04a"/><path d="m188.08 136.86c-1.1757-2e-3 -2.1162 0.92502-2.5394 1.9572-0.61484 1.3259-0.70421 3.0644 0.32621 4.2139 0.62131 0.7583 1.6645 1.1577 2.6228 0.87903 1.4796-0.38965 2.5215-1.8833 2.6101-3.378 0.0763-1.4864-0.73586-3.1598-2.2534-3.5759-0.24886-0.0695-0.5079-0.10246-0.76624-0.0962z" fill="#4d4d4d"/><path d="m218.09 122.98c-1.0704 0.30443-2.1241 0.68959-3.2018 0.98044-5.1677 1.5291-10.41 2.787-15.592 4.264-0.42689 0.182-1.0053 0.18915-1.2986 0.58784-0.17982 0.48165 0.22446 0.94874 0.34232 1.3986 0.40877 0.91418 0.73301 1.8822 1.2534 2.7382 0.53175 0.61173 1.3885 0.26534 2.0495 0.13846 5.4959-1.3336 10.927-2.9185 16.384-4.3982 0.3209-0.25234 0.0634-0.75828 0.12452-1.1171-0.07-1.4257 0.0289-2.8484 0.25038-4.2596 0.024-0.18227-0.12251-0.35375-0.31181-0.33267z" fill="#003380"/><path d="m208.96 113.39c-1.1659 1.039-2.3489 2.0622-3.4763 3.1423-0.10389 0.37849 0.36619 0.61844 0.52124 0.9268 1.0455 1.2972 2.0376 2.6487 3.1993 3.845 0.4022 0.18233 0.84979-0.11969 1.2551-0.18836 1.1801-0.39072 2.3912-0.73858 3.4973-1.3119 0.31038-0.29617-0.13874-0.67897-0.2729-0.95394-1.2614-1.7757-2.5898-3.515-4.08-5.1058-0.1897-0.13322-0.37138-0.52404-0.64384-0.35416z" fill="#025"/><path d="m227.04 117.65c-2.7859 0.0458-5.2485 2.5422-5.3136 5.3169-0.0591 1.9096-0.0709 3.8529 0.36492 5.724 0.57152 2.2707 2.1268 4.4484 4.4283 5.1826 2.1465 0.7095 4.7093-0.0734 6.0366-1.92 1.4578-1.9923 1.9052-4.5621 1.7759-6.9846-0.19732-3.2567-2.5397-6.3749-5.7645-7.1454-0.49925-0.12058-1.0135-0.18836-1.5277-0.17346zm1.3662 4.041c1.1858-0.0449 2.2269 0.80423 2.6664 1.8656 0.56163 1.0493 0.54319 2.2667 0.43004 3.4188-0.27663 1.3314-1.1705 2.6847-2.5484 3.0337-0.72838 0.0991-1.5093 0.0341-2.1058-0.43774-0.97317-0.68748-1.596-1.8002-1.6893-2.9867-0.0748-0.93731-0.16296-1.899 0.0807-2.827 0.33944-0.78911 1.0324-1.4107 1.7995-1.7804 0.42815-0.19191 0.89848-0.28427 1.3668-0.28627z" fill="#025"/><path d="m214.62 104.99c-1.1846 1.2059-2.5265 2.3856-3.1615 3.9899 0.0737 0.38965 0.49431 0.65017 0.71619 0.9788 2.3636 2.6952 4.6652 5.4481 7.1119 8.0686 0.33257 0.26777 0.62716-0.27756 0.91303-0.40322 0.9818-0.75611 2.008-1.4645 3.1487-1.9615 0.31839-0.32786-0.27129-0.64055-0.40733-0.93139-2.6209-3.2817-5.3422-6.4817-8.0267-9.7112-0.10351-0.0802-0.17606-0.0836-0.29423-0.03z" fill="#003380"/><g fill="#04a"><path d="m206.88 89.847c-1.3377-4e-3 -2.6812 0.18697-3.9394 0.6517-3.2322 1.1481-5.9222 3.7389-7.1558 6.9439-1 2.5527-1.394 5.3581-1.0428 8.0822 0.20542 1.356 0.65254 2.7707 1.7045 3.7125 0.76917 0.69176 1.8145 1.0855 2.8522 1.0096 0.97329 2e-3 1.9371-0.34274 2.7152-0.92092 1.4997-1.2466 2.6087-2.8682 3.8824-4.3248 1.0011-1.1445 2.0043-2.3019 3.1746-3.2788 1.8152-1.422 3.8932-2.5006 6.0433-3.3345 1.4641-0.55108 3.009-1.0084 4.5824-1.0467 0.37329-0.03104 0.86508 0.0021 1.0845-0.37051 0.17935-0.37791-0.12873-0.75786-0.33672-1.0518-0.89304-1.0552-1.9269-1.9944-3.0836-2.7539-2.5884-1.7105-5.5808-2.7983-8.6542-3.2026-0.6056-0.07997-1.2156-0.12116-1.8266-0.11522z"/><path d="m65.611 79.568c-1.4849-0.0343-2.6365 1.1727-3.138 2.4719-0.58848 1.4539-0.64275 3.3996 0.59045 4.5376 1.5057 1.1537 3.3572 1.8514 5.2275 2.1209 1.3022 0.10167 2.806-0.42199 3.3122-1.7272 0.66081-1.3622 0.71786-3.045 0.10622-4.4323-0.86151-1.5067-2.625-2.1303-4.1778-2.6647-0.62208-0.1863-1.2681-0.32131-1.9205-0.30631z"/><path d="m63.435 91.466c-1.1144 0.0345-1.9313 0.98402-2.2556 1.9809-0.38961 1.0134-0.52386 2.2081-0.13411 3.2392 0.48682 0.79814 1.5526 0.87218 2.3453 1.1965 3.7035 1.1112 7.4114 2.2325 11.171 3.1343 0.51281-0.0425 0.62655-0.7292 0.22674-1.0046-0.72114-0.59619-1.7195-1.0578-1.9121-2.0794-0.27787-1.2 0.10295-2.4068 0.59582-3.4865 0.18661-0.3107 0.20766-0.84641-0.27644-0.86197-3.1994-0.76775-6.4095-1.509-9.6432-2.1153-0.0391-0.0024-0.0783-0.0041-0.11748-3e-3z"/><path d="m62.936 101.17c-1.0383 0.0321-1.7332 1.1285-1.6481 2.1027-0.06207 0.8856 0.0034 1.9398 0.82595 2.4782 1.6211 1.0949 3.5844 1.5022 5.4217 2.0941 1.5919 0.40936 3.1534 1.0049 4.7891 1.2087 1.0786 0.0471 2.3065-0.0913 3.0223-1.004 0.60523-0.68532 1.2117-1.7132 0.67235-2.6084-0.38154-0.82702-1.1537-1.4075-2.0438-1.5782-3.5263-0.97932-7.0705-1.9138-10.653-2.6658-0.12799-0.0186-0.25732-0.0307-0.38678-0.0274z"/></g><path d="m81.883 86.327c-0.97866 0.02349-2.1134-0.09044-2.8493 0.7016-0.87836 0.7554-1.7978 1.5832-2.0803 2.7579-0.71681 2.1965-1.3803 4.4394-1.6419 6.7403 0.10804 1.081 1.331 1.45 2.2364 1.619 0.86797 0.14877 1.764 0.2802 2.6348 0.28331 1.5971-1.3725 2.9523-3.0886 4.7442-4.2443 1.1507-0.65267 2.5563-0.1176 3.7015 0.17828-0.76327 0.99875-1.3253 2.1373-1.5806 3.373-0.2908 1.4085-0.15105 2.8665-0.138 4.2947 0.19934 1.5336 0.73338 3.2021 2.0343 4.1484 0.57251 0.22758 0.99004-0.46866 1.3127-0.83865 1.2688-1.6634 1.3923-3.8401 1.7733-5.8203 0.47538-3.221 0.83648-6.4968 0.57024-9.7524-0.17854-1.189-1.503-1.5292-2.4697-1.8473-2.6885-0.76572-5.421-1.6397-8.2478-1.5936z" fill="#025"/><path d="m97.655 130.59c-0.82558 0.0376-1.8172 0.10037-2.3728 0.79873-0.3216 0.72947-0.19727 1.5747-0.09837 2.3425 0.04752 0.46726 0.44161 0.82892 0.91228 0.83262 0.62835 0.10165 1.2851 0.0179 1.8917 0.21458 0.68434 0.56827 1.1137 1.3799 1.7455 2.0041 1.2325 1.3273 2.4737 2.6733 3.9287 3.7611 1.5798 0.94666 3.5049 0.82684 5.2755 0.85982 0.59766-0.0352 1.2247 0.0838 1.8033-0.0513 0.43554-1.2594 0.85177-2.5436 1.1504-3.8478 0.0948-0.29552-7e-3 -0.70531-0.37389-0.72173-1.9212-0.14108-3.8544-0.097-5.7804-0.14819-1.7087-1.8231-3.3667-3.7138-5.2853-5.3223-0.78275-0.62758-1.8351-0.7001-2.7966-0.72211z" fill="#999"/><path d="m152.54 125.88c-1.5061-0.0764-2.8686 0.71724-4.1123 1.4689-2.3753 1.5681-4.5106 3.4612-6.8024 5.1398-1.7567 1.2804-3.5034 2.67-5.5113 3.5178-1.2682 0.48997-2.6529 0.42883-3.9831 0.58959-1.0987 0.0995-2.2065 0.14073-3.2978 0.21331-0.36645 0.25103-0.33537 0.79222-0.4979 1.1671-0.22465 0.97191-0.61654 1.9482-0.54398 2.9598 0.0972 0.49513 0.74547 0.4312 1.1242 0.51006 1.9437 0.18342 3.9096 0.0349 5.8336-0.2673 3.0901-0.50334 5.7234-2.3342 8.1566-4.1944 2.2866-1.716 4.3995-3.6654 6.7382-5.2994 0.74894-0.52131 1.6739-0.85392 2.601-0.7847 0.8019-0.0572 1.6622 0.0861 2.4216-0.22873 0.41935-0.33239 0.51715-0.92411 0.77717-1.3715 0.3708-0.88352 0.81384-1.7493 1.0712-2.6734-0.0724-0.39474-0.60929-0.35338-0.90735-0.47491-1.0027-0.27227-2.0357-0.28689-3.0675-0.2721z" fill="#ccc"/><g fill="#fff"><path d="m150.48 86.019c-0.72769 3.0385-1.999 5.9722-3.9758 8.4268-3.0211 3.8205-7.326 6.7362-12.126 7.7274-2.2284 0.14899-4.6534 0.266-6.7946-0.64417-2.4017-0.90109-4.5427-2.3719-6.3746-4.1586-0.68687-0.0054-0.55876 1.2359-0.9033 1.7239-3.6124 10.742-6.7483 21.638-10.073 32.47-0.057 0.58666-0.56315 1.2671-0.28955 1.821 1.085 0.34167 2.2613 0.25326 3.3874 0.31813 0.8824-0.98884 1.1712-2.7044 2.5559-3.2637 2.0049-0.54091 4.1149-0.39382 6.1762-0.46602 2.2745 0.0842 4.5826-0.10413 6.7816 0.45717 1.4132 0.43833 1.6929 2.1302 2.4778 3.1519 3.234-0.16731 6.0429-1.9877 8.5009-3.9485 3.4176-2.5691 6.4193-5.8444 10.434-7.4892 2.2059-0.7869 4.6069-0.46958 6.8051 0.11281 0.69062 0.0999 1.4388 0.74725 2.097 0.46464 1.3017-1.3724 3.0793-2.4356 5.0373-2.326 2.0925 0.0195 4.1039 0.59687 6.0083 1.4342 0.98793 0.1932 1.9531-0.34164 2.9635-0.13339 5.6853 0.60058 11.199 2.1831 16.803 3.2608 1.7584 0.27076 3.7306 0.90233 5.4273 0.0625 0.66023-0.31788 0.28663-1.0533-0.0176-1.488-1.3376-2.2582-2.6484-4.5596-4.3072-6.6012-0.70226-0.0748-1.3857 0.56981-2.0801 0.77474-5.1344 2.3641-10.96 3.3452-16.53 2.2831-1.6664-0.48514-2.6662-2.0626-3.8747-3.1856-2.9411-3.2588-5.9798-6.7484-10.187-8.376-3.1152-1.3123-6.5229-1.6514-9.8743-1.5818-5.7123-0.0602-11.361 1.3665-16.589 3.5995-0.40681 0.15383-0.86245 0.46089-1.2721 0.45957 0.51586-1.076 1.542-1.8617 2.3908-2.6866 4.0836-3.6636 9.4624-5.65 14.865-6.2093 3.8635-0.20641 7.8126-0.25446 11.563 0.83016 3.3388 0.81133 6.3754 2.4297 9.0776 4.5337 0.31651 0.38095 0.75923 0.0391 0.66793-0.38259-0.0111-2.2312-0.20214-4.5346-1.026-6.6258-0.72089-1.3332-2.2789-1.872-3.4026-2.7972-3.2768-2.2564-6.1827-5.1189-8.3636-8.459-0.55414-0.65323-0.49761-1.6796-1.1562-2.2314-1.4744-0.56077-3.0741-0.74378-4.6348-0.91974l-0.12158 0.04452z"/><path d="m152.97 136.55c-4.5314 2.778-8.7636 6.0542-13.489 8.5115-2.5463 1.3734-5.4698 1.2122-8.2806 1.3704-0.92486-0.15324-1.4439 1.0913-0.81378 1.7019 1.2806 0.69006 2.8195 0.76481 4.1814 1.2474 6.7113 1.857 12.795 5.6444 17.694 10.563 3.3266 3.1559 6.0267 6.8947 8.4406 10.781 0.51475 0.79035 1.145 1.8027 2.239 1.676 0.78811 0.0852 1.7658-0.10066 1.999-0.98574 0.80295-2.3954 1.1872-4.969 2.5915-7.1162 2.2197-3.422 5.6657-6.3067 9.7656-7.0796 2.7473-0.32202 5.6418-0.18755 8.244 0.89773 2.4438 0.83901 4.5897 2.302 6.5778 3.9356 0.26747 0.20059 0.96402 0.87616 1.0692 0.21343-0.25198-1.309-1.1403-2.4469-1.3577-3.7333 1.4863-0.59498 3.153-0.46588 4.7388-0.64713 0.79431-0.13865 1.7488 0.0778 2.4446-0.28171 1.3201-3.8895 2.4413-7.9102 2.8025-11.995-0.38141-0.48205-1.146 0.0242-1.6531-7e-3 -4.2022 0.80215-8.3392 2.0634-12.53 2.7906-1.0311 0.14564-2.1429-0.38997-3.0395 0.33746-1.3437 0.70119-2.775 1.4367-4.3437 1.2413-2.1372-0.10772-4.1786-0.93492-5.7946-2.324-1.2699 0.12264-2.538 0.53264-3.8112 0.30599-1.6704-0.1959-3.2694-0.76374-4.9196-1.052-0.71398 0.8008-1.3776 1.8345-2.5053 2.1331-2.3939 0.78854-4.8707-0.31742-7.1032-1.1334-1.3113-0.6393-2.9388-0.95388-3.8112-2.2117-0.76384-1.8173 0.39346-3.7 1.0361-5.3574 0.25449-0.85284 1.0517-1.738 0.71918-2.6633-0.31645-0.38941-0.6323-0.95615-1.0904-1.1193z"/><path d="m107.47 145.99c-0.5087 0.0277-1.3261-0.073-1.3701 0.64436-0.81493 2.6167-1.6864 5.2322-2.3748 7.8783 0.18918 0.63409 1.0303 0.0503 1.4454 0.0513 0.76017-0.21089 1.7598-0.28539 1.9943-1.2082 0.93328-2.1763 1.6618-4.4579 2.197-6.7598-0.0903-0.83564-1.3523-0.52053-1.8918-0.60591z"/></g><g transform="translate(6.8068 5.7878)" fill="#ccc"><path d="m73.131 182.16c-0.72188 0.40126-0.53078 1.403-0.57006 2.0927-0.06931 1.3291 0.12797 2.6517 0.57918 3.9039 0.61559 2.0068 1.8642 3.7772 3.2961 5.2878 0.26955 0.50503 0.79722 0.49351 0.91538-0.0815 0.35335-0.87793 0.69617-1.9591 0.08096-2.8094-0.7968-1.2448-1.7441-2.3877-2.3624-3.7394-0.57726-1.2063-1.2477-2.412-1.4989-3.7363-0.02514-0.3021-6e-3 -0.9219-0.44024-0.91786z"/><path d="m69.39 193.65c-0.35324 0.32019-0.11495 0.90896-0.16461 1.3312 0.13779 2.1322 0.26359 4.3442 1.2681 6.2789 1.1984 2.5736 3.1447 4.8006 5.5045 6.371 0.5183 0.14009 0.36124-0.60417 0.40591-0.90688-8e-3 -0.91472 0.16692-1.9698-0.5334-2.6971-1.3307-1.5865-2.7407-3.1199-3.8268-4.8947-1.0322-1.6273-1.9996-3.3515-2.3157-5.268-0.03211-0.14922-0.17927-0.27905-0.33796-0.2144z"/><path d="m69.066 209.56c-0.09163 1.054 0.41808 2.0768 0.77338 3.056 0.64779 1.6582 1.5659 3.2247 2.8904 4.4344 1.7519 1.6907 3.6512 3.24 5.6702 4.5992 0.47045 0.13696 0.40668-0.50776 0.32419-0.77927-0.27684-1.2128-0.30119-2.5348-0.92608-3.6371-0.68907-0.88587-1.8626-1.1602-2.7121-1.8576-2.008-1.4783-3.6689-3.348-5.214-5.2911-0.23839-0.19001-0.45732-0.73475-0.80603-0.52447z"/><path d="m73.212 225.28c-0.48838 0.16189-0.0419 0.6858 0.15503 0.91429 2.4676 3.0882 5.8763 5.432 9.677 6.5348 0.52169 0.1272 0.5966-0.51709 0.41306-0.85687-0.33244-1.0392-0.66063-2.3372-1.8255-2.7302-1.9707-0.64558-3.9887-1.25-5.7368-2.393-0.88414-0.47742-1.6791-1.1869-2.65-1.4712z"/></g><path d="m101.82 175.89c-1.5024 0.45602-2.6113 1.704-3.7594 2.7162-3.8653 3.8248-6.3205 8.8522-7.9934 13.97-1.5492 4.9356-2.4436 10.098-2.3649 15.281-0.06892 3.4782 0.07027 6.9695 0.76648 10.387 1.13 6.701 3.6461 13.178 7.3247 18.891 1.8502 2.7636 4.3233 5.0415 6.7547 7.2837 3.5567 2.8938 7.956 4.9762 12.578 5.2332 2.9808 0.13986 5.943-0.55269 8.6229-1.8416 5.1433-2.3964 9.2101-6.6351 12.399-11.246 2.3165-3.5136 4.1328-7.378 5.2857-11.428-0.23349-0.43593-0.41526-1.8018-1.0219-1.4832-2.0339 5.6544-4.6554 11.262-8.9627 15.553-2.9901 3.0248-6.7141 5.4628-10.884 6.4902-2.5248 0.413-5.1265 0.38548-7.6415 0.0564-3.3915-0.679-6.4825-2.4345-9.1476-4.6-3.8631-3.1365-6.6792-7.3865-8.4824-11.992-2.637-6.5511-3.7978-13.605-3.7119-20.647-0.014-8.0302 1.5799-16.121 5.032-23.408 1.3717-2.9456 3.3597-5.5271 5.2325-8.159 0.19075-0.27787 0.62542-1.03-0.0271-1.0565z" fill="#999"/><path d="m124.69 162.44c-0.38739-0.0304-0.72003 0.29101-0.74708 0.67002-0.072 0.39597-8e-3 0.88703 0.38135 1.0981 0.41521 0.22097 0.88521 0.31458 1.3116 0.51343 1.6429 0.68621 3.2894 1.4268 4.7314 2.4818 2.7628 1.9821 5.0233 4.571 6.9506 7.3596 2.607 3.8017 4.5931 8.0008 6.0868 12.351 0.4196 1.1502 0.71971 2.3445 1.2087 3.4685 0.0727 0.16893 0.24786 0.42645 0.44624 0.26031 0.14407-0.18107 0.078-0.45413 0.0725-0.67396-0.38612-2.4523-1.0931-4.846-1.9624-7.1682-1.5574-4.0939-3.6526-7.996-6.3073-11.485-0.9985-1.3366-2.1614-2.5412-3.3855-3.6713-2.2333-1.9494-4.7087-3.6582-7.44-4.8317-0.43111-0.17085-0.87627-0.36239-1.347-0.37319z" fill="#fff"/><path d="m119.47 133.33c-1.041-0.0202-2.5375-0.0361-2.806 1.2596-2.8066 8.5977-5.3076 17.296-7.8386 25.98-1.1716 3.5982-0.38223 7.4192-0.309 11.111 0.78697 11.67 1.669 23.334 2.5446 34.997-0.13603 0.47548 0.48407 1.2028 0.731 0.51069 1.0954-5.0615 2.3626-10.097 3.3637-15.188 1.3934-8.8914 2.6919-17.807 3.5786-26.765 0.20217-4.256 0.7953-8.4945 2.0558-12.566 1.6651-6.2352 3.6361-12.393 5.1402-18.669 0.20688-0.9216-1.1476-0.50265-1.6536-0.63694-1.6017-0.0455-3.2044-0.0367-4.8066-0.0347z" fill="#ccc"/><path d="m150.82 21.3c-0.84338-0.0033-1.5987 0.282-2.1735 0.8568-0.55987 0.55987-4.2434 4.0864-15.836 32.196l-3.6509 8.8522c-3.9425 9.5596-4.8674 13.558-8.708 23.235l-2.205 5.5562-2.2056 5.5562-3.1538 1.5823c-3.7904 1.9015-4.4443 1.9486-9.2816 0.66869-6.448-1.706-7.5471-2.1024-7.8192-2.8179-0.13766-0.36207-0.25063-2.1587-0.25063-3.9925 0-3.3215-0.0033-3.3407-0.93793-5.041l-0.93844-1.7069 0.58136-1.093c0.31979-0.60127 0.97274-1.8674 1.4506-2.8133 0.61216-1.2118 1.3773-2.1697 2.5905-3.2437 2.1839-1.9334 3.4001-4.2291 3.5584-6.7159 0.10101-1.5862 0.0636-1.7173-0.69091-2.4221-0.43873-0.40983-1.508-1.124-2.3766-1.587-0.86858-0.46295-1.6983-0.99201-1.8438-1.1756-0.14551-0.18363-0.34663-1.2769-0.447-2.4298-0.10036-1.153-0.28382-2.284-0.40721-2.5135-0.23457-0.43632-10.063-6.1061-10.584-6.1061-0.16479 0-0.65635 0.1848-1.0924 0.41031l-0.79272 0.40979-15.136-8.3835c-8.3243-4.6109-15.701-8.6944-16.394-9.0749s-1.313-0.87054-1.3792-1.0888c-0.06623-0.21828-0.24803-1.4684-0.40359-2.7781-0.17389-1.464-0.46354-2.636-0.75241-3.0427-0.62231-0.8761-4.9677-3.1529-6.041-3.1652-1.0821-0.01243-2.2535 0.96722-3.0003 2.5099-0.3129 0.64636-0.60256 1.1762-0.64751 1.1844h-0.001034c-0.04145 0-0.60752-0.29749-1.2578-0.66094-2.5917-1.4485-5.1699-1.0633-7.0151 1.048-1.4763 1.6893-4.237 7.334-4.5387 9.2806-0.39913 2.5748-0.0096 3.9596 1.5606 5.5495 0.7257 0.73482 1.3193 1.535 1.3193 1.7782 0 0.24322-0.76179 2.2041-1.6929 4.3574-0.93113 2.1533-1.7757 4.3099-1.8769 4.7925-0.22148 1.0562 0.22111 2.255 1.0273 2.7833 0.31834 0.20859 6.3486 3.4413 13.401 7.1841 7.0521 3.7428 13.095 7.0688 13.429 7.3908 0.57294 0.55256 0.61247 0.82106 0.71107 4.8007 0.12363 4.991 0.49148 6.5154 1.9332 8.014 0.54015 0.56147 1.1507 1.0741 1.357 1.1395 0.31206 0.09897 0.32321 0.32475 0.06615 1.3457-0.52062 2.0675-0.38064 4.6247 0.35088 6.4043 0.61215 1.4891 0.62632 1.6376 0.25838 2.7213-0.54255 1.598-0.48621 3.7768 0.14004 5.4245 0.29097 0.76555 0.52909 1.5942 0.52917 1.8418 7e-5 0.2475 0.12986 1.0547 0.28836 1.7937 0.53863 2.5116 0.61656 2.5558 9.9715 5.6741 4.7438 1.5812 8.8287 2.7978 9.3943 2.7978 1.2331 0 2.4327-0.48503 3.5698-1.4438l0.8661-0.7307 7.7329 2.9238c4.2529 1.608 8.2471 3.0563 8.8759 3.2189 2.2479 0.58118 4.4237 0.33629 7.0637-0.79531 0.6521-0.2795 1.1855-0.44653 1.1855-0.37103 0 0.50807-2.5114 8.8758-2.8345 9.4439-0.0649 0.11406-0.85014-0.47056-1.7451-1.2992-3.0792-2.8508-6.4042-3.7853-10.369-2.9156-5.7843 1.2687-14.399 3.4293-15.35 3.8499-1.6906 0.74782-2.3537 1.8819-2.4722 4.2287-0.05434 1.076 0.03975 2.4176 0.20877 2.9817 0.36442 1.2163 1.6249 2.7283 2.7699 3.3218 1.7491 0.90657 2.3704 0.88275 10.003-0.3762l7.3592-1.2139 1.6511 1.5684c0.90808 0.86251 2.1118 1.9409 2.6748 2.3968l1.0237 0.82889-1.7477 6.15c-0.96123 3.3824-1.7792 6.1719-1.8175 6.1991s-1.084 0.53481-2.3239 1.1281c-7.2518 3.47-14.449 11.248-19.01 20.543-3.3284 6.7832-5.3667 13.88-6.4285 22.383-0.51044 4.0875-0.43143 13.626 0.14779 17.832 1.8138 13.169 7.3361 24.952 15.5 33.328 0.08553 0 4.6409 3.6361 8.1041 5.1956 3.1977 1.4399 6.9314 2.5454 10.91 3.0168s9.0259 0.4075 13.001-0.092c3.9749-0.49949 7.888-1.3204 10.711-2.6546 6.4588-3.0521 12.809-5.498 18.943-18.129 1.492-3.0716 4.2194-10.661 4.2194-11.742 0-0.80442 0.31465-0.85955 2.3177-0.40721 2.5756 0.58163 3.3865 1.1277 3.5931 2.4195 0.21676 1.3556 1.1343 2.674 2.2872 3.2866 0.86208 0.45812 1.7809 0.48931 14.155 0.48731l13.233-3e-3 1.3229-0.62115c1.5557-0.7307 2.0314-1.2172 2.7575-2.8179 1.4985-3.3036-0.24743-7.0776-3.6814-7.9576l-1.2314-0.31575 0.0155-3.3352c9e-3 -1.8345-0.14299-5.1812-0.33693-7.4368l-0.35295-4.101 1.3586-4.4979c1.415-4.6847 4.8896-17.562 5.18-19.197 0.16547-0.93183 0.19203-0.94834 2.727-1.7084 14.981-4.492 23.83-18.049 23.854-36.546l5e-3 -4.006 2.1828-0.57981c1.2006-0.31894 2.9567-0.79413 3.9026-1.0563 0.94588-0.26214 2.6128-0.61414 3.7042-0.78186 2.5439-0.39093 4.034-1.1195 5.7134-2.7936 2.5149-2.5072 3.7471-6.2 3.4742-10.412-0.31343-4.8379-2.6592-8.7264-6.3877-10.588-0.66197-0.33061-1.606-1.1-2.0975-1.7094-0.71573-0.8874-5.0586-7.2798-5.8131-8.5566-0.1067-0.18055 0.19062-0.52355 0.72916-0.84129 2.0206-1.1922 2.2912-3.8255 0.66817-6.5035-2.0064-3.3105-5.3616-6.5238-8.3251-7.9732-2.6144-1.2787-4.5388-1.7099-8.3344-1.8676-3.6123-0.15009-4.4979-0.26703-4.4979-0.59428 0-0.11835-0.72793-1.5745-1.6175-3.236-6.5764-12.284-16.375-26.872-25.221-37.549-7.6682-9.2556-19.125-20.709-23.391-23.386-0.92587-0.58075-1.8572-0.87309-2.7006-0.87643zm-114.68 13.427c0.49827 0.0018 0.99743 0.11646 1.3074 0.34313 0.42961 0.31414 0.47029 0.63658 0.34933 2.758-0.1106 1.9397-0.29217 2.7334-0.94258 4.1233-0.92893 1.9851-2.7183 4.058-3.9507 4.5759-1.0488 0.44079-1.4644 0.44972-1.8738 0.04031-0.53202-0.53202-0.3943-1.5348 0.21084-1.5348 1.4396 0 4.0511-3.7775 4.3899-6.35 0.13278-1.0082 0.0477-1.35-0.555-2.2329-0.67312-0.9861-0.68626-1.0615-0.23823-1.3891 0.30697-0.22448 0.8045-0.33561 1.3028-0.33383zm5.1811 2.8975c9.72e-4 -1.27e-4 0.0022 0 0.0031 0 0.52762 0 3.482 1.4993 10.158 5.1537 34.266 18.758 41.521 22.789 41.946 23.301 0.45829 0.55221 0.85018 6.6016 0.65732 10.145-0.17165 3.1534-0.48991 4.1669-1.9012 6.0492-0.65109 0.86842-1.0971 1.0493-1.557 0.63149-0.13824-0.12559-4.2403-2.3765-9.1152-5.0023-27.692-14.915-25.108-13.694-25.755-12.177-1.3196 3.0951-2.1167 4.4431-2.6267 4.4431-0.29334 0-2.0348-0.79115-3.8695-1.758-8.2851-4.3662-14.751-7.879-15.176-8.2445-0.65557-0.56407-0.58758-1.0347 0.48783-3.392 2.8949-6.3457 5.3351-13.111 6.072-16.834 0.25005-1.2634 0.55259-2.299 0.67593-2.3151zm4.516 5.8208c-0.38595 0-1.1773 1.5395-1.0123 1.9694 0.07046 0.18361 4.9904 2.9939 10.933 6.2451 5.9428 3.2512 11.698 6.4124 12.789 7.0254 1.0914 0.61297 2.1783 1.1258 2.4154 1.1395 0.47669 0.0275 1.1232-1.265 0.98185-1.9632-0.05135-0.25362-1.6706-1.3124-3.7941-2.481-9.2731-5.1029-22.046-11.935-22.313-11.935zm-2.7776 6.1588c-0.22489 0.0029-0.22478 0.16671-0.34003 0.3235-0.60111 0.81774-0.74443 1.7224-0.33383 2.1043 0.20076 0.18669 5.425 2.9934 11.61 6.2373 6.1846 3.2439 11.959 6.2946 12.832 6.7789 0.87313 0.48436 1.7066 0.84559 1.8521 0.80305 0.37673-0.11013 1.2591-1.9724 1.0754-2.2696-0.08434-0.13647-2.504-1.4963-5.3769-3.0215-17.444-9.2604-20.584-10.966-21.319-10.956zm-4.7785 5.4829c-0.38682 0-1.598 2.4346-1.4428 2.9001 0.05717 0.1715 3.5538 2.134 7.7706 4.3615l7.6667 4.0504 0.60048-0.95963c0.59545-0.95155 1.0089-2.0922 0.82062-2.2645-0.35965-0.32906-15.148-8.0879-15.416-8.0879zm134.79 4.0587c1.8009 0.0011 3.5857 0.22401 4.9428 0.66869 2.8985 0.94974 2.9148 1.0637 0.46871 3.2954-2.4134 2.2019-4.1217 4.4118-4.7914 6.1976-0.55883 1.4901-0.63872 1.5561-2.1544 1.7834-0.64411 0.09659-1.1129 0.23434-1.0413 0.30592s0.91826 0.29506 1.8815 0.49661c1.9858 0.41548 4.3829 1.6043 5.9655 2.959 2.0243 1.7327 1.9676 1.7948-1.6707 1.8247-4.6298 0.03803-7.8692 0.84269-13.571 3.3709-4.8875 2.1672-5.9164 2.5227-5.9164 2.0433 0-0.70968 2.0722-4.4312 3.1145-5.5935 0.69336-0.77312 2.2015-1.8861 3.9026-2.8804 1.5249-0.89131 2.7724-1.6624 2.7724-1.7131 0-0.0507-0.44648 0.0087-0.99219 0.13178-3.933 0.88737-7.3939 3.0924-9.9426 6.3345l-0.72812 0.92604 0.10439-3.4396c0.0928-3.064 0.19157-3.6629 0.90692-5.487 1.0846-2.7656 2.1503-4.3532 4.2545-6.3376 1.9888-1.8755 4.5146-3.3064 7.4554-4.2235 1.4205-0.44302 3.2375-0.66409 5.0384-0.66301zm7.3318 6.5267c0.75243 0.0032 3.3845 2.2748 4.3687 3.7703 1.1984 1.8209 2.0403 4.144 2.2221 6.1319 0.12646 1.383 0.067 1.7057-0.43047 2.3327-0.7844 0.98856-1.4315 0.91432-2.3068-0.26458-1.8428-2.4819-3.0166-3.6804-5.0571-5.164-2.7893-2.0281-2.9262-2.275-2.0702-3.7357 0.7928-1.3528 2.6273-3.0733 3.2737-3.0706zm0.6103 13.813c0.15347-0.0048 0.29467-3e-3 0.4253 0.0057 0.87087 0.0579 1.2656 0.4229 1.5922 1.2041 0.64319 1.5389 0.98469 4.3849 0.67334 5.6115-0.29009 1.1429-0.16632 1.1681 0.92243 0.18862 0.65046-0.5852 1.3495-2.4538 1.619-4.3295 0.19819-1.3793 0.92889-2.1087 2.4453-2.4412 2.2655-0.49668 3.2114 0.75287 3.2561 4.301 0.0226 1.7965-0.0815 2.3681-0.63252 3.4732-0.92918 1.8636-2.2802 2.5029-5.7247 2.7084-2.8252 0.16856-2.6815 0.09165-4.5548 2.4319-1.1959 1.4941-3.2708 2.8205-5.1862 3.3156-1.4713 0.38028-3.9031 0.48126-5.4348 0.22531-1.5689-0.26218-4.8328-1.5059-6.3257-2.4102-1.8184-1.1014-3.9368-3.0744-5.085-4.7367-0.64719-0.93692-1.8185-3.3024-1.8185-3.6726 0-0.0607 0.32743-0.10832 0.72761-0.10542 0.5912 0.0043 0.87641 0.25678 1.5214 1.3457 2.208 3.7278 6.4872 6.0532 11.151 6.0601 1.7513 0.0026 5.1211-0.8883 5.1211-1.3539 0-0.10732-0.41673-0.33265-0.92605-0.50074-0.50932-0.16809-0.92604-0.36394-0.92604-0.43512s0.29312-0.51351 0.65113-0.98288c0.88569-1.1612 1.9095-3.5024 2.126-4.8612l0.17829-1.1193 0.79582 0.41134c0.43774 0.22637 0.8499 0.35776 0.9157 0.29197 0.16623-0.16623-0.43657-2.5495-0.85731-3.3895l-0.34675-0.69246 1.9518-0.33383c0.71523-0.12234 1.2847-0.19552 1.7451-0.20981zm-115.33 0.22738c0.70602 0.0021 1.5434 0.18477 2.5244 0.54777 2.8445 1.0525 3.7801 2.1225 3.7801 4.3233 0 1.5074-0.55321 2.8777-1.3808 3.4199-0.95034 0.62269-2.0408 0.71186-3.561 0.29146-2.2125-0.61183-3.8099-1.4795-4.3475-2.3611-0.98949-1.6227-0.37853-4.4065 1.248-5.686 0.45616-0.35881 1.0308-0.53743 1.7368-0.53537zm101.89 1.8769c0.52018-0.01371 1.0219 0.1467 1.3927 0.49506 0.90423 0.8495 0.88276 2.1822-0.0491 3.0458-0.90526 0.83898-1.9589 0.82619-2.9838-0.03617-0.97471-0.82016-1.0452-1.6656-0.21859-2.6169 0.49074-0.56479 1.19-0.87018 1.8588-0.8878zm-41.186 0.17363c6.5495 1.2151 8.7292 2.5388 18.205 3.6649 2.1585 0.25651 10.665 0.91632 10.892 1.7699 0.49184 1.8478 1.1384 2.4758 2.3694 4.1527 1.5216 2.0728 5.1814 5.3655 7.6631 6.8947 2.2663 1.3965 2.4039 1.535 2.882 2.9006 0.48616 1.3886 0.93867 6.3288 0.57981 6.3288-0.0944 0-0.77612-0.47778-1.5152-1.062-3.7174-2.9384-9.8198-4.76-15.94-4.7578-7.3643 3e-3 -14.091 2.3609-18.679 6.5484-2.7869 2.5436-3.1813 3.6291-0.86661 2.3844 1.9158-1.0302 6.8937-2.5386 10.299-3.1207 3.7097-0.6342 9.2742-0.69828 11.91-0.13746 5.7237 1.2179 8.4161 2.9428 13.449 8.617 3.7324 4.2078 3.7558 4.2222 7.2145 4.5258 4.7074 0.41326 9.4932-0.46197 14.053-2.5709l2.0107-0.93018 0.52916 0.61495c0.29104 0.33822 1.4149 2.0266 2.4975 3.7517 1.8425 2.9359 1.9375 3.1588 1.4857 3.4892-1.1853 0.86672-2.419 0.73051-11.127-1.2289-8.391-1.8885-11.82-2.3837-13.097-1.8934-0.51887 0.19927-0.91792 0.11999-1.8521-0.3669-0.65498-0.34138-2.1073-0.76279-3.2272-0.9369-2.7621-0.42941-4.5168-0.0432-6.072 1.3369l-1.1307 1.0036-1.4655-0.52865c-2.1116-0.76145-5.5023-0.91049-7.0947-0.31213-1.8276 0.68676-4.3399 2.3768-7.2931 4.9072-5.5275 4.7362-7.6372 6.0296-10.552 6.4668l-1.2289 0.18397-0.61288-1.2842c-1.0348-2.167-1.6556-2.3425-8.2863-2.3425-6.697 0-7.2453 0.16086-8.3344 2.4464-0.3638 0.76346-0.72095 1.3659-0.79375 1.3384s-0.88233-0.0928-1.7994-0.1447c-1.5776-0.0892-1.6579-0.12542-1.4909-0.67644 0.0971-0.32028 0.51456-1.654 0.92811-2.9636 0.41355-1.3097 2.0735-6.7866 3.6887-12.171s4.1439-13.578 5.7206-18.175zm-44.255 4.6995c1.5141 0.01542 3.0699 0.2653 5.2229 0.83871 4.7049 1.253 4.9296 1.3761 5.1475 2.8288 0.38555 2.571-0.66977 11.589-1.6232 13.871-0.21901 0.52414-0.65172 1.2224-0.96118 1.5518-0.69692 0.74187-0.77288 0.74195-1.4733-4e-3 -1.9719-2.0991-1.9896-8.1229-0.03101-10.613l0.52038-0.66146-0.99994-0.27802c-2.3789-0.66062-2.8478-0.48744-5.4312 2.003l-2.3683 2.2831-1.5338-0.13901c-2.0084-0.18212-3.0223-0.67594-3.1202-1.5193-0.10386-0.8948 1.3887-6.7164 1.9813-7.7277 0.26207-0.44726 0.93482-1.1831 1.495-1.635 0.96009-0.77467 1.1422-0.82014 3.175-0.79943zm124.16 3.5838c4.4118-0.17186 9.9902 1.892 13.126 5.0281 1.5963 1.5963 1.6372 2.0815 0.17621 2.0815-2.7643 0-7.7921 2.1028-10.737 4.4907-0.90039 0.73003-2.7219 2.6895-4.0478 4.3543-1.7737 2.2269-2.7093 3.1714-3.5398 3.5734-2.051 0.99288-4.2076 0.48883-5.3728-1.2557-1.6391-2.4542-1.4018-7.9695 0.50746-11.8 1.5859-3.1819 4.629-5.5393 8.0791-6.258 0.57214-0.11919 1.1784-0.18939 1.8087-0.21394zm-142.9 1.5534c0.53662 0 9.7971 2.069 10.117 2.2603h5.17e-4l5.16e-4 5.17e-4 5.17e-4 5.17e-4c0.03087 0.03883-0.17248 0.57496-0.45837 1.2051-0.91645 2.0199-0.51043 3.7979 1.0521 4.6059 0.4341 0.22448 0.7891 0.58334 0.7891 0.79788s-0.14883 0.3817-0.33073 0.37104c-0.79094-0.0464-12.163-3.3147-12.953-3.7228-1.0591-0.54684-0.76732-3.6624 0.45785-4.8876 0.34708-0.34707 0.94337-0.63097 1.325-0.63097zm120.79 5.8715c0.1769 0.0048 0.37686 0.02997 0.60307 0.06615 0.59497 0.09514 1.1729 0.31586 1.2842 0.49093 0.11126 0.17506 0.20419 2.7271 0.20619 5.671 5e-3 6.6646-0.087 6.9701-2.6014 8.6227-3.3333 2.1909-6.2524 3.9669-7.3122 4.4483-1.3775 0.62578-1.6772 0.61436-3.053-0.11317-1.4555-0.7697-1.5531-1.0866-0.46664-1.5167 1.9092-0.75588 1.8283-0.38483 1.7777-8.1623-0.0422-6.4863-0.0102-7.0306 0.43356-7.3551 0.50453-0.36892 1.6353-0.46043 2.3409-0.18965 0.36357 0.13953 0.41872 0.91178 0.42272 5.887 2e-3 3.1495 0.10958 5.8933 0.23874 6.0973 0.19281 0.30453 0.45848 0.23987 1.4842-0.36121 0.68711-0.40267 1.7108-1.1488 2.2748-1.6583l1.0253-0.92656v-4.9377c0-5.1353 0.10377-6.0964 1.342-6.0627zm-121.15 3.8463c0.62829-0.0184 10.735 2.5368 11.777 2.9776 0.32042 0.13552 0.76881 0.60703 0.99684 1.048 0.36542 0.7067 0.36989 0.90984 0.03514 1.711-0.20887 0.49991-0.67503 1.1022-1.0356 1.3384-0.98559 0.64578-2.2418 0.69801-4.1512 0.1726-8.5937-2.3648-9.2604-2.7244-9.2604-4.992 0-1.4518 0.56086-2.2241 1.6381-2.2557zm151.7 3.7806 4.3269 5.1666c2.3796 2.8415 4.2811 5.1978 4.2256 5.2359s-0.39842 0.19644-0.76222 0.35192-1.2145 0.70516-1.8908 1.2216l-1.2299 0.93896-1.4227-1.6309c-0.78266-0.89715-2.5435-2.9204-3.9129-4.4958l-2.4903-2.8644 0.4718-0.87591c0.2594-0.48169 0.96957-1.3643 1.5782-1.9616zm-5.6606 8.4305c0.38577-0.0384 5.0584 5.8841 4.8183 6.1195-0.12714 0.12462-1.1448 0.5323-2.2619 0.90589-1.1171 0.37359-2.1291 0.67062-2.249 0.66042-0.11986-0.0102-1.0263-1.0434-2.0143-2.296l-1.7963-2.2769 1.664-1.5022c0.91527-0.82606 1.7374-1.549 1.8273-1.6066 3e-3 -2e-3 7e-3 -4e-3 0.0119-4e-3zm18.006 4.2933c3.445-0.0661 7.1326 3.1171 7.1174 7.908-0.0101 3.2012-1.1506 6.0359-2.9223 7.2636-2.2635 1.5686-5.3442 1.1886-7.1954-0.8878-1.58-1.7722-2.2164-3.8696-2.2159-7.3008 3.3e-4 -2.4738 0.0857-3.0692 0.56948-3.9688 1.1044-2.0535 2.8422-2.9797 4.6467-3.0143zm1.1844 3.684c-0.91603 0.0316-1.8291 0.43202-2.4893 1.1524-0.79718 0.8699-0.86919 1.0914-0.86919 2.6805 0 2.0737 0.42924 3.2134 1.572 4.1749 2.2988 1.9343 5.3072-0.13497 5.3072-3.6504 0-1.669-0.85698-3.4542-1.9229-4.0054-0.49741-0.25722-1.0482-0.3709-1.5978-0.35191zm-10.164 1.6283c0.18188-9e-3 0.15892 0.2099 0.0119 0.90796-0.11907 0.56521-0.19499 1.8012-0.16899 2.7471l0.047 1.7198-8.3819 2.3156c-4.6102 1.2735-8.7124 2.3153-9.1157 2.3151-0.55046-3e-4 -0.80833-0.18192-1.034-0.72812-0.16537-0.40018-0.57238-1.3523-0.90485-2.1156-0.55735-1.2796-0.56948-1.4056-0.15658-1.6195 0.24631-0.12762 3.2455-0.95757 6.6652-1.8443 5.7703-1.4963 11.651-3.1625 12.785-3.6225 0.10906-0.0442 0.19258-0.0725 0.25321-0.0755zm-53.303 0.55294c1.6767-0.0266 2.9585 0.89328 2.9585 2.3074 0 1.0119 0.43689 1.236 1.1441 0.58601 1.3707-1.2597 2.3705-1.6413 4.3052-1.6423 2.1948-1e-3 2.7105 0.36597 2.9424 2.095 0.0796 0.59338 0.21851 1.0791 0.30851 1.079 0.09-8e-5 0.78992-0.23819 1.5555-0.52916 2.6972-1.0252 5.8801-0.60027 7.1634 0.95653l0.77308 0.93844 1.232-0.41806c2.432-0.82568 5.4568-0.35721 7.0637 1.0945 0.76965 0.69534 1.1584 1.3563 1.5565 2.6453 0.66454 2.1515 0.66996 3.2634 0.0212 4.5351-0.91669 1.7969-1.2031 1.8137-1.68 0.10077-0.74119-2.6625-3.1617-4.805-5.4452-4.8199-1.3254-9e-3 -3.9345 0.73476-5.0276 1.4325-1.4737 0.9407-2.0275 1.6685-3.1833 4.1842-0.58499 1.2733-1.2176 2.3009-1.4061 2.2836-0.44931-0.0413-3.3164-0.61718-4.2457-0.85267-0.65077-0.16492-0.7275-0.30256-0.7245-1.3038 2e-3 -0.61569 0.19105-1.7742 0.42064-2.5745 0.56126-1.9566 0.57916-2.4811 0.0879-2.5812-0.74609-0.15202-1.6974 0.90116-2.9006 3.2122-1.3306 2.5558-0.82829 2.3641-4.3579 1.6671-1.5703-0.31009-1.5883-0.32423-1.6681-1.2821-0.0455-0.54576 0.21849-1.8589 0.60461-3.0091 0.63382-1.8881 0.65407-2.0878 0.27285-2.6696-0.22663-0.34587-0.52834-0.6289-0.67024-0.6289-0.36184 0-1.6731 2.1582-2.6996 4.4431-0.72913 1.6231-0.95064 1.9069-1.3958 1.7896-0.29105-0.0767-1.4604-0.21843-2.5988-0.31523l-2.0702-0.1757 0.1819-1.3498c0.25341-1.8829 0.78182-3.3634 2.1554-6.0363 1.7298-3.366 2.7679-4.6245 4.1134-4.9868 0.4181-0.11258 0.82593-0.16904 1.2128-0.17518zm-11.917 2.3099c1.2612 1e-3 3.498 0.39381 3.498 0.61391 0 0.14212-1.4766 3.5142-1.6722 3.8189-0.14332 0.22322-0.81384 0.31692-2.0319 0.28422-2.1488-0.0577-2.5249 0.14693-6.8792 3.7429-5.4452 4.4969-7.6759 5.8385-10.815 6.504-2.3263 0.49314-6.8783 0.51099-7.0636 0.0279-0.0744-0.19382 0.0901-1.1761 0.36535-2.1828l0.50074-1.8304 3.0164-0.16639c1.6591-0.0917 3.4133-0.29481 3.8985-0.45114 1.8087-0.58274 4.0703-2.1233 9.9658-6.7887 3.5081-2.7761 5.1211-3.5744 7.2176-3.5724zm-55.046 4.7739c0.73224 0.0103 1.4835 0.12795 2.0133 0.34934 0.47682 0.19923 1.9871 1.5684 3.3564 3.0427l2.4892 2.6804h2.9698c1.6332 0 3.0241 0.0893 3.0913 0.19844s-0.16072 1.0914-0.50643 2.1828l-0.62838 1.9844-2.0578 0.0191c-2.4194 0.0223-3.6154-0.16586-4.7036-0.74001-0.85997-0.45372-4.1533-3.7736-5.1248-5.1661-0.53611-0.7684-0.73556-0.8599-1.8764-0.8599-1.4451 0-1.5978-0.18784-1.5978-1.9637 0-0.95041 0.10531-1.1745 0.67386-1.4335 0.45541-0.20749 1.1689-0.30436 1.9012-0.29404zm24.214 2.6365c2.9481-3e-3 3.9023 0.0773 3.9016 0.32711-5.4e-4 0.1819-0.54026 2.1762-1.1994 4.4318-0.65916 2.2556-2.2232 7.792-3.4758 12.303-2.2342 8.0464-2.2817 8.2774-2.4851 12.171-0.23626 4.5212-0.28483 4.9398-2.2448 19.315-1.1771 8.6329-1.6866 11.559-2.7647 15.875-0.72693 2.9104-1.4883 6.2813-1.6919 7.491-0.20355 1.2097-0.42723 2.2571-0.49713 2.327-0.37552 0.37552-0.54276-1.0747-0.99528-8.6274-0.15258-2.5466-0.6241-8.9165-1.048-14.155-0.91846-11.351-1.4475-21.01-1.2149-22.176 0.1829-0.91689 5.8867-20.203 7.5758-25.616 0.87335-2.7987 1.1396-3.3681 1.6397-3.5021 0.32847-0.088 2.3536-0.16181 4.5-0.16381zm30.939 3.1988 0.6134 0.71313c0.68462 0.79592 0.74615 0.51473-0.89969 4.0824-1.0188 2.2084-1.0947 3.8302-0.22582 4.8245 0.77894 0.89138 6.4256 3.0645 8.4439 3.2494 1.7834 0.16344 3.4918-0.52626 4.2943-1.7338l0.50074-0.75396 2.3725 0.6165c2.612 0.67843 3.7937 0.75355 5.2958 0.33642 0.79514-0.22082 1.075-0.19933 1.3818 0.10748 0.85854 0.85854 2.3151 1.537 4.099 1.9089 2.1802 0.4546 3.2864 0.26516 5.4281-0.92863 1.025-0.57138 1.4654-0.68436 1.9554-0.50281 0.74978 0.27779 1.3848 0.16187 8.231-1.5048 2.8376-0.69081 5.6216-1.313 6.1862-1.3824l1.0263-0.12609-0.18655 1.5524c-0.28697 2.3886-1.0741 5.8162-1.9063 8.2992l-0.75396 2.249-2.9104 0.16588c-3.1058 0.17674-4.3656 0.40562-4.3656 0.79375 0 0.13242 0.28504 0.80439 0.63355 1.4929 0.34851 0.68854 0.70942 1.5845 0.80202 1.9916 0.15913 0.69992 0.0708 0.6595-1.6257-0.74414-3.3871-2.8024-7.6716-4.4472-11.584-4.4473-2.792-9e-5 -5.036 0.66964-7.3763 2.2019-3.6999 2.4225-6.3109 6.3134-7.0786 10.549-0.1486 0.81974-0.44221 1.7582-0.65268 2.0857-0.29988 0.46651-0.6299 0.59531-1.526 0.59531-1.3435 0-1.4397-0.0913-3.3373-3.175-3.6514-5.9337-8.8967-11.376-14.425-14.966-3.8928-2.5279-8.3437-4.4292-12.634-5.3976-2.5646-0.57887-2.7115-0.68349-2.4303-1.7296 0.13042-0.48527 0.366-0.52917 2.8406-0.52917 4.5652 0 6.1779-0.71594 15.019-6.6673zm35.236 0.42478c2.4646 0.0306 3.8133 3.8066 1.5534 5.9717-1.3914 1.333-3.2598 1.0426-4.2008-0.65319-0.84608-1.5247 0.0364-4.459 1.5301-5.087 0.39037-0.16414 0.76517-0.23588 1.1172-0.23151zm-80.402 9.0609c0.73996-4e-5 1.4614 0.11419 1.4614 0.34262 0 0.1818-0.50601 1.9235-1.1245 3.8706-0.85151 2.6808-1.2529 3.5879-1.6536 3.7378-0.29104 0.10882-1.042 0.31699-1.6692 0.4625-1.0074 0.23376-1.1209 0.21447-0.97306-0.16588 0.092-0.23677 0.64287-2.0378 1.2242-4.0023 0.58133-1.9645 1.1048-3.7207 1.1632-3.9026 0.0733-0.22844 0.83152-0.34257 1.5715-0.34262zm72.37 14.697c2.4662 1e-3 2.9415 0.0806 4.2333 0.7059 1.4169 0.68579 1.4324 0.70455 0.58652 0.72605-1.9874 0.0504-4.8769 2.304-6.1469 4.7935-0.6799 1.3327-1.3117 3.3295-1.3157 4.1584-3e-3 0.57205-0.0899 0.59427-2.1859 0.56327-2.0657-0.0305-4.5964-0.29955-5.9862-0.63613-0.56913-0.13782-0.61592-0.26051-0.49816-1.3054 0.2034-1.8045 1.2037-3.5607 3.1347-5.503 1.2293-1.2366 2.3363-2.0526 3.5889-2.6458 1.6856-0.79832 2.004-0.85779 4.5894-0.85679zm-55.49 1.8438c0.49171 9e-3 1.3319 0.34934 2.6841 1.034 2.9331 1.4852 6.2192 4.0545 8.2677 6.4642 4.0846 4.8048 7.546 11.809 8.9442 18.099 0.64241 2.8901 0.39242 3.0452-0.46663 0.28938-3.4353-11.02-9.6431-19.833-16.179-22.968-1.318-0.63223-2.7236-1.2316-3.1238-1.3317-0.54345-0.136-0.7276-0.34386-0.7276-0.82269 0-0.47593 0.13797-0.73261 0.50798-0.76171 0.0297-2e-3 0.0607-3e-3 0.0935-3e-3zm60.936 3.1192c0.10257-4e-3 0.20597-3e-3 0.31058 2e-3 0.55792 0.0278 1.1447 0.18507 1.758 0.47335 2.401 1.1286 3.489 3.4927 3.2789 7.1231-0.14738 2.5459-1.1534 4.7984-2.5694 5.7526-1.1285 0.76051-3.1374 0.79825-4.701 0.0884-2.9532-1.3408-3.8931-6.2659-1.9492-10.214 1.026-2.0841 2.3336-3.1668 3.8721-3.2251zm0.44184 3.1259c-0.45506 0.0125-0.89027 0.11999-1.1508 0.31884-1.6685 1.2733-1.7426 5.5277-0.12454 7.1458 0.65348 0.65348 2.0586 0.57977 2.7166-0.14263 0.91768-1.0075 1.1374-1.6843 1.1374-3.5016 0-1.8752-0.45256-3.1105-1.3079-3.5683-0.3406-0.18229-0.81567-0.26472-1.2707-0.25218zm-84.311 7.1236c0.64853 0 0.41183 0.47879-1.3193 2.668-10.065 12.728-12.056 36.493-4.4028 52.552 1.687 3.54 2.8871 5.3182 5.2984 7.8496 3.1055 3.2603 6.2505 5.2696 10.187 6.5081 2.6754 0.84179 7.4467 0.8473 10.054 0.0114 7.9976-2.564 14.276-9.3798 18.136-19.689l0.8816-2.3549 0.38705 0.81701c0.35797 0.75586 0.33264 0.97168-0.339 2.8841-4.0417 11.508-12.784 20.381-21.694 22.019-4.8025 0.88284-9.8475-0.38858-14.757-3.7186-2.2799-1.5465-5.973-5.1885-7.7153-7.6083-2.8184-3.9146-5.4717-9.752-6.9272-15.24-4.104-15.474-1.0679-32.854 7.4998-42.933 1.2781-1.5037 4.1074-3.7657 4.7103-3.7657zm20.374 0.52916c3.1e-4 -2e-5 1e-3 0 1e-3 0 0.44917 0 2.6226 1.8054 4.3403 3.6055 3.0586 3.2053 4.9782 6.3182 6.7298 10.914 3.8954 10.221 3.692 25.019-0.48008 34.911-1.6424 3.8942-2.7581 5.6031-5.2999 8.1194-2.6189 2.5925-4.5402 3.7844-7.2094 4.4726-4.5453 1.1719-8.3964-0.18695-12.662-4.4674-4.6563-4.6727-7.5772-11.303-8.6088-19.544-0.41069-3.2806-0.19989-10.802 0.39429-14.067 0.86117-4.7316 3.2217-10.539 5.2612-12.943l0.88005-1.0372 0.30799 3.2861c0.8836 9.4222 0.97119 12.037 0.48266 14.387-0.91625 4.4084-0.39967 9.1705 1.3431 12.383 1.8968 3.4966 5.2549 5.8511 8.3044 5.8224 5.3069-0.05 9.8547-6.031 10.213-13.432 0.25333-5.2346-1.3832-9.6258-4.8622-13.049l-2.0056-1.9735 0.16898-1.4847c0.33708-2.9643 2.0224-13.945 2.2888-14.912 0.14916-0.54145 0.33368-0.98529 0.41186-0.99219zm47.278 1.1679c0.62716 0.0105 1.6274 0.10043 3.2582 0.2744 2.1676 0.23124 4.2864 0.49093 4.7088 0.57723 0.47974 0.098 1.5082 0.90231 2.7404 2.1425 1.8145 1.8264 1.9492 2.0362 1.6816 2.6236-0.28623 0.6282-0.30485 0.63119-1.1529 0.19379-0.47409-0.24452-1.3954-0.85116-2.0474-1.3482-1.0751-0.81957-1.2035-0.85905-1.3803-0.42323-0.10725 0.26433-0.91931 4.4096-1.804 9.2118-0.8847 4.8022-1.6704 8.9396-1.7462 9.1943-0.16802 0.56537-0.18149 0.56465-1.8216-0.10955-0.7276-0.2991-2.335-0.75317-3.5719-1.0092l-2.249-0.4656 0.03-2.2174c0.0428-3.1865 1.9188-18.014 2.3332-18.441 0.13999-0.14439 0.39397-0.21357 1.0211-0.20309zm-17.925 5.8064c0.0709-5e-3 0.1787 0.0522 0.31936 0.12454 0.67424 0.34679 5.7155 1.5691 7.8714 1.9084 1.0186 0.16032 1.9855 0.33253 2.1482 0.38293 0.36751 0.11379-0.37799 5.251-1.2873 8.8728-0.34114 1.3588-0.73384 2.4924-0.87281 2.5187-0.59483 0.11276-5.4785-1.3892-5.6627-1.7415-0.11133-0.2129-0.40681-1.4586-0.65681-2.7683-0.25-1.3097-0.80309-3.8525-1.2289-5.6508-0.69961-2.9548-0.86205-3.6308-0.63045-3.6468zm-71.535 4.5604c0.1225 5.1e-4 0.21855 0.22845 0.22118 0.71778 0.0043 0.77971 1.6447 4.4953 2.4515 5.5532 1.8914 2.4797 2.0105 2.7537 1.681 3.8695-0.16949 0.57404-0.38052 1.1164-0.46922 1.2051-0.28479 0.2848-2.3251-2.273-3.1507-3.9502-0.94164-1.9127-1.4519-4.6208-1.1942-6.3386 0.10222-0.68165 0.30294-1.0574 0.46044-1.0568zm-3.6943 11.484c0.0012-1.4e-4 0.0024 0 0.0036 0 0.11263 0 0.20464 0.23504 0.20464 0.52193 0 1.5185 2.6344 6.057 4.9511 8.5297 1.6276 1.7373 1.6635 1.807 1.6635 3.2411 0 0.80612-0.02975 1.4651-0.06615 1.4645-0.38491-6e-3 -1.9297-1.2723-3.0567-2.5058-1.3938-1.5255-2.3995-3.2145-3.1424-5.2793-0.4303-1.1959-0.871-5.9352-0.55759-5.9722zm78.903 2.0045c1.7904 8e-3 3.6219 0.29684 5.2193 0.89452 3.6734 1.3744 8.4004 5.3014 10.826 8.9943 0.7302 1.1118 1.0129 0.45806 0.61754-1.4278-0.4799-2.2894-1.2525-3.8608-2.6779-5.4462-0.99841-1.1105-1.0985-1.3152-0.6444-1.3152 0.29573 0 1.6308 0.5587 2.9673 1.2418 3.1342 1.6019 6.2127 4.4193 7.3789 6.7531 1.1699 2.3412 0.99517 2.5508-0.5824 0.69918-1.6546-1.942-3.7687-3.7808-4.1067-3.5719-0.14101 0.0872-0.0424 1.2856 0.23616 2.8717 0.47357 2.696 0.64614 6.3909 0.33641 7.198-0.0883 0.23018-0.24869 0.41858-0.35656 0.41858s-2.0893-1.3274-4.4034-2.9497c-5.0443-3.5365-7.1005-4.8205-9.3038-5.811-3.7044-1.6653-8.2056-2.6133-12.417-2.6153-1.3908-6.1e-4 -2.504-0.11816-2.6009-0.27492-0.2048-0.33138 1.1538-2.5077 2.1776-3.4882 1.48-1.4173 4.3498-2.1842 7.3339-2.1709zm-79.12 13.942c0.14678-8e-3 0.49279 0.37536 1.0449 1.1322 1.5762 2.1608 4.3862 4.7236 5.9805 5.455 1.3943 0.63964 1.6889 1.0822 1.9973 2.9983 0.0937 0.58208 0.23508 1.3262 0.31368 1.6536 0.07861 0.32743 0.04069 0.59098-0.08423 0.58498s-1.5371-1.0545-3.1378-2.3306c-3.277-2.6123-4.564-4.2484-5.5573-7.0636-0.57319-1.6246-0.76478-2.4186-0.55707-2.4298zm3.9228 15.669c0.18063-4e-3 0.6656 0.25165 1.4542 0.75964 2.5256 1.627 3.7413 2.2044 5.812 2.7621 1.5892 0.42805 1.858 0.59488 2.2515 1.3937 0.24577 0.49895 0.52633 1.2344 0.62373 1.6345 0.2163 0.88852 0.17569 0.88811-2.1332-0.0233-2.3414-0.92418-4.6392-2.4809-6.3712-4.3165-1.3939-1.4773-1.9382-2.2038-1.6371-2.2102z"/><g transform="matrix(1.0612 0 0 .97679 24.263 14.472)"><path d="m121.18 73.605c0 9.1051-7.0488 16.448-14.654 18.49-8.6478 2.3213-18.011-6.4422-17.487-15.532 0.49811-8.6379 6.585-16.856 15.768-17.475 9.1833-0.61913 15.537 5.3974 16.371 14.465" fill="#a00" stroke="#000" stroke-linecap="round" stroke-width="2.403"/><path d="m99.963 90.607s-4.2856-2.501-5.6716-4.3274c-1.2852-1.6935-2.0483-3.6269-2.5207-5.7298-0.41962-1.8679-0.27114-3.6869 0.14273-5.5562 0.42438-1.9167 2.2829-5.3081 2.2829-5.3081s2.6268 1.8463 4.2566 2.3564c2.294 0.71805 4.7878 0.8285 7.1815 0.74413 2.3865-0.08413 4.9344-0.51971 7.2528-1.1162 2.3053-0.59311 4.187-1.1779 6.1573-2.4289 0 0-0.68948-2.0503-1.33-2.9784-0.84948-1.2308-1.8335-2.3794-2.9483-3.3529-1.0587-0.92455-2.2078-1.8007-3.4975-2.3152-1.6559-0.66062-3.4746-0.98025-5.2462-0.91204-1.7986 0.06923-3.5746 0.63691-5.2462 1.333-1.6322 0.67969-3.2172 1.5705-4.5737 2.7361-1.19 1.0225-2.1869 2.2995-3.0267 3.6482-1.0926 1.7547-2.0627 3.6546-2.5558 5.6827-0.47478 1.9528-0.55027 4.0314-0.33629 6.0335 0.18867 1.7654 0.61484 3.552 1.4124 5.1215 0.73809 1.4524 1.8402 2.7066 3.0267 3.7885 0.85703 0.7815 1.9468 1.2175 2.9494 1.7798 0.56144 0.31488 2.2908 0.80138 2.2908 0.80138z" fill="#ff2a2a"/></g><path d="m124.67 162.47c-0.52743-0.0376-0.78192 0.53436-0.71174 0.98549-0.0464 0.54452 0.46787 0.86665 0.93377 0.9741 1.7516 0.64312 3.4478 1.4431 5.0166 2.4511 4.4294 3.0246 7.6421 7.511 10.129 12.196 1.6025 2.983 2.8337 6.1212 3.8828 9.3379 0.2768 0.69531 0.42434 1.4592 0.80785 2.1036 0.25192 0.23959 0.50431-0.13353 0.39917-0.37995-0.66739-4.3077-2.2435-8.4317-4.2094-12.305-2.1202-4.064-4.7267-7.992-8.3261-10.896-2.1808-1.7815-4.5803-3.3537-7.2297-4.3392-0.22406-0.0696-0.45601-0.12954-0.69234-0.127z" fill="#4d4d4d" stroke-linecap="round" stroke-width=".58796"/></g><path d="m11.192 118.97-2.2929-2.3195 68.355-0.22106 2.5121-0.9026c7.8651-2.8259 12.562-7.5856 15.128-15.329l0.89623-2.7053 0.20076-30.285 0.20076-30.285 4.058 4.2914v29.168c0 32.579-0.0236 32.93-2.5698 38.125-1.9453 3.9694-5.8443 7.8641-9.7975 9.7866-5.9457 2.8915-3.7258 2.7358-40.967 2.8732l-33.43 0.12325zm92.325 0.308c-1.16-1.0971-2.1091-2.1406-2.1091-2.3189 0-0.17832 4.7392-0.37048 10.531-0.42704l10.532-0.10283 0.10319-9.9518 0.10307-9.9518h36.145l2.3942 2.4155 2.3942 2.4155-18.341-0.10391-18.341-0.10404-0.10318 9.9592-0.10319 9.9592-21.096 0.20564zm77.635-0.24004-2.6196-2.2222 33.022-0.20159 0.0149-1.0587c0.0146-1.0286 0.0644-1.0038 1.7593 0.87372 2.705 2.9964 3.0403 3.5726 2.4755 4.2532-0.41119 0.49546-2.7274 0.57779-16.256 0.57779h-15.776zm36.375 0.23958c-1.1598-1.0968-2.1086-2.1429-2.1086-2.3246 0-0.18173 5.1118-0.33042 11.36-0.33042 10.002 0 11.388-0.0731 11.594-0.61132 0.12894-0.33623 0.23458-18.287 0.23458-39.891v-39.279l4.2548 4.202-0.0984 40.012-0.0984 40.012-23.029 0.20483zm32.078 1.7e-4c-1.1598-1.0969-2.1088-2.1431-2.1088-2.3248 0-0.18173 3.555-0.33042 7.9-0.33042 4.8498 0 7.9922-0.14921 8.1388-0.38648 0.15612-0.2526-2.3793-0.38648-7.3203-0.38648h-7.5591v-77.682h49.049c53.287 0 52.444-0.03152 57.022 2.1341 6.1931 2.9298 7.1501 5.7262 7.1606 20.924 8e-3 13.446-0.76614 17.156-4.3313 20.721-0.93195 0.93197-2.6415 2.1555-3.799 2.719-3.7255 1.8136-6.8398 2.1906-21.049 2.5481l-13.133 0.3304 14.493-0.07793c13.273-0.07144 14.708-0.14344 17.052-0.85438 6.1911-1.8778 9.461-5.3155 11.057-11.624 0.96184-3.8028 0.94445-21.855-0.0249-25.768-1.3029-5.2606-3.3136-7.7201-8.0597-9.8588-3.7788-1.7028-6.024-2.0435-15.387-2.3347l-8.6957-0.27048 8.3806-0.06683c13.018-0.1039 16.428 0.92817 22.411 6.783 5.871 5.7451 6.49 7.9115 6.49 22.716 0 10.951-0.34879 13.822-2.1187 17.439-1.7163 3.5081-5.3469 6.1939-10.449 7.7301-2.121 0.63858-5.3007 0.70792-41.332 0.90135l-39.034 0.20954-0.19323 14.3-0.19324 14.3-22.256 0.2051zm19.92-14.404c0-2.398 0.11406-7.2542 0.25365-10.792l0.25368-6.4316 17.85-0.20862-19.131-0.3851 2.9e-4 11.327c2e-4 7.453 0.13245 11.246 0.38677 11.088 0.22071-0.13642 0.38648-2.109 0.38648-4.5988zm69.866-37.334c1.3161-0.86677 2.3078-3.3314 2.6049-6.4735 0.229-2.4222 0.18101-2.802-0.35405-2.802-0.47988 0-0.62026 0.41239-0.62485 1.8358-3e-3 1.0097-0.14578 2.056-0.31664 2.3253-0.24604 0.38764-7.1828 0.5083-33.328 0.57973l-33.017 0.09024-0.23784 3.2851h-4.2068v-7.6046l12.464-0.25504c6.8551-0.14023 16.377-0.28789 21.16-0.32802l8.6957-0.07292-10.628-0.26244c-5.8455-0.14432-15.628-0.28571-21.739-0.31416l-11.111-0.05168v4.8473c0 3.3246 0.15176 5.0213 0.48311 5.4014 0.74245 0.85164 68.854 0.65719 70.156-0.2003zm-26.652-0.67599c4.5313-0.06183 11.836-0.06183 16.232 1.75e-4 4.3964 0.06196 0.68896 0.11256-8.2387 0.11243-8.9276-9.5e-5 -12.525-0.05087-7.9934-0.11256zm-302.54 38.957v-10.069h31.093c21.964 0 31.37-0.12596 32.035-0.4291 0.51796-0.23601 1.1348-0.85289 1.3709-1.3708 0.30159-0.66194 0.42909-9.0898 0.42909-28.363v-27.422h19.742l-0.12153 29.662c-0.11262 27.471-0.17361 29.819-0.82597 31.788-2.5986 7.8418-7.6176 12.661-15.769 15.142-2.8174 0.85752-3.004 0.86277-35.393 0.99614l-32.561 0.13408zm92.368-21.676c0-35.713-0.0342-35.217 2.7081-39.314 2.2888-3.4196 5.6625-5.7398 9.8696-6.7877 7.3998-1.8431 13.581-0.78971 19.171 3.2673 1.9953 1.448 75.692 73.71 75.692 74.219 0 0.17606-6.735 0.32009-14.967 0.32009h-14.967l-20.535-20.483h-38.022l-0.10297 10.145-0.10297 10.145-9.3721 0.1035-9.372 0.10336zm40.58-4.9167c0-0.16085-4.8696-5.1597-10.821-11.109l-10.821-10.816v10.545c0 7.8859 0.12182 10.684 0.48309 11.094 0.39401 0.44751 2.3896 0.55142 10.821 0.5634 5.686 0.0095 10.338-0.11689 10.338-0.27776zm-20.483-10.428v-8.7885l4.4445 4.63-0.11467 6.4735-0.11467 6.4735h-4.2152zm14.686 6.2764c-0.93876-0.95652-1.6199-1.7391-1.5136-1.7391 0.10633 0 0.96131 0.78262 1.9001 1.7391 0.93876 0.95652 1.6199 1.7392 1.5136 1.7392-0.10633 0-0.96133-0.78263-1.9001-1.7392zm-7.5484-7.6329-2.3068-2.4155 2.4155 2.3068c2.2438 2.1428 2.5923 2.5242 2.3068 2.5242-0.0598 0-1.1468-1.087-2.4155-2.4155zm86.776 9.5653v-38.841h20.87v77.682h-20.87zm-42.716 34.88-2.695-2.802 2.802 2.695c1.5411 1.4822 2.802 2.7431 2.802 2.802 0 0.2835-0.40584-0.0924-2.9089-2.695zm35.464 1.0239c-1.3129-1.2656-1.3356-1.3197-0.24986-0.59777 1.2329 0.81987 2.3732 1.9894 1.9397 1.9894-0.1354 0-0.89586-0.62624-1.6898-1.3916zm-7.4472-7.4008-2.1124-2.2222 2.2222 2.1124c2.0646 1.9625 2.3993 2.3321 2.1124 2.3321-0.0605 0-1.0604-0.99999-2.2222-2.2222zm-35.36-0.9662-2.695-2.802 2.802 2.695c1.5411 1.4822 2.802 2.7431 2.802 2.802 0 0.28348-0.40585-0.0924-2.9089-2.695zm28.211-6.1836-2.3068-2.4155 2.4155 2.3068c1.3285 1.2687 2.4155 2.3557 2.4155 2.4155 0 0.28558-0.38142-0.0629-2.5242-2.3068zm-6.9688-6.9566-1.1351-1.2561 1.256 1.1351c0.69084 0.62431 1.2561 1.1895 1.2561 1.256 0 0.29858-0.3189 0.03558-1.377-1.1351zm-8.1062-7.7296-1.9179-2.029 2.029 1.9178c1.116 1.0548 2.029 1.9679 2.029 2.029 0 0.28839-0.35804-0.03247-2.1402-1.9178zm-7.1465-7.1498-2.5009-2.6087 2.6087 2.5009c2.4231 2.323 2.7854 2.7165 2.5009 2.7165-0.0593 0-1.2332-1.1739-2.6087-2.6087zm-6.9662-6.9566-1.3318-1.4493 1.4493 1.3319c0.79712 0.73253 1.4493 1.3847 1.4493 1.4493 0 0.29513-0.32703 0.01705-1.5667-1.3319zm-8.303-7.9228-1.9178-2.029 2.029 1.9178c1.116 1.0548 2.029 1.9679 2.029 2.029 0 0.28838-0.35804-0.03247-2.1402-1.9179zm-7.1465-7.1498-2.5009-2.6087 2.6087 2.5009c1.4348 1.3755 2.6087 2.5494 2.6087 2.6087 0 0.28445-0.39352-0.07779-2.7165-2.5009zm-6.5589-6.4735c-0.93876-0.95654-1.6199-1.7392-1.5136-1.7392 0.10633 0 0.96132 0.78262 1.9001 1.7392 0.93877 0.95652 1.6199 1.7391 1.5136 1.7391-0.10633 0-0.96132-0.78262-1.9001-1.7391z" fill="#2a7fff" stroke-width="1.4607"/><path d="m-5.6355 147.73v-1.2352l7.2999-0.24096 0.24469-6.5176 1.1291 0.13029c1.0705 0.12338 1.1359 0.26027 1.2588 2.6331 0.2864 5.5288-0.63321 6.4656-6.3468 6.4656h-3.5856zm10.846 0.89725c0-0.18587 1.9438-2.2507 4.3195-4.5885 3.6097-3.5521 4.5326-4.2506 5.6167-4.2506 1.8242 0 2.2153 1.0043 2.0727 5.3213-0.11179 3.3848-0.18582 3.6564-1.0289 3.7764-0.72437 0.1031-0.93566-0.10823-1.0428-1.0428-0.12519-1.0918-0.27792-1.1806-2.2286-1.2949-1.868-0.10959-2.2257 0.0142-3.3108 1.1471-0.93923 0.98033-1.5793 1.2699-2.8071 1.2699-0.87477 0-1.5905-0.15214-1.5905-0.33792zm9.7794-4.6301c0.12897-0.20871 0.1255-0.66348-0.0076-1.0106-0.20606-0.53699-0.36179-0.5115-1.0442 0.1709-0.4411 0.44111-0.80202 0.89587-0.80202 1.0106 0 0.36994 1.6114 0.22139 1.8538-0.17092zm7.6075 4.0294c-0.82204-0.83039-4.4557-7.3457-4.4557-7.9893 0-0.13701 0.51781-0.24915 1.1507-0.24915 1.0055 0 1.3607 0.39411 2.8157 3.1247 0.91575 1.7186 1.8478 3.0655 2.0711 2.9931 0.22339-0.0724 1.1306-1.4784 2.0161-3.1247 1.4311-2.6607 1.7451-2.9931 2.8266-2.9931 0.6692 0 1.2167 0.0981 1.2167 0.21782 0 0.58869-3.5359 7.2018-4.2885 8.0206-0.47443 0.51621-1.2138 0.93856-1.6431 0.93856s-1.1986-0.42235-1.7097-0.93856zm8.4755 0.60064c0-0.18587 1.9437-2.2507 4.3195-4.5885 3.5052-3.4493 4.551-4.2506 5.5479-4.2506 1.965 0 2.2296 0.60389 2.2296 5.0891 0 4.0526-0.0097 4.0879-1.0151 4.0879-0.79734 0-1.0435-0.24613-1.1471-1.1471-0.12218-1.0621-0.28721-1.1562-2.2262-1.2699-1.868-0.10959-2.2257 0.0142-3.3108 1.1471-0.93922 0.98033-1.5793 1.2699-2.8071 1.2699-0.87478 0-1.5905-0.15214-1.5905-0.33792zm9.8712-4.9043c0.4416-1.1508-0.45388-1.4091-1.2351-0.35629-0.7309 0.98503-0.728 1.01 0.11746 1.01 0.47676 0 0.97971-0.29417 1.1177-0.65375zm9.7342 0.68147v-4.6162h6.1736c4.2455 0 6.33 0.15641 6.6742 0.50057 0.59323 0.59323 0.65592 3.6126 0.09353 4.5051-0.30066 0.47716-1.5617 0.6752-5.3121 0.83426l-4.9178 0.20858-0.20857 1.46c-0.17429 1.2201-0.39703 1.4817-1.3557 1.592l-1.1471 0.13191zm10.601-1.6381c0.12204-0.19743 0.14962-0.43207 0.06119-0.52142-0.34226-0.34617-8.1594 0.12501-8.1594 0.49187 0 0.48876 7.7968 0.5172 8.0982 0.0295zm3.7605 5.6461c-0.11666-0.30398-0.15768-2.3219-0.09113-4.4842l0.12092-3.9315 5.7826-0.11636c4.003-0.0806 5.9661 0.0359 6.379 0.37855 0.36758 0.30508 0.58592 1.2298 0.56921 2.4106-0.01422 1.0536 0.09634 2.9161 0.24719 4.1388l0.27434 2.2231-1.1998-0.13747c-0.82128-0.094-1.239-0.40062-1.3239-0.97171-0.39643-2.6652-0.12408-2.5214-4.3481-2.2942l-3.8777 0.20859-0.12942 1.5642c-0.11179 1.3506-0.27023 1.5643-1.1602 1.5643-0.56691 0-1.1262-0.24872-1.2428-0.55273zm10.251-5.8086c7.17e-4 -0.38848-0.9564-0.48728-3.7542-0.38752-2.0654 0.0736-3.7552 0.30826-3.7552 0.52142 0 0.21314 1.6894 0.38752 3.7542 0.38752 2.7248 0 3.7545-0.14299 3.7552-0.52142zm5.1205 5.5454c-1.1068-1.0312-1.5278-2.9164-1.1757-5.2646 0.42072-2.8055 1.117-3.0965 7.4097-3.0965h5.33v0.99822c0 1.3444-0.60319 1.5046-5.6655 1.5046-2.6191 0-4.3458 0.16573-4.3458 0.41713 0 0.25503 1.9559 0.41713 5.0334 0.41713h5.0333l-0.13195 1.1471-0.13195 1.1471-4.9013 0.11743c-6.5395 0.15687-6.4529 0.92533 0.10416 0.92533h5.0056v2.5028h-5.3441c-4.7274 0-5.4452-0.094-6.2199-0.81589zm12.815-3.7449v-4.6162l5.9442 7e-3c3.2693 3e-3 6.1993 0.168 6.5111 0.36554 0.70741 0.44822 1.0753 3.7901 0.51007 4.6337-0.32418 0.4838-1.5527 0.65715-5.4177 0.7644l-4.9985 0.13872-0.12739 1.5299c-0.11003 1.3211-0.28398 1.5478-1.2745 1.6618l-1.1471 0.13191zm10.535-1.9048c0.0592-0.24204-1.2091-0.46944-3.0215-0.5417-3.4023-0.13574-5.0106 0.11256-5.0106 0.77331 0 0.56008 7.8938 0.33244 8.032-0.23161zm3.882 5.7562c-0.14977-0.39017-0.14409-2.455 0.0126-4.5885l0.28474-3.8791h5.7681c6.561 0 6.7437 0.0957 6.5762 3.4448-0.0487 0.97321 0.0613 2.6758 0.24437 3.7836l0.33286 2.0142-1.1958-0.13701c-0.81747-0.0936-1.2351-0.40103-1.3199-0.97131-0.42127-2.8322-0.25102-2.7114-3.8197-2.7114-4.3156 0-4.6147 0.13811-4.6147 2.1303 0 1.4347-0.11635 1.6239-0.99821 1.6239-0.55483 0-1.1191-0.3151-1.2704-0.7094zm10.194-5.7562c0-0.50351-0.64509-0.62572-3.303-0.62572-3.4029 0-4.6226 0.23192-4.6226 0.8789 0 0.20488 1.7833 0.37251 3.9628 0.37251 3.2444 0 3.9628-0.11338 3.9628-0.62569zm5.6313 5.9672c-1.302-0.73832-1.4468-1.1744-1.4536-4.3792-8e-3 -4.0567 0.34939-4.2993 6.3435-4.2993 5.7431 0 6.1642 0.31144 6.1642 4.5582 0 2.6249-0.10068 2.9689-1.0991 3.7542-0.94207 0.74103-1.6722 0.86274-5.1099 0.85187-2.206-7e-3 -4.3862-0.22559-4.8451-0.48577zm8.8967-3.4105c0.0752-0.65865 0.0247-1.6441-0.11226-2.19-0.236-0.94038-0.42192-0.99244-3.5441-0.99244-4.369 0-4.6147 0.12082-4.6147 2.2694 0 0.96962 0.13166 1.8946 0.29263 2.0556 0.16095 0.16094 1.9911 0.23916 4.0671 0.17381l3.7744-0.11892zm5.2441 3.3199c-1.5597-0.68699-1.8353-1.3156-1.8353-4.186 0-1.598 0.23769-2.506 0.86455-3.303 0.85729-1.0899 0.91153-1.0991 6.4656-1.0991h5.6011v2.06l-10.22 0.23433-0.12614 2.19-0.12612 2.19h10.527l-0.13196 1.1471-0.13195 1.1471-4.7971 0.0946c-3.3284 0.0656-5.193-0.0797-6.0903-0.47505zm14.133 0.0924c-1.8836-0.92274-2.3593-6.0604-0.72793-7.863 0.66418-0.73393 1.3079-0.81735 6.3064-0.81735h5.5667v2.0857h-4.5544c-2.5049 0-4.8513 0.11392-5.2142 0.25319-1.6634 0.63831-0.26108 0.98167 4.4501 1.0897 4.7928 0.10985 5.1099 0.16888 5.1099 0.95138 0 0.78279-0.31721 0.84151-5.1403 0.95164-3.8144 0.0873-5.0969 0.24848-4.972 0.62572 0.11446 0.34556 1.7603 0.57512 5.1403 0.7169 4.9698 0.20846 4.972 0.20903 4.972 1.2514v1.0428l-5.0056 0.0825c-2.934 0.0484-5.3886-0.10499-5.9309-0.37068zm12.89-0.65046 0.13191-1.1471 5.3185-0.11663c4.3485-0.0954 5.3185-0.22859 5.3185-0.72998 0-0.50633-0.89453-0.61323-5.1308-0.61323-3.4344 0-5.2963-0.16551-5.6313-0.50058-0.27531-0.2753-0.50057-1.3011-0.50057-2.2796 0-1.3319 0.20278-1.8875 0.80686-2.2108 0.44376-0.2375 3.3663-0.43181 6.4946-0.43181 5.6598 0 5.6871 4e-3 5.5545 0.93855-0.12799 0.90165-0.33436 0.94677-5.2458 1.1471-2.8843 0.11757-5.1568 0.39039-5.2142 0.62572-0.0617 0.25276 1.9256 0.49932 5.0432 0.62569 5.8031 0.23526 6.4723 0.59208 6.2406 3.3275-0.18319 2.1627-1.225 2.499-7.7633 2.5063l-5.5548 7e-3zm15.091 0.52142c-0.6333-1.6503 0.0272-1.8771 5.4674-1.8771 4.3684 0 5.2273-0.10282 5.2273-0.6257 0-0.52122-0.83096-0.62572-4.9758-0.62572-5.701 0-6.2868-0.27351-6.2868-2.9351 0-2.3227 0.64589-2.5318 7.3988-2.3952 5.4242 0.10972 5.741 0.16214 5.741 0.95038 0 0.78078-0.34762 0.84763-5.4228 1.0428-3.1981 0.12298-5.4228 0.3797-5.4228 0.62572 0 0.24361 2.0998 0.50388 5.0481 0.62569 5.9211 0.24464 6.527 0.53928 6.3395 3.0827-0.17861 2.423-1.0574 2.7436-7.5422 2.7511-4.3583 4e-3 -5.3754-0.10796-5.5717-0.61954zm16.535 0.32977c-1.6826-0.61868-2.0857-1.4608-2.0857-4.3572 0-4.2407 0.4007-4.5238 6.401-4.5238 5.7744 0 6.1938 0.28149 6.4516 4.3296 0.15999 2.5123 0.11487 2.6571-1.1608 3.7306-1.2364 1.0404-1.5892 1.1146-5.1538 1.0839-2.1046-0.0181-4.1081-0.13653-4.4522-0.26299zm8.1342-4.5012v-2.0857l-3.1236-0.1246c-4.6227-0.18435-5.0106-0.018-5.0106 2.1487 0 0.98979 0.13164 1.9313 0.29262 2.0923 0.16096 0.16093 1.9911 0.23916 4.0671 0.17381l3.7745-0.11892zm4.2553 4.5334c-0.16089-0.16089-0.2925-2.2322-0.2925-4.6029v-4.3104h5.8252c6.7351 0 6.622-0.0676 6.6771 3.9975 0.0184 1.3575 0.0755 3.0313 0.12691 3.7196 0.0748 1.0037-0.0866 1.277-0.81563 1.3808-0.7709 0.10973-0.96293-0.14379-1.2637-1.6685l-0.35469-1.798-8.0601-0.23812-0.12893 1.784c-0.12312 1.7035-0.92939 2.5204-1.7136 1.7361zm9.7188-6.2019c0-0.50351-0.64509-0.62572-3.303-0.62572-3.4029 0-4.6226 0.23192-4.6226 0.87891 0 0.20487 1.7833 0.3725 3.9628 0.3725 3.2444 0 3.9628-0.11338 3.9628-0.62569zm10.304 6.2019c-0.51559-0.51559-0.33369-7.871 0.20805-8.4128 0.27531-0.27532 1.0534-0.50057 1.729-0.50057 0.99687 0 2.0427 0.80126 5.5479 4.2506 2.3757 2.3378 4.3195 4.4026 4.3195 4.5885 0 0.18585-0.62186 0.33791-1.3819 0.33791-0.99096 0-1.7211-0.35403-2.5809-1.2514-1.0598-1.1062-1.4771-1.2514-3.596-1.2514-2.303 0-2.4022 0.0449-2.5291 1.1435-0.1261 1.0932-1.0985 1.7137-1.7166 1.0956zm3.7865-4.8106c-0.089-0.26715-0.57399-0.75933-1.0776-1.0937-0.86461-0.57408-0.91571-0.54698-0.91571 0.48571 0 0.89797 0.1929 1.0937 1.0776 1.0937 0.63445 0 1.011-0.19975 0.9157-0.48572zm9.5475 4.7961c-0.15292-0.15292-0.2781-2.2178-0.2781-4.5885v-4.3104h2.5028v4.5885c0 4.5289-0.0122 4.5885-0.97331 4.5885-0.53534 0-1.0985-0.12515-1.2514-0.2781zm10.847-0.57451c-1.016-0.7992-1.1143-1.1313-1.1143-3.7662 0-4.3657 0.30012-4.5582 7.1044-4.5582 4.4674 0 5.479 0.11243 5.678 0.63101 0.13326 0.34708-3e-3 0.927-0.30375 1.2888-0.44035 0.53062-1.3565 0.64124-4.7395 0.57232-5.1063-0.10404-5.2364-0.0934-5.2364 0.42788 0 0.25479 1.9384 0.41712 4.981 0.41712 2.9002 0 5.0897 0.17581 5.2411 0.42088 0.14299 0.23148 0.14142 0.79461-3e-3 1.2514-0.2438 0.76816-0.63741 0.83053-5.2411 0.83053-6.664 0-6.5535 0.77248 0.13245 0.92571l5.1099 0.11717v2.0857l-5.2471 0.11622c-4.7984 0.1062-5.3424 0.0414-6.3613-0.76026zm13.068 0.53211c0-0.17626 0.75062-1.2289 1.6681-2.3391l1.6681-2.0186-1.2814-1.6179c-0.70478-0.88985-1.4554-1.7254-1.6681-1.8569-0.79114-0.48895-0.34719-1.024 0.84969-1.024 0.91612 0 1.6662 0.45918 2.8958 1.7728l1.6595 1.7728 1.8127-1.7728c1.3717-1.3415 2.1387-1.7728 3.1526-1.7728 0.73695 0 1.3399 0.11189 1.3399 0.24883 0 0.13685-0.75085 1.1019-1.6685 2.1444-0.9177 1.0426-1.6686 2.0454-1.6686 2.2286 0 0.1832 0.78344 1.2361 1.741 2.3398l1.741 2.0068-1.4095 0.13717c-1.2328 0.12001-1.6212-0.10715-3.0985-1.8098l-1.689-1.9469-1.794 1.9141c-1.3446 1.4346-2.1018 1.9141-3.0225 1.9141-0.67564 0-1.2284-0.14426-1.2284-0.32051zm18.771-2.9967v-3.3172l-2.6071-0.1242c-2.4986-0.11905-2.6126-0.17197-2.7391-1.2713l-0.13191-1.1471h6.4687c3.9008 0 6.572 0.16706 6.7288 0.42087 0.14299 0.23148 0.14142 0.79461-3e-3 1.2514-0.22419 0.70634-0.63368 0.83054-2.7383 0.83054h-2.4747v6.6742h-2.5028zm9.859 2.4526c-0.99302-0.78112-1.0991-1.1357-1.0991-3.6745 0-4.3046 0.12095-4.3889 6.648-4.638 3.0065-0.11473 5.6502-0.14598 5.8749-0.0695 0.22461 0.0764 0.40841 0.68653 0.40841 1.3557v1.2166h-5.0056c-3.059 0-5.0056 0.16222-5.0056 0.41714 0 0.25504 1.9554 0.41712 5.0321 0.41712h5.0321l-0.13069 1.3557-0.13069 1.3557-4.6393-0.15103c-3.1071-0.1012-4.734 1e-3 -4.926 0.31286-0.20433 0.33063 1.1583 0.46388 4.7436 0.46388h5.0303v2.5028h-5.3665c-4.7975 0-5.483-0.0916-6.4656-0.86455zm12.673-2.994c7e-3 -4.1378 0.11729-4.5121 1.5541-5.2687 1.284-0.67611 2.5976 0.0708 5.7263 3.2556 1.3694 1.394 2.6364 2.5345 2.8157 2.5345 0.17924 0 0.32591-1.2983 0.32591-2.8852 0-2.9654 0.27358-3.4356 1.7728-3.0467 0.6288 0.16306 0.72999 0.72284 0.72999 4.0388 0 3.1996-0.1288 3.9661-0.76284 4.5399-1.3668 1.2369-2.4443 0.81139-5.6457-2.2296-1.6907-1.606-3.2868-2.92-3.5469-2.92-0.30747 0-0.47296 1.0216-0.47296 2.92v2.9199h-2.5028zm14.593 2.6071v-1.2514h5.2142c3.198 0 5.2142-0.16128 5.2142-0.41713 0-0.25292-1.8139-0.41715-4.6075-0.41715-4.3357 0-4.6679-0.0603-5.6313-1.0239-1.1757-1.1757-1.3086-2.5554-0.37455-3.8889 0.622-0.888 0.91331-0.9271 6.9105-0.9271h6.2611l-0.13192 1.1471-0.13191 1.1471-5.3353 0.11676c-6.5392 0.14315-6.8471 0.92596-0.36419 0.92596 5.3969 0 6.3252 0.42858 6.3252 2.92 0 2.6075-0.8133 2.9199-7.6013 2.9199h-5.7471zm14.6-3.3371v-4.5885h2.5028v9.177h-2.5028zm4.8959 3.7574c-1.0478-0.82421-1.1416-1.1355-1.1416-3.7877 0-4.2843 0.38666-4.5582 6.4353-4.5582 4.6528 0 4.7875 0.0264 5.6314 1.0991 0.6626 0.84238 0.86455 1.7007 0.86455 3.6745 0 3.9714-0.26869 4.1682-5.9152 4.3326-4.329 0.12596-4.8301 0.0612-5.8744-0.76025zm9.2054-3.8617 0.12704-1.9814h-7.9713v4.2027l7.717-0.24001zm3.7142 4.4323c-0.60556-0.60554-0.32138-7.0257 0.35367-7.9894 1.1771-1.6806 2.5763-1.1853 6.2334 2.2068l3.3371 3.0952 0.12189-3.1145 0.1219-3.1145h2.4677v3.8982c0 3.2467-0.12758 4.0135-0.76284 4.5885-0.41956 0.37969-1.0801 0.69035-1.4679 0.69035-0.3878 0-2.2874-1.4078-4.2214-3.1285-1.934-1.7207-3.6116-3.1285-3.728-3.1285-0.11635 0-0.26679 1.3609-0.33421 3.0242-0.10864 2.6788-0.21982 3.0382-0.97399 3.1461-0.46829 0.0671-0.9845-0.0108-1.1471-0.17383zm14.455-0.36519c-0.634-1.6522 0.0252-1.8771 5.5022-1.8771 4.0239 0 5.2213-0.12271 5.089-0.52143-0.12244-0.36884-1.6202-0.556-5.1187-0.63961-2.7712-0.0662-5.1863-0.31796-5.493-0.57251-0.30107-0.24986-0.54739-1.2694-0.54739-2.2656 0-2.5356 0.53206-2.7214 7.3988-2.5825 5.4242 0.10972 5.741 0.16214 5.741 0.95038 0 0.77829-0.34761 0.84825-5.1806 1.0428-3.6192 0.14567-5.2326 0.36572-5.3532 0.72997-0.13137 0.3967 0.96106 0.52144 4.5663 0.52144 5.8283 0 6.7047 0.41101 6.511 3.0536-0.18001 2.456-1.0394 2.7727-7.5436 2.7802-4.3583 4e-3 -5.3754-0.10796-5.5717-0.61954z" fill="#f33" stroke-width="1.5766"/><g transform="matrix(.77353 0 0 .77353 -20.594 219.39)"><rect width="148" height="148" fill="#fff"/><g><path d="m115.6 132h-3.2c-0.221 0-0.4-0.179-0.4-0.4v-3.6h4v3.6c0 0.221-0.179 0.4-0.4 0.4zm-8 0h-3.2c-0.221 0-0.4-0.179-0.4-0.4v-7.6h3.6c0.221 0 0.4-0.179 0.4-0.4v-3.2c0-0.221 0.179-0.4 0.4-0.4h7.2c0.221 0 0.4 0.179 0.4 0.4v3.6h-3.6c-0.221 0-0.4 0.179-0.4 0.4v3.6h-3.6c-0.221 0-0.4 0.179-0.4 0.4v3.2c0 0.221-0.179 0.4-0.4 0.4zm-8 0h-7.2c-0.2209 0-0.4-0.179-0.4-0.4v-3.2c0-0.221 0.1791-0.4 0.4-0.4h7.2c0.2209 0 0.4 0.179 0.4 0.4v3.2c0 0.221-0.1791 0.4-0.4 0.4zm-16 0h-19.2c-0.2209 0-0.4-0.179-0.4-0.4v-3.2c0-0.221-0.1791-0.4-0.4-0.4h-3.2c-0.2209 0-0.4-0.179-0.4-0.4v-3.2c0-0.221-0.1791-0.4-0.4-0.4h-7.2c-0.2209 0-0.4-0.179-0.4-0.4v-3.6h3.6c0.2209 0 0.4-0.179 0.4-0.4v-3.6h3.6c0.2209 0 0.4 0.179 0.4 0.4v3.2c0 0.221 0.1791 0.4 0.4 0.4h3.2c0.2209 0 0.4 0.179 0.4 0.4v3.2c0 0.221 0.1791 0.4 0.4 0.4h3.2c0.2209 0 0.4 0.179 0.4 0.4v3.2c0 0.221 0.1791 0.4 0.4 0.4h11.2c0.2209 0 0.4-0.179 0.4-0.4v-3.2c0-0.221-0.1791-0.4-0.4-0.4h-7.2c-0.2209 0-0.4-0.179-0.4-0.4v-3.2c0-0.221 0.1791-0.4 0.4-0.4h11.6v11.6c0 0.221-0.1791 0.4-0.4 0.4zm-28 0h-7.2c-0.2209 0-0.4-0.179-0.4-0.4v-3.2c0-0.221 0.1791-0.4 0.4-0.4h7.2c0.2209 0 0.4 0.179 0.4 0.4v3.2c0 0.221-0.1791 0.4-0.4 0.4zm-12 0h-27.2c-0.2209 0-0.4-0.179-0.4-0.4v-27.2c0-0.221 0.1791-0.4 0.4-0.4h27.2c0.2209 0 0.4 0.179 0.4 0.4v27.2c0 0.221-0.1791 0.4-0.4 0.4zm88-4h-3.2c-0.221 0-0.4-0.179-0.4-0.4v-3.2c0-0.221-0.179-0.4-0.4-0.4h-3.2c-0.221 0-0.4 0.179-0.4 0.4v3.2c0 0.221-0.179 0.4-0.4 0.4h-7.6v-4h3.6c0.221 0 0.4-0.179 0.4-0.4v-3.2c0-0.221 0.179-0.4 0.4-0.4h3.2c0.221 0 0.4-0.179 0.4-0.4v-3.2c0-0.221 0.179-0.4 0.4-0.4h3.2c0.221 0 0.4 0.179 0.4 0.4v3.2c0 0.221 0.179 0.4 0.4 0.4h3.2c0.221 0 0.4 0.179 0.4 0.4v7.2c0 0.221-0.179 0.4-0.4 0.4zm-91.6-0.4v-19.2c0-0.221-0.1791-0.4-0.4-0.4h-19.2c-0.2209 0-0.4 0.179-0.4 0.4v19.2c0 0.221 0.1791 0.4 0.4 0.4h19.2c0.2209 0 0.4-0.179 0.4-0.4zm63.6-3.6h-7.2c-0.2209 0-0.4-0.179-0.4-0.4v-3.2c0-0.221 0.1791-0.4 0.4-0.4h3.2c0.2209 0 0.4-0.179 0.4-0.4v-3.2c0-0.221-0.1791-0.4-0.4-0.4h-7.6v-7.6c0-0.221-0.1791-0.4-0.4-0.4h-3.2c-0.2209 0-0.4 0.179-0.4 0.4v3.2c0 0.221-0.1791 0.4-0.4 0.4h-3.6v-7.6c0-0.221 0.1791-0.4 0.4-0.4h3.2c0.2209 0 0.4-0.179 0.4-0.4v-3.6h3.6c0.2209 0 0.4 0.179 0.4 0.4v3.2c0 0.221 0.1791 0.4 0.4 0.4h3.2c0.2209 0 0.4-0.179 0.4-0.4v-7.6h7.6c0.221 0 0.4-0.1791 0.4-0.4v-3.2c0-0.2209 0.179-0.4 0.4-0.4h3.2c0.221 0 0.4 0.1791 0.4 0.4v3.2c0 0.2209 0.179 0.4 0.4 0.4h7.2c0.221 0 0.4-0.1791 0.4-0.4v-3.2c0-0.2209-0.179-0.4-0.4-0.4h-3.2c-0.221 0-0.4-0.1791-0.4-0.4v-7.2c0-0.2209 0.179-0.4 0.4-0.4h3.6v3.6c0 0.2209 0.179 0.4 0.4 0.4h3.6v3.6c0 0.2209 0.179 0.4 0.4 0.4h3.2c0.221 0 0.4 0.1791 0.4 0.4v3.2c0 0.2209 0.179 0.4 0.4 0.4h3.2c0.221 0 0.4 0.1791 0.4 0.4v3.2c0 0.2209-0.179 0.4-0.4 0.4h-7.2c-0.221 0-0.4 0.179-0.4 0.4v7.2c0 0.221-0.179 0.4-0.4 0.4h-3.2c-0.221 0-0.4 0.179-0.4 0.4v3.2c0 0.221 0.179 0.4 0.4 0.4h3.2c0.221 0 0.4 0.179 0.4 0.4v3.2c0 0.221-0.179 0.4-0.4 0.4h-15.2c-0.221 0-0.4 0.179-0.4 0.4v7.6zm-12 0h-3.2c-0.2209 0-0.4-0.179-0.4-0.4v-3.2c0-0.221-0.1791-0.4-0.4-0.4h-3.6v-4h8v7.6c0 0.221-0.1791 0.4-0.4 0.4zm-56 0h-11.2c-0.2209 0-0.4-0.179-0.4-0.4v-11.2c0-0.221 0.1791-0.4 0.4-0.4h11.2c0.2209 0 0.4 0.179 0.4 0.4v11.2c0 0.221-0.1791 0.4-0.4 0.4zm16-4h-3.2c-0.2209 0-0.4-0.179-0.4-0.4v-19.2c0-0.221-0.1791-0.4-0.4-0.4h-7.2c-0.2209 0-0.4-0.1791-0.4-0.4v-3.6h11.6c0.2209 0 0.4-0.1791 0.4-0.4v-7.2c0-0.2209 0.1791-0.4 0.4-0.4h3.2c0.2209 0 0.4 0.1791 0.4 0.4v3.2c0 0.2209 0.1791 0.4 0.4 0.4h3.2c0.2209 0 0.4-0.1791 0.4-0.4v-7.2c0-0.2209-0.1791-0.4-0.4-0.4h-3.2c-0.2209 0-0.4-0.1791-0.4-0.4v-3.2c0-0.2209-0.1791-0.4-0.4-0.4h-3.2c-0.2209 0-0.4-0.1791-0.4-0.4v-3.2c0-0.2209 0.1791-0.4 0.4-0.4h7.2c0.2209 0 0.4-0.1791 0.4-0.4v-3.6h7.6c0.2209 0 0.4-0.1791 0.4-0.4v-11.2c0-0.2209-0.1791-0.4-0.4-0.4h-3.6v-4h3.6c0.2209 0 0.4-0.1791 0.4-0.4v-3.2c0-0.2209-0.1791-0.4-0.4-0.4h-3.6v-4h3.6c0.2209 0 0.4-0.1791 0.4-0.4v-3.6h4v23.6c0 0.2209 0.1791 0.4 0.4 0.4h3.6v3.6c0 0.2209-0.1791 0.4-0.4 0.4h-3.2c-0.2209 0-0.4 0.1791-0.4 0.4v3.2c0 0.2209-0.1791 0.4-0.4 0.4h-7.2c-0.2209 0-0.4 0.1791-0.4 0.4v15.2c0 0.2209 0.1791 0.4 0.4 0.4h3.2c0.2209 0 0.4 0.1791 0.4 0.4v3.2c0 0.2209 0.1791 0.4 0.4 0.4h3.2c0.2209 0 0.4-0.1791 0.4-0.4v-3.2c0-0.2209 0.1791-0.4 0.4-0.4h3.6v3.6c0 0.2209 0.1791 0.4 0.4 0.4h11.6v4h-11.6c-0.2209 0-0.4 0.179-0.4 0.4v7.2c0 0.221 0.1791 0.4 0.4 0.4h3.2c0.2209 0 0.4 0.179 0.4 0.4v3.6h-3.6c-0.2209 0-0.4 0.179-0.4 0.4v3.2c0 0.221-0.1791 0.4-0.4 0.4h-7.2c-0.2209 0-0.4-0.179-0.4-0.4v-3.6h3.6c0.2209 0 0.4-0.179 0.4-0.4v-11.2c0-0.221-0.1791-0.4-0.4-0.4h-7.6v-3.6c0-0.2209-0.1791-0.4-0.4-0.4h-3.2c-0.2209 0-0.4 0.1791-0.4 0.4v3.2c0 0.2209 0.1791 0.4 0.4 0.4h3.6v4h-3.6c-0.2209 0-0.4 0.179-0.4 0.4v3.2c0 0.221 0.1791 0.4 0.4 0.4h3.2c0.2209 0 0.4-0.179 0.4-0.4v-3.6h3.6c0.2209 0 0.4 0.179 0.4 0.4v7.6h-11.6c-0.2209 0-0.4 0.179-0.4 0.4v3.6h-3.6c-0.2209 0-0.4 0.179-0.4 0.4v3.6zm32-4h-3.2c-0.2209 0-0.4-0.179-0.4-0.4v-3.6h4v4zm28.4-4.4v-11.2c0-0.221-0.179-0.4-0.4-0.4h-11.2c-0.221 0-0.4 0.179-0.4 0.4v11.2c0 0.221 0.179 0.4 0.4 0.4h11.2c0.221 0 0.4-0.179 0.4-0.4zm-4.4-3.6h-3.2c-0.221 0-0.4-0.179-0.4-0.4v-3.2c0-0.221 0.179-0.4 0.4-0.4h3.2c0.221 0 0.4 0.179 0.4 0.4v3.2c0 0.221-0.179 0.4-0.4 0.4zm-51.6-4.4v-3.2c0-0.221-0.1791-0.4-0.4-0.4h-3.2c-0.2209 0-0.4 0.179-0.4 0.4v3.2c0 0.221 0.1791 0.4 0.4 0.4h3.2c0.2209 0 0.4-0.179 0.4-0.4zm-20.4-3.6h-3.2c-0.2209 0-0.4-0.1791-0.4-0.4v-3.6h4v3.6c0 0.2209-0.1791 0.4-0.4 0.4zm-12 0h-7.2c-0.2209 0-0.4-0.1791-0.4-0.4v-15.2c0-0.2209 0.1791-0.4 0.4-0.4h3.2c0.2209 0 0.4-0.1791 0.4-0.4v-7.2c0-0.2209 0.1791-0.4 0.4-0.4h3.6v3.6c0 0.2209 0.1791 0.4 0.4 0.4h3.2c0.2209 0 0.4-0.1791 0.4-0.4v-3.6h7.6c0.2209 0 0.4-0.1791 0.4-0.4v-7.2c0-0.2209 0.1791-0.4 0.4-0.4h3.6v3.6c0 0.2209 0.1791 0.4 0.4 0.4h3.2c0.2209 0 0.4 0.1791 0.4 0.4v3.2c0 0.2209-0.1791 0.4-0.4 0.4h-3.2c-0.2209 0-0.4 0.1791-0.4 0.4v3.6h-3.6c-0.2209 0-0.4 0.1791-0.4 0.4v3.2c0 0.2209-0.1791 0.4-0.4 0.4h-3.2c-0.2209 0-0.4 0.1791-0.4 0.4v3.2c0 0.2209 0.1791 0.4 0.4 0.4h3.2c0.2209 0 0.4 0.1791 0.4 0.4v3.6h-3.6c-0.2209 0-0.4 0.1791-0.4 0.4v3.6h-3.6c-0.2209 0-0.4-0.1791-0.4-0.4v-7.2c0-0.2209-0.1791-0.4-0.4-0.4h-3.2c-0.2209 0-0.4 0.1791-0.4 0.4v11.2c0 0.2209-0.1791 0.4-0.4 0.4zm72-4h-7.6v-11.6c0-0.2209 0.1791-0.4 0.4-0.4h3.2c0.2209 0 0.4-0.1791 0.4-0.4v-11.6h11.6c0.221 0 0.4-0.1791 0.4-0.4v-7.2c0-0.2209-0.179-0.4-0.4-0.4h-3.2c-0.221 0-0.4-0.1791-0.4-0.4v-3.6h7.6c0.221 0 0.4-0.1791 0.4-0.4v-7.2c0-0.2209 0.179-0.4 0.4-0.4h3.2c0.221 0 0.4-0.1791 0.4-0.4v-3.2c0-0.2209 0.179-0.4 0.4-0.4h3.2c0.221 0 0.4 0.1791 0.4 0.4v11.6h-3.6c-0.221 0-0.4 0.1791-0.4 0.4v7.2c0 0.2209 0.179 0.4 0.4 0.4h15.2c0.221 0 0.4-0.1791 0.4-0.4v-7.2c0-0.2209 0.179-0.4 0.4-0.4h3.2c0.221 0 0.4 0.1791 0.4 0.4v19.2c0 0.2209-0.179 0.4-0.4 0.4h-3.2c-0.221 0-0.4-0.1791-0.4-0.4v-7.2c0-0.2209-0.179-0.4-0.4-0.4h-3.2c-0.221 0-0.4 0.1791-0.4 0.4v7.2c0 0.2209-0.179 0.4-0.4 0.4h-3.6v-7.6c0-0.2209-0.179-0.4-0.4-0.4h-3.2c-0.221 0-0.4 0.1791-0.4 0.4v7.6h-7.6c-0.221 0-0.4-0.1791-0.4-0.4v-3.6h3.6c0.221 0 0.4-0.1791 0.4-0.4v-3.2c0-0.2209-0.179-0.4-0.4-0.4h-3.2c-0.221 0-0.4 0.1791-0.4 0.4v3.6h-11.6c-0.2209 0-0.4 0.1791-0.4 0.4v3.2c0 0.2209 0.1791 0.4 0.4 0.4h7.2c0.221 0 0.4 0.1791 0.4 0.4v3.2c0 0.2209-0.179 0.4-0.4 0.4h-7.2c-0.2209 0-0.4 0.1791-0.4 0.4v11.6zm-56 0h-3.6v-4h4v4zm92-4h-3.2c-0.221 0-0.4-0.1791-0.4-0.4v-3.6h3.6c0.221 0 0.4 0.1791 0.4 0.4v3.2c0 0.2209-0.179 0.4-0.4 0.4zm-52 0h-3.6v-4h4v3.6c0 0.2209-0.1791 0.4-0.4 0.4zm-36 0h-3.6v-3.6c0-0.2209 0.1791-0.4 0.4-0.4h3.2c0.2209 0 0.4 0.1791 0.4 0.4v3.2c0 0.2209-0.1791 0.4-0.4 0.4zm84-4h-7.6v-4h7.6c0.221 0 0.4 0.1791 0.4 0.4v3.6zm-44 0h-3.6v-8h3.6c0.2209 0 0.4 0.1791 0.4 0.4v7.2c0 0.2209-0.1791 0.4-0.4 0.4zm-8 0h-7.2c-0.2209 0-0.4-0.1791-0.4-0.4v-3.2c0-0.2209 0.1791-0.4 0.4-0.4h3.2c0.2209 0 0.4-0.1791 0.4-0.4v-3.2c0-0.2209 0.1791-0.4 0.4-0.4h3.6v8zm44-4h-3.6v-4h4v4zm-72 0h-7.2c-0.2209 0-0.4-0.1791-0.4-0.4v-3.6h7.6c0.2209 0 0.4 0.1791 0.4 0.4v3.2c0 0.2209-0.1791 0.4-0.4 0.4zm32-4h-3.6v-3.6c0-0.2209 0.1791-0.4 0.4-0.4h3.6v4zm8-4h-7.6v-7.6c0-0.2209-0.1791-0.4-0.4-0.4h-3.6v-3.6c0-0.2209 0.1791-0.4 0.4-0.4h3.2c0.2209 0 0.4-0.1791 0.4-0.4v-3.2c0-0.2209-0.1791-0.4-0.4-0.4h-3.2c-0.2209 0-0.4-0.1791-0.4-0.4v-3.2c0-0.2209 0.1791-0.4 0.4-0.4h3.2c0.2209 0 0.4-0.1791 0.4-0.4v-3.2c0-0.2209 0.1791-0.4 0.4-0.4h3.6v7.6c0 0.2209 0.1791 0.4 0.4 0.4h3.6v4h-3.6c-0.2209 0-0.4 0.1791-0.4 0.4v3.2c0 0.2209 0.1791 0.4 0.4 0.4h3.2c0.2209 0 0.4-0.1791 0.4-0.4v-3.6h3.6c0.2209 0 0.4-0.1791 0.4-0.4v-3.6h4v7.6c0 0.2209-0.1791 0.4-0.4 0.4h-3.2c-0.2209 0-0.4 0.1791-0.4 0.4v3.6h-3.6c-0.2209 0-0.4 0.1791-0.4 0.4v3.2c0 0.2209-0.1791 0.4-0.4 0.4zm-60 0h-3.6v-3.6c0-0.2209-0.1791-0.4-0.4-0.4h-7.2c-0.2209 0-0.4-0.1791-0.4-0.4v-3.2c0-0.2209 0.1791-0.4 0.4-0.4h3.2c0.2209 0 0.4-0.1791 0.4-0.4v-3.6h3.6c0.2209 0 0.4 0.1791 0.4 0.4v3.2c0 0.2209 0.1791 0.4 0.4 0.4h3.6v8zm32-4h-11.2c-0.2209 0-0.4-0.1791-0.4-0.4v-3.6h3.6c0.2209 0 0.4-0.1791 0.4-0.4v-7.2c0-0.2209-0.1791-0.4-0.4-0.4h-3.2c-0.2209 0-0.4-0.1791-0.4-0.4v-3.6h12v3.6c0 0.2209 0.1791 0.4 0.4 0.4h3.6v7.6c0 0.2209-0.1791 0.4-0.4 0.4h-3.6v-3.6c0-0.2209-0.1791-0.4-0.4-0.4h-3.2c-0.2209 0-0.4 0.1791-0.4 0.4v3.2c0 0.2209 0.1791 0.4 0.4 0.4h3.6v4zm-12-4h-7.6v-3.6c0-0.2209 0.1791-0.4 0.4-0.4h7.2c0.2209 0 0.4 0.1791 0.4 0.4v3.6zm-16 0h-3.6v-3.6c0-0.2209 0.1791-0.4 0.4-0.4h3.6v3.6c0 0.2209-0.1791 0.4-0.4 0.4zm88-4h-3.2c-0.221 0-0.4-0.1791-0.4-0.4v-3.6h4v3.6c0 0.2209-0.179 0.4-0.4 0.4zm-84 0h-3.6v-7.6c0-0.2209 0.1791-0.4 0.4-0.4h3.2c0.2209 0 0.4-0.1791 0.4-0.4v-3.2c0-0.2209-0.1791-0.4-0.4-0.4h-7.6v-3.6c0-0.2209 0.1791-0.4 0.4-0.4h27.2c0.2209 0 0.4-0.1791 0.4-0.4v-7.2c0-0.2209-0.1791-0.4-0.4-0.4h-3.6v-4h3.6c0.2209 0 0.4-0.1791 0.4-0.4v-3.2c0-0.2209 0.1791-0.4 0.4-0.4h3.2c0.2209 0 0.4 0.1791 0.4 0.4v11.2c0 0.2209 0.1791 0.4 0.4 0.4h3.6v4h-3.6c-0.2209 0-0.4 0.1791-0.4 0.4v3.6h-11.6c-0.2209 0-0.4 0.1791-0.4 0.4v3.6h-4v-3.6c0-0.2209-0.1791-0.4-0.4-0.4h-3.2c-0.2209 0-0.4 0.1791-0.4 0.4v3.2c0 0.2209 0.1791 0.4 0.4 0.4h3.6v3.6c0 0.2209-0.1791 0.4-0.4 0.4h-7.2c-0.2209 0-0.4 0.1791-0.4 0.4v3.2c0 0.2209-0.1791 0.4-0.4 0.4zm-16 0h-3.2c-0.2209 0-0.4-0.1791-0.4-0.4v-3.2c0-0.2209 0.1791-0.4 0.4-0.4h3.6v4zm104-4h-3.6v-11.6c0-0.2209 0.179-0.4 0.4-0.4h11.2c0.221 0 0.4 0.1791 0.4 0.4v3.2c0 0.2209-0.179 0.4-0.4 0.4h-3.2c-0.221 0-0.4 0.1791-0.4 0.4v3.2c0 0.2209-0.179 0.4-0.4 0.4h-3.2c-0.221 0-0.4 0.1791-0.4 0.4v3.2c0 0.2209-0.179 0.4-0.4 0.4zm-24 0h-3.6v-4h4v4zm-8 0h-3.6v-8h3.6c0.2209 0 0.4-0.1791 0.4-0.4v-7.6h3.6c0.2209 0 0.4-0.1791 0.4-0.4v-7.6h3.6c0.2209 0 0.4 0.1791 0.4 0.4v11.6h-3.6c-0.2209 0-0.4 0.1791-0.4 0.4v7.6h-3.6c-0.2209 0-0.4 0.1791-0.4 0.4v3.6zm-68 0h-3.6v-8h8v3.6c0 0.2209-0.1791 0.4-0.4 0.4h-3.2c-0.2209 0-0.4 0.1791-0.4 0.4v3.2c0 0.2209-0.1791 0.4-0.4 0.4zm80-4h-3.6v-8h3.6c0.221 0 0.4 0.1791 0.4 0.4v7.2c0 0.2209-0.179 0.4-0.4 0.4zm-40 0h-3.6v-4h4v4zm24-4h-3.6v-4h3.6c0.2209 0 0.4 0.1791 0.4 0.4v3.6zm-68 0h-3.2c-0.2209 0-0.4-0.1791-0.4-0.4v-3.2c0-0.2209 0.1791-0.4 0.4-0.4h3.2c0.2209 0 0.4 0.1791 0.4 0.4v3.6zm64-4h-7.2c-0.2209 0-0.4-0.1791-0.4-0.4v-3.6h3.6c0.2209 0 0.4-0.1791 0.4-0.4v-3.2c0-0.2209-0.1791-0.4-0.4-0.4h-3.6v-3.6c0-0.2209-0.1791-0.4-0.4-0.4h-3.2c-0.2209 0-0.4-0.1791-0.4-0.4v-3.2c0-0.2209 0.1791-0.4 0.4-0.4h7.2c0.2209 0 0.4-0.1791 0.4-0.4v-3.2c0-0.2209-0.1791-0.4-0.4-0.4h-3.2c-0.2209 0-0.4-0.1791-0.4-0.4v-3.2c0-0.2209 0.1791-0.4 0.4-0.4h3.2c0.2209 0 0.4-0.1791 0.4-0.4v-3.2c0-0.2209-0.1791-0.4-0.4-0.4h-3.2c-0.2209 0-0.4-0.1791-0.4-0.4v-3.2c0-0.2209 0.1791-0.4 0.4-0.4h15.2c0.2209 0 0.4 0.1791 0.4 0.4v3.6h-7.6c-0.2209 0-0.4 0.1791-0.4 0.4v7.2c0 0.2209 0.1791 0.4 0.4 0.4h3.6v3.6c0 0.2209 0.1791 0.4 0.4 0.4h3.2c0.2209 0 0.4-0.1791 0.4-0.4v-3.2c0-0.2209-0.1791-0.4-0.4-0.4h-3.6v-3.6c0-0.2209 0.1791-0.4 0.4-0.4h3.2c0.2209 0 0.4-0.1791 0.4-0.4v-3.6h3.6c0.2209 0 0.4 0.1791 0.4 0.4v15.6h-3.6c-0.2209 0-0.4 0.1791-0.4 0.4v7.6h-3.6c-0.2209 0-0.4-0.1791-0.4-0.4v-3.2c0-0.2209-0.1791-0.4-0.4-0.4h-3.2c-0.2209 0-0.4 0.1791-0.4 0.4v7.6zm48-4h-27.2c-0.221 0-0.4-0.1791-0.4-0.4v-27.2c0-0.2209 0.179-0.4 0.4-0.4h27.2c0.221 0 0.4 0.1791 0.4 0.4v27.2c0 0.2209-0.179 0.4-0.4 0.4zm-56 0h-3.6v-3.6c0-0.2209 0.1791-0.4 0.4-0.4h3.6v4zm-8 0h-3.6v-3.6c0-0.2209 0.1791-0.4 0.4-0.4h3.2c0.2209 0 0.4 0.1791 0.4 0.4v3.6zm-16 0h-3.2c-0.2209 0-0.4-0.1791-0.4-0.4v-3.2c0-0.2209 0.1791-0.4 0.4-0.4h3.6v3.6c0 0.2209-0.1791 0.4-0.4 0.4zm-8 0h-27.2c-0.2209 0-0.4-0.1791-0.4-0.4v-27.2c0-0.2209 0.1791-0.4 0.4-0.4h27.2c0.2209 0 0.4 0.1791 0.4 0.4v27.2c0 0.2209-0.1791 0.4-0.4 0.4zm84.4-4.4v-19.2c0-0.2209-0.179-0.4-0.4-0.4h-19.2c-0.221 0-0.4 0.1791-0.4 0.4v19.2c0 0.2209 0.179 0.4 0.4 0.4h19.2c0.221 0 0.4-0.1791 0.4-0.4zm-88 0v-19.2c0-0.2209-0.1791-0.4-0.4-0.4h-19.2c-0.2209 0-0.4 0.1791-0.4 0.4v19.2c0 0.2209 0.1791 0.4 0.4 0.4h19.2c0.2209 0 0.4-0.1791 0.4-0.4zm83.6-3.6h-11.2c-0.221 0-0.4-0.1791-0.4-0.4v-11.2c0-0.2209 0.179-0.4 0.4-0.4h11.2c0.221 0 0.4 0.1791 0.4 0.4v11.2c0 0.2209-0.179 0.4-0.4 0.4zm-72 0h-3.2c-0.2209 0-0.4-0.1791-0.4-0.4v-3.2c0-0.2209 0.1791-0.4 0.4-0.4h3.2c0.2209 0 0.4 0.1791 0.4 0.4v3.6zm-16 0h-11.2c-0.2209 0-0.4-0.1791-0.4-0.4v-11.2c0-0.2209 0.1791-0.4 0.4-0.4h11.2c0.2209 0 0.4 0.1791 0.4 0.4v11.2c0 0.2209-0.1791 0.4-0.4 0.4zm32-4h-3.2c-0.2209 0-0.4-0.1791-0.4-0.4v-3.2c0-0.2209-0.1791-0.4-0.4-0.4h-15.2c-0.2209 0-0.4-0.1791-0.4-0.4v-11.2c0-0.2209 0.1791-0.4 0.4-0.4h3.2c0.2209 0 0.4 0.1791 0.4 0.4v7.2c0 0.2209 0.1791 0.4 0.4 0.4h3.2c0.2209 0 0.4-0.1791 0.4-0.4v-7.2c0-0.2209 0.1791-0.4 0.4-0.4h7.2c0.2209 0 0.4 0.1791 0.4 0.4v7.2c0 0.2209 0.1791 0.4 0.4 0.4h3.2c0.2209 0 0.4 0.1791 0.4 0.4v7.2c0 0.2209-0.1791 0.4-0.4 0.4z"/></g></g><path d="m260.87 326.63v-10.872h2.1743v4.3487h4.3487v-4.3487h2.1743v10.872h-2.1743v-4.3487h-4.3487v4.3487zm15.22 0v-8.6973h-2.1743v-2.1743h6.523v2.1743h-2.1743v8.6973zm10.872 0v-8.6973h-2.1743v-2.1743h6.523v2.1743h-2.1743v8.6973zm8.6973 0v-10.872h6.523v2.1743h-4.3487v2.1743h4.3487v2.1743h-4.3487v4.3487zm6.523-8.6973h2.1743v2.1743h-2.1743zm6.523 8.6973v-2.1743h6.523v2.1743zm2.1743-8.6973v-2.1743h6.523v2.1743zm0 4.3487h4.3487v-2.1743h-4.3487zm4.3487 0h2.1743v2.1743h-2.1743zm-6.523-4.3487h2.1743v2.1743h-2.1743zm10.872 4.3487h2.1743v2.1743h-2.1743zm0-4.3487h2.1743v2.1743h-2.1743zm13.046 2.1743h-2.1743v-4.3487h2.1743zm-2.1743 2.1743h-2.1743v-2.1743h2.1743zm-2.1743 4.3487h-2.1743v-4.3487h2.1743zm15.22-6.523h-2.1743v-4.3487h2.1743zm-2.1743 2.1743h-2.1743v-2.1743h2.1743zm-2.1743 4.3487h-2.1743v-4.3487h2.1743zm17.395-8.6973h-6.523v-2.1743h6.523zm-6.523 6.523h-2.1743v-6.523h2.1743zm4.3487 2.1743h-4.3487v-2.1743h4.3487zm-4.3487 0zm4.3487-4.3487h-2.1743v-2.1743h4.3487v4.3487h-2.1743zm6.523 4.3487v-10.872h2.1743v10.872zm8.6973 0v-8.6973h-2.1743v-2.1743h6.523v2.1743h-2.1743v8.6973zm8.6973 0v-10.872h2.1743v4.3487h4.3487v-4.3487h2.1743v10.872h-2.1743v-4.3487h-4.3487v4.3487zm19.569-10.872h2.1743v8.6973h-2.1743zm0 10.872h-4.3487v-2.1743h4.3487zm-6.523-10.872h2.1743v8.6973h-2.1743zm21.743 2.1743v2.1743h-2.1743v-2.1743zm0 4.3487v2.1743h-2.1743v-2.1743zm-2.1743-4.3487h-4.3487v2.1743h4.3487v2.1743h-4.3487v2.1743h4.3487v2.1743h-6.523v-10.872h6.523zm4.3486 6.523h2.1743v2.1743h-2.1743zm15.22-4.3487h-2.1743v-2.1743h2.1743zm-2.1743-2.1743h-4.3487v-2.1743h4.3487zm2.1743 6.523h-2.1743v-2.1743h2.1743zm-6.523 0h-2.1743v-6.523h2.1743zm4.3487 2.1743h-4.3487v-2.1743h4.3487zm-4.3487 0zm4.3487-4.3487zm13.046-4.3487h-4.3487v-2.1743h4.3487zm-4.3487 6.523h-2.1743v-6.523h2.1743zm4.3487 2.1743h-4.3487v-2.1743h4.3487zm-4.3487 0zm6.523-2.1743h-2.1743v-6.523h2.1743zm4.3487 2.1743v-10.872h2.1743v10.872zm8.6973 0v-10.872h2.1743v10.872zm-2.1743-8.6973h2.1743v2.1743h-2.1743zm-2.1743 2.1743h2.1743v2.1743h-2.1743zm-2.1743-2.1743h2.1743v2.1743h-2.1743zm19.569 2.1743h-2.1743v-4.3487h2.1743zm-2.1743 2.1743h-2.1743v-2.1743h2.1743zm-2.1743 4.3487h-2.1743v-4.3487h2.1743zm8.6973 0v-10.872h6.523v2.1743h-4.3487v2.1743h4.3487v2.1743h-4.3487v4.3487zm6.523-8.6973h2.1743v2.1743h-2.1743zm-2.1743 4.3487h2.1743v2.1743h-2.1743zm2.1743 2.1743h2.1743v2.1743h-2.1743zm6.5752 2.1743v-8.6973h2.1743v2.1743h4.3487v-2.1743h2.1743v8.6973h-2.1743v-4.3487h-4.3487v4.3487zm2.1743-10.872v2.1743h4.3487v-2.1743zm17.342 2.1743h2.1743v2.1743h-2.1743zm-4.3487 0h2.1743v2.1743h-2.1743zm2.1743 8.6973v-6.523h2.1743v6.523zm-4.3487-10.872h2.1743v2.1743h-2.1743zm8.6973 0h2.1743v2.1743h-2.1743zm6.523 10.872v-10.872h6.523v2.1743h-4.3487v6.523h4.3487v2.1743zm8.6973-8.6973v6.523h-2.1743v-6.523zm4.4008 8.6973v-8.6973h2.1743v2.1743h4.3487v-2.1743h2.1743v8.6973h-2.1743v-4.3487h-4.3487v4.3487zm2.1743-10.872v2.1743h4.3487v-2.1743zm19.517 4.3487h-2.1743v-2.1743h2.1743zm-2.1743-2.1743h-4.3487v-2.1743h4.3487zm2.1743 6.523h-2.1743v-2.1743h2.1743zm-6.523 0h-2.1743v-6.523h2.1743zm4.3487 2.1743h-4.3487v-2.1743h4.3487zm-4.3487 0zm4.3487-4.3487zm13.046-2.1743h-2.1743v-4.3487h2.1743zm-2.1743 2.1743h-2.1743v-2.1743h2.1743zm-2.1743 4.3487h-2.1743v-4.3487h2.1743zm15.22-10.872h2.1743v8.6973h-2.1743zm0 10.872h-4.3487v-2.1743h4.3487zm-6.523-4.3487h2.1743v2.1743h-2.1743zm13.098 4.3487v-8.6973h2.1743v2.1743h4.3487v-2.1743h2.1743v8.6973h-2.1743v-4.3487h-4.3487v4.3487zm2.1743-10.872v2.1743h4.3487v-2.1743zm10.819 10.872v-10.872h2.1743v10.872zm6.523 0v-10.872h6.523v2.1743h-4.3487v2.1743h4.3487v2.1743h-4.3487v4.3487zm6.523-8.6973h2.1743v2.1743h-2.1743z" fill="#1a1a1a" stroke-linecap="round" stroke-width="7.7757" aria-label="https://github.com/raydac/jaip"/></g></svg>
