<?xml version="1.0" encoding="UTF-8" standalone="no"?>
<!-- Created with Inkscape (http://www.inkscape.org/) -->

<svg
   width="211.55347mm"
   height="243.03114mm"
   viewBox="0 0 211.55347 243.03114"
   version="1.1"
   id="svg1"
   xml:space="preserve"
   inkscape:version="1.4.2 (ebf0e94, 2025-05-08)"
   sodipodi:docname="project_mascot.svg"
   xmlns:inkscape="http://www.inkscape.org/namespaces/inkscape"
   xmlns:sodipodi="http://sodipodi.sourceforge.net/DTD/sodipodi-0.dtd"
   xmlns="http://www.w3.org/2000/svg"
   xmlns:svg="http://www.w3.org/2000/svg"><sodipodi:namedview
     id="namedview1"
     pagecolor="#ffffff"
     bordercolor="#000000"
     borderopacity="0.25"
     inkscape:showpageshadow="2"
     inkscape:pageopacity="0.0"
     inkscape:pagecheckerboard="0"
     inkscape:deskcolor="#d1d1d1"
     inkscape:document-units="mm"
     inkscape:zoom="0.36124088"
     inkscape:cx="-455.37482"
     inkscape:cy="441.53364"
     inkscape:window-width="1920"
     inkscape:window-height="1016"
     inkscape:window-x="1318"
     inkscape:window-y="27"
     inkscape:window-maximized="1"
     inkscape:current-layer="layer1" /><defs
     id="defs1" /><g
     inkscape:label="Layer 1"
     inkscape:groupmode="layer"
     id="layer1"
     transform="translate(2.2417522,-12.454087)"><g
       id="g44"><path
         style="fill:#000000"
         d="m 83.141234,255.24124 c -27.60924,-0.66448 -49.99838,-2.14015 -53.22337,-3.50794 l -0.88392,-0.37489 0.74279,-0.29635 c 2.04671,-0.81659 15.71828,-1.87076 32.28387,-2.48932 l 1.54123,-0.0575 -2.344,-1.89517 c -10.38381,-8.39553 -17.45284,-21.78214 -19.55241,-37.02633 -0.57922,-4.20556 -0.65834,-13.74414 -0.1479,-17.83162 1.06186,-8.50305 3.10011,-15.59999 6.42846,-22.38315 4.5612,-9.29567 11.7585,-17.07341 19.01028,-20.54342 1.23989,-0.59329 2.28568,-1.10097 2.32398,-1.12817 0.0383,-0.0272 0.85609,-2.81688 1.81732,-6.1993 l 1.74769,-6.14985 -1.02357,-0.82867 c -0.56296,-0.45582 -1.76654,-1.53441 -2.67462,-2.39692 l -1.65105,-1.56821 -7.35925,1.21387 c -7.63261,1.25895 -8.25393,1.28229 -10.00302,0.37572 -1.14499,-0.59345 -2.40569,-2.10504 -2.77011,-3.32137 -0.16902,-0.56414 -0.26285,-1.90609 -0.20851,-2.98212 0.1185,-2.34675 0.7813,-3.48051 2.47187,-4.22833 0.95086,-0.42061 9.56602,-2.58149 15.35029,-3.8502 3.96521,-0.86973 7.28989,0.0652 10.36905,2.916 0.89497,0.82859 1.68028,1.41321 1.74513,1.29915 0.32303,-0.56812 2.83477,-8.93598 2.83477,-9.44405 0,-0.0755 -0.53353,0.0915 -1.18563,0.371 -2.63992,1.1316 -4.81575,1.37663 -7.06366,0.79545 -0.62888,-0.16259 -4.6231,-1.61124 -8.87604,-3.21923 l -7.73263,-2.92361 -0.86633,0.73048 c -1.13711,0.95881 -2.33664,1.44405 -3.56975,1.44405 -0.56551,0 -4.65048,-1.2166 -9.39428,-2.79784 -9.35492,-3.11826 -9.4328,-3.16257 -9.97143,-5.67412 -0.15849,-0.73901 -0.28822,-1.546162 -0.28829,-1.793661 -8e-5,-0.247499 -0.2382,-1.076353 -0.52917,-1.841898 -0.62625,-1.647689 -0.68244,-3.82631 -0.13989,-5.424358 0.36794,-1.083716 0.35385,-1.232083 -0.2583,-2.721225 -0.73152,-1.779518 -0.8717,-4.336471 -0.35108,-6.404009 0.25706,-1.020906 0.24596,-1.246826 -0.0661,-1.345795 -0.20629,-0.06541 -0.81702,-0.57832 -1.35717,-1.139792 -1.44173,-1.498629 -1.80933,-3.022613 -1.93296,-8.01363 -0.0986,-3.979676 -0.13842,-4.248482 -0.71136,-4.801041 -0.3338,-0.321932 -6.37684,-3.647583 -13.42896,-7.390334 -7.0521206,-3.742752 -13.08250164,-6.975665 -13.4008456,-7.184252 -0.806217,-0.528254 -1.248701,-1.727211 -1.027224,-2.783373 0.101192,-0.482554 0.945816,-2.63916 1.87694396,-4.792457 0.931128,-2.153298 1.69296004,-4.114085 1.69296004,-4.357305 0,-0.243221 -0.59375304,-1.043439 -1.31944904,-1.778264 -1.57022396,-1.589975 -1.95959796,-2.974722 -1.56046496,-5.549549 0.301749,-1.9466 3.062096,-7.59107 4.538416,-9.280337 1.845184,-2.111337 4.423684,-2.496521 7.0154046,-1.047981 0.650279,0.363448 1.216239,0.660815 1.257689,0.660815 0.0414,0 0.33339,-0.533003 0.64875,-1.18445 0.74681,-1.542701 1.91779,-2.522501 2.99985,-2.510074 1.07327,0.01233 5.41882,2.289254 6.04113,3.165357 0.28887,0.40668 0.57878,1.578659 0.75267,3.042708 0.15556,1.309688 0.33702,2.559844 0.40325,2.778125 0.0662,0.218281 0.68695,0.708158 1.37939,1.088615 0.69244,0.380457 8.06979,4.464263 16.3941,9.075123 l 15.13512,8.383382 0.79289,-0.410019 c 0.43609,-0.22551 0.92771,-0.410019 1.0925,-0.410019 0.52178,0 10.3499,5.669489 10.58447,6.105805 0.12339,0.229495 0.30646,1.360588 0.40682,2.513541 0.10037,1.152954 0.30155,2.246521 0.44706,2.430149 0.14552,0.183629 0.97523,0.712646 1.84381,1.175593 0.86857,0.462947 1.93818,1.177035 2.37691,1.586864 0.75451,0.704823 0.7919,0.83588 0.69089,2.422101 -0.15834,2.486745 -1.3748,4.782297 -3.55875,6.715654 -1.21325,1.074031 -1.97843,2.032227 -2.59059,3.244042 -0.47782,0.945885 -1.13041,2.211737 -1.4502,2.813004 l -0.58145,1.093212 0.93822,1.706885 c 0.93465,1.700372 0.93823,1.71961 0.93823,5.041126 0,1.833832 0.11263,3.630481 0.25029,3.992552 0.27204,0.715536 1.37155,1.111745 7.8195,2.817775 4.83728,1.27987 5.49111,1.23276 9.28146,-0.668757 l 3.15395,-1.582256 2.20519,-5.55625 2.20519,-5.556249 c 3.840637,-9.676961 4.765752,-13.675858 8.708296,-23.235492 l 3.65081,-8.852277 c 11.59283,-28.109609 15.27607,-31.635633 15.83594,-32.195501 1.14959,-1.149589 3.02245,-1.142157 4.87419,0.01934 4.26667,2.676268 15.72343,14.130182 23.39161,23.385805 8.84548,10.676649 18.64439,25.265382 25.2208,37.549051 0.88954,1.661511 1.61734,3.117758 1.61734,3.236105 0,0.327253 0.88564,0.444285 4.49792,0.594374 3.7956,0.157705 5.71995,0.588914 8.33437,1.867565 2.9635,1.449377 6.3186,4.662706 8.32497,7.973198 1.62302,2.677986 1.35252,5.311201 -0.66807,6.503383 -0.53854,0.317741 -0.83579,0.660738 -0.72909,0.841285 0.75449,1.276742 5.09729,7.669211 5.81302,8.556611 0.49153,0.60942 1.43531,1.37853 2.09728,1.70914 3.72848,1.86209 6.07434,5.75066 6.38777,10.58859 0.27291,4.2123 -0.95934,7.90539 -3.47426,10.41254 -1.67932,1.67414 -3.16916,2.40264 -5.71308,2.79357 -1.0914,0.16772 -2.75828,0.51943 -3.70416,0.78157 -0.94589,0.26214 -2.70206,0.73757 -3.90261,1.05651 l -2.18281,0.57989 -0.005,4.00591 c -0.0238,18.49697 -8.8725,32.0539 -23.85364,36.54595 -2.53494,0.76009 -2.56147,0.77672 -2.72694,1.70855 -0.29042,1.63557 -3.76499,14.51252 -5.17995,19.19724 l -1.35855,4.49792 0.35262,4.10104 c 0.19394,2.25557 0.34563,5.60198 0.3371,7.43646 l -0.0155,3.33543 1.23163,0.31566 c 3.434,0.8801 5.17991,4.65405 3.6814,7.95769 -0.72609,1.60073 -1.20209,2.0871 -2.75777,2.8178 l -1.32291,0.62137 -13.2333,0.003 c -12.37433,0.002 -13.29313,-0.0292 -14.15521,-0.48732 -1.15287,-0.61264 -2.07032,-1.93101 -2.28708,-3.28656 -0.20657,-1.29181 -1.01752,-1.8379 -3.59307,-2.41953 -2.00304,-0.45234 -2.3178,-0.39702 -2.3178,0.4074 0,1.08059 -2.72707,8.67014 -4.21902,11.74172 -2.67926,5.51596 -5.89008,9.99937 -10.56368,14.75052 l -2.53758,2.57969 19.5742,0.003 c 27.35176,0.004 47.88988,0.62232 66.14087,1.99254 7.81354,0.58662 11.38571,1.15401 11.17852,1.77558 -0.13597,0.40791 -1.1246,0.65015 -4.56394,1.11832 -13.89084,1.89083 -47.29898,3.07222 -84.93125,3.00337 -11.9327,-0.0218 -25.446286,-0.12996 -30.030196,-0.24029 z m 7.2936,-14.81986 c 8.91042,-1.63798 17.652396,-10.51089 21.694126,-22.01907 0.67164,-1.91238 0.69701,-2.12817 0.33904,-2.88403 l -0.38692,-0.81699 -0.88182,2.35487 c -3.86056,10.30947 -10.13855,17.12497 -18.136146,19.68893 -2.60749,0.83593 -7.37873,0.83069 -10.05417,-0.0111 -3.93647,-1.2385 -7.08146,-3.24769 -10.18693,-6.50796 -2.41125,-2.53146 -3.61157,-4.30974 -5.29853,-7.84977 -7.65295,-16.0595 -5.66204,-39.82405 4.40265,-52.55227 1.73113,-2.18926 1.96797,-2.66821 1.31944,-2.66821 -0.60286,0 -3.43224,2.26181 -4.71035,3.76547 -8.56771,10.07966 -11.60372,27.45979 -7.49974,42.93349 1.45551,5.48789 4.10898,11.32536 6.92743,15.23993 1.74228,2.41986 5.43533,6.06167 7.71522,7.60818 4.90924,3.33006 9.95421,4.60133 14.7567,3.71849 z m 1.26717,-10.71388 c 2.66914,-0.68818 4.59034,-1.8801 7.20921,-4.47261 2.541856,-2.51627 3.657436,-4.2254 5.299806,-8.11961 4.17208,-9.89239 4.37564,-24.6902 0.48024,-34.91076 -1.75163,-4.59583 -3.67119,-7.70889 -6.729846,-10.91418 -1.71772,-1.80008 -3.89087,-3.60535 -4.34004,-3.60535 -0.0771,0 -0.26315,0.44648 -0.41349,0.99219 -0.2664,0.96698 -1.95205,11.94788 -2.28913,14.91216 l -0.16881,1.48457 2.00583,1.97355 c 3.47899,3.42301 5.11512,7.81436 4.86179,13.04899 -0.35814,7.4007 -4.90563,13.38157 -10.21252,13.43156 -3.04949,0.0287 -6.40773,-2.32581 -8.30448,-5.82244 -1.74274,-3.21269 -2.25914,-7.97453 -1.34289,-12.38291 0.48853,-2.35051 0.40079,-4.96518 -0.48281,-14.38743 l -0.30818,-3.28621 -0.87975,1.03725 c -2.03948,2.40462 -4.40001,8.21195 -5.26118,12.94351 -0.59418,3.26455 -0.80502,10.78605 -0.39433,14.06661 1.03158,8.24003 3.95249,14.87116 8.60877,19.54387 4.26541,4.28047 8.11647,5.63916 12.66181,4.46724 z m -30.11178,-0.83762 c -0.0974,-0.40018 -0.37822,-1.13583 -0.62399,-1.63478 -0.3935,-0.79883 -0.66241,-0.96522 -2.2516,-1.39327 -2.07078,-0.55776 -3.28635,-1.13554 -5.81191,-2.7625 -2.10287,-1.35466 -2.04713,-0.91308 0.18313,1.45067 1.73196,1.83563 4.02963,3.39238 6.37099,4.31656 2.30889,0.91137 2.34968,0.91182 2.13338,0.0233 z m -4.72828,-10.98021 c -0.0786,-0.32742 -0.21958,-1.07156 -0.31328,-1.65364 -0.30844,-1.91601 -0.6033,-2.35856 -1.99758,-2.9982 -1.59435,-0.73142 -4.40404,-3.29447 -5.98023,-5.45526 -1.33338,-1.82793 -1.46616,-1.47472 -0.48792,1.29785 0.99332,2.81529 2.28031,4.45109 5.55726,7.06343 1.60073,1.27607 3.01262,2.32486 3.13754,2.33064 0.12492,0.006 0.16281,-0.25739 0.0842,-0.58482 z m 89.354106,-8.28986 c 0.30973,-0.80714 0.13691,-4.50228 -0.33666,-7.19827 -0.2786,-1.58608 -0.37714,-2.78441 -0.23613,-2.87157 0.33804,-0.20892 2.45226,1.63 4.10683,3.57205 1.57757,1.85167 1.75216,1.64203 0.58226,-0.69915 -1.16621,-2.33379 -4.2445,-5.15107 -7.37867,-6.75301 -1.33642,-0.68308 -2.67181,-1.24196 -2.96754,-1.24196 -0.45407,0 -0.35383,0.20451 0.64458,1.31497 1.42542,1.58541 2.19807,3.15675 2.67797,5.44618 0.39532,1.88588 0.11233,2.54002 -0.61787,1.42821 -2.42533,-3.69289 -7.15207,-7.62023 -10.82543,-8.99461 -4.25984,-1.59381 -10.1853,-0.9914 -12.55324,1.27622 -1.02381,0.98044 -2.38263,3.1569 -2.17783,3.48828 0.0969,0.15676 1.21039,0.27454 2.60118,0.27515 4.21116,0.002 8.71228,0.94985 12.41669,2.61515 2.20336,0.99051 4.25934,2.2747 9.30368,5.81119 2.31403,1.62232 4.29559,2.94968 4.40346,2.94968 0.10787,0 0.26839,-0.18833 0.35672,-0.41851 z m -91.649816,-6.60342 c 0,-1.43416 -0.0358,-1.50386 -1.66342,-3.24115 -2.31668,-2.47273 -4.95116,-7.01141 -4.95116,-8.52988 0,-0.28689 -0.0922,-0.52162 -0.20483,-0.52162 -0.32059,0 0.12216,4.77138 0.55415,5.97197 0.74294,2.06479 1.74838,3.75422 3.14216,5.27972 1.12695,1.23345 2.67205,2.4999 3.05696,2.50565 0.0364,5.5e-4 0.0661,-0.65857 0.0661,-1.46469 z m 28.99991,-6.52127 c 0.20355,-1.20973 0.96484,-4.58076 1.69177,-7.49117 1.0781,-4.31645 1.58762,-7.24212 2.76471,-15.875 1.95999,-14.37483 2.00864,-14.79337 2.2449,-19.31459 0.20346,-3.89344 0.25061,-4.12438 2.48485,-12.17083 1.2526,-4.51114 2.81676,-10.04755 3.47592,-12.30312 0.65915,-2.25558 1.19891,-4.24987 1.19945,-4.43177 7.5e-4,-0.24985 -0.95347,-0.32985 -3.90161,-0.32712 -2.14643,0.002 -4.17135,0.0756 -4.49982,0.16365 -0.50012,0.13401 -0.76675,0.70337 -1.6401,3.50211 -1.6891,5.41299 -7.39286,24.69929 -7.57576,25.61618 -0.2326,1.16605 0.29666,10.82504 1.21512,22.1759 0.4239,5.23875 0.89556,11.6086 1.04814,14.15521 0.45252,7.55266 0.6198,9.00258 0.99532,8.62706 0.0699,-0.0699 0.29356,-1.11679 0.49711,-2.32651 z m 61.589536,-5.17607 c 0.0757,-0.25466 0.86146,-4.39208 1.74616,-9.19427 0.88471,-4.80219 1.6963,-8.94751 1.80355,-9.21184 0.17682,-0.43582 0.30543,-0.39639 1.38052,0.42318 0.65204,0.49708 1.57342,1.10384 2.04751,1.34836 0.84805,0.4374 0.86669,0.43426 1.15292,-0.19394 0.26764,-0.58742 0.13303,-0.79746 -1.68151,-2.62382 -1.23217,-1.24019 -2.26067,-2.04414 -2.74041,-2.14211 -0.42239,-0.0863 -2.54147,-0.34603 -4.70906,-0.57727 -3.26159,-0.34795 -3.99942,-0.36028 -4.27941,-0.0715 -0.41438,0.42739 -2.29023,15.25476 -2.33305,18.44126 l -0.0298,2.21733 2.24896,0.46557 c 1.23692,0.25607 2.84427,0.7103 3.57187,1.0094 1.6401,0.6742 1.65372,0.67502 1.82174,0.10965 z m -89.364206,-1.93872 c 0.32947,-1.11584 0.21043,-1.38987 -1.68094,-3.86957 -0.80685,-1.05784 -2.44714,-4.77347 -2.45148,-5.55318 -0.006,-1.11848 -0.50034,-0.8731 -0.68206,0.33873 -0.25761,1.71785 0.25258,4.42577 1.19422,6.3385 0.82564,1.67713 2.86595,4.23537 3.15074,3.95057 0.0887,-0.0887 0.30003,-0.63101 0.46952,-1.20505 z m 76.232636,-3.41227 c 0.90927,-3.62179 1.65436,-8.7593 1.28685,-8.87309 -0.16267,-0.0504 -1.1292,-0.22275 -2.14785,-0.38307 -2.15586,-0.3393 -7.19711,-1.56142 -7.87135,-1.90821 -0.60014,-0.30868 -0.60264,-0.33695 0.31114,3.52231 0.42578,1.79829 0.97871,4.34118 1.22871,5.65086 0.25,1.30969 0.54563,2.55544 0.65696,2.76834 0.18423,0.35234 5.06779,1.85409 5.66262,1.74133 0.13897,-0.0263 0.53178,-1.15966 0.87292,-2.51847 z m -15.94986,-6.56337 c -1.3982,-6.29019 -4.8595,-13.29437 -8.94414,-18.09913 -2.04857,-2.40973 -5.33514,-4.97939 -8.268196,-6.46463 -2.56408,-1.29841 -3.28526,-1.35763 -3.28526,-0.2698 0,0.47883 0.18415,0.68716 0.7276,0.82316 0.40019,0.10015 1.80595,0.69936 3.12393,1.33159 6.536256,3.13542 12.743936,11.94787 16.179236,22.96814 0.85905,2.7558 1.10924,2.60073 0.46683,-0.28933 z m 43.81833,-9.12729 c 1.41593,-0.9542 2.42204,-3.20678 2.56942,-5.75269 0.21016,-3.63042 -0.87804,-5.9943 -3.27899,-7.12288 -2.45322,-1.15315 -4.4814,-0.21439 -5.94059,2.74964 -1.94383,3.94849 -1.00402,8.87354 1.94913,10.21431 1.56356,0.70988 3.57253,0.67211 4.70103,-0.0884 z m -3.61191,-2.76036 c -1.6181,-1.6181 -1.54388,-5.87251 0.12466,-7.14582 0.52114,-0.3977 1.74019,-0.43129 2.42139,-0.0667 0.85537,0.45778 1.30826,1.69305 1.30826,3.56829 0,1.81726 -0.21983,2.49393 -1.13751,3.50147 -0.65798,0.7224 -2.06332,0.79626 -2.7168,0.14278 z m -20.11687,-4.6407 c 0.21047,-0.32742 0.50426,-1.26601 0.65286,-2.08575 0.76775,-4.23527 3.37859,-8.12602 7.07846,-10.54851 2.34027,-1.5323 4.58427,-2.20223 7.37632,-2.20214 3.91219,1.2e-4 8.19658,1.64508 11.58372,4.44748 1.69653,1.40364 1.78498,1.44413 1.62585,0.74421 -0.0926,-0.4071 -0.45344,-1.30354 -0.80195,-1.99208 -0.34851,-0.68855 -0.63366,-1.36025 -0.63366,-1.49267 0,-0.38813 1.25978,-0.61724 4.36562,-0.79398 l 2.91042,-0.16562 0.75375,-2.24896 c 0.83221,-2.48308 1.61964,-5.9107 1.90661,-8.29929 l 0.1865,-1.55243 -1.02655,0.12612 c -0.56461,0.0694 -3.34828,0.69133 -6.18593,1.38214 -6.84624,1.66668 -7.48127,1.78279 -8.23105,1.505 -0.49005,-0.18155 -0.93042,-0.0683 -1.95541,0.50308 -2.14166,1.19379 -3.24769,1.38296 -5.42794,0.92836 -1.7839,-0.37196 -3.24047,-1.05023 -4.09901,-1.90877 -0.30681,-0.30681 -0.58691,-0.32867 -1.38205,-0.10785 -1.50206,0.41713 -2.6837,0.34208 -5.29572,-0.33635 l -2.37259,-0.61623 -0.50093,0.75372 c -0.8025,1.20749 -2.51066,1.89713 -4.29411,1.73369 -2.01833,-0.18496 -7.66486,-2.35765 -8.4438,-3.24903 -0.86884,-0.99426 -0.79289,-2.6163 0.22589,-4.82474 1.64584,-3.56771 1.58392,-3.28661 0.8993,-4.08253 l -0.61335,-0.71306 -4.79456,3.22752 c -8.84085,5.95135 -10.45317,6.66711 -15.01832,6.66711 -2.47465,0 -2.71024,0.0439 -2.84066,0.52917 -0.28115,1.04612 -0.13434,1.15059 2.43025,1.72946 4.29017,0.96836 8.741,2.87001 12.63385,5.3979 5.5283,3.5899 10.77354,9.03164 14.42493,14.96535 1.89758,3.08366 1.99358,3.175 3.33706,3.175 0.8961,0 1.22632,-0.12881 1.5262,-0.59532 z m 12.86155,-0.52916 c 0.004,-0.82891 0.63582,-2.82598 1.31572,-4.15871 1.27003,-2.48946 4.15967,-4.74258 6.1471,-4.79303 0.84584,-0.0215 0.83042,-0.0406 -0.58652,-0.72639 -1.29181,-0.62526 -1.76714,-0.70448 -4.23333,-0.70555 -2.5854,-0.001 -2.90378,0.0583 -4.58938,0.85662 -1.25263,0.59327 -2.35949,1.40929 -3.58883,2.64584 -1.93099,1.9423 -2.9313,3.69831 -3.1347,5.50281 -0.11776,1.04484 -0.0709,1.16768 0.49823,1.3055 1.38985,0.33658 3.92036,0.60542 5.98603,0.63596 2.09604,0.031 2.18293,0.009 2.18568,-0.56305 z M 77.981864,145.19709 c 0.40071,-0.14982 0.80213,-1.05721 1.65364,-3.73797 0.61847,-1.94707 1.12448,-3.68887 1.12448,-3.87067 0,-0.45685 -2.88655,-0.45668 -3.03313,1.9e-4 -0.0584,0.1819 -0.58176,1.93807 -1.16309,3.9026 -0.58134,1.96453 -1.13228,3.76559 -1.22432,4.00236 -0.14786,0.38035 -0.0345,0.39967 0.97295,0.16591 0.62717,-0.14551 1.37843,-0.3536 1.66947,-0.46242 z m 83.272246,-11.04014 c 2.58272,-2.4744 0.45254,-7.05333 -2.67043,-5.74022 -1.49374,0.62807 -2.37642,3.56209 -1.53034,5.0868 0.94103,1.6958 2.80942,1.98643 4.20077,0.65342 z m -78.528256,-3.77821 c 0.34571,-1.09141 0.57357,-2.07367 0.50636,-2.18281 -0.0672,-0.10914 -1.45844,-0.19844 -3.09162,-0.19844 h -2.96942 l -2.48952,-2.68047 c -1.36924,-1.47426 -2.87965,-2.84348 -3.35647,-3.04271 -1.05972,-0.44278 -3.00339,-0.47018 -3.91421,-0.0552 -0.56855,0.25905 -0.6739,0.48316 -0.6739,1.43357 0,1.77586 0.15272,1.96354 1.59779,1.96354 1.14081,0 1.3404,0.0915 1.87651,0.8599 0.97147,1.39246 4.26469,4.7122 5.12466,5.16592 1.08822,0.57415 2.28412,0.7623 4.70355,0.74001 l 2.05772,-0.019 z m 23.730996,1.7361 c 3.13949,-0.66546 5.37047,-2.00705 10.81564,-6.50398 4.35425,-3.59599 4.73047,-3.80069 6.87926,-3.74297 1.21807,0.0327 1.88845,-0.061 2.03177,-0.28422 0.19567,-0.30469 1.6723,-3.67659 1.6723,-3.81871 0,-0.2201 -2.23704,-0.61268 -3.49819,-0.61391 -2.09656,-0.002 -3.70936,0.79623 -7.21744,3.57235 -5.89552,4.66543 -8.15702,6.20598 -9.96572,6.78872 -0.48521,0.15633 -2.2396,0.35926 -3.89866,0.45095 l -3.01647,0.16671 -0.500506,1.83041 c -0.27527,1.00672 -0.43965,1.98899 -0.36527,2.18281 0.18538,0.48308 4.736976,0.46494 7.063286,-0.0282 z m 45.50557,-2.72829 c 1.15581,-2.51573 1.7095,-3.24354 3.18324,-4.18424 1.09306,-0.69771 3.70207,-1.44102 5.02751,-1.43234 2.28349,0.0149 4.70388,2.15744 5.44507,4.8199 0.47686,1.71297 0.76314,1.69574 1.67983,-0.10112 0.64877,-1.27168 0.64364,-2.38353 -0.0209,-4.53505 -0.39814,-1.28902 -0.78703,-1.94983 -1.55668,-2.64517 -1.60687,-1.45171 -4.63157,-1.92055 -7.06355,-1.09487 l -1.23194,0.41826 -0.77334,-0.93821 c -1.28325,-1.5568 -4.46612,-1.98192 -7.16333,-0.95677 -0.76554,0.29097 -1.46552,0.52909 -1.5555,0.52917 -0.09,7e-5 -0.22872,-0.48536 -0.3083,-1.07874 -0.23191,-1.72899 -0.74777,-2.0963 -2.94254,-2.09514 -1.93468,0.001 -2.93433,0.3823 -4.30503,1.64201 -0.70722,0.64996 -1.14407,0.42638 -1.14407,-0.58553 0,-1.7404 -1.94145,-2.73294 -4.17129,-2.13251 -1.34555,0.36232 -2.38359,1.62078 -4.11335,4.98681 -1.3736,2.67297 -1.90241,4.15371 -2.15582,6.0366 l -0.18162,1.3494 2.0699,0.17592 c 1.13844,0.0968 2.30801,0.2387 2.59906,0.31543 0.44514,0.11736 0.66679,-0.16685 1.39592,-1.78991 1.02649,-2.28498 2.33766,-4.44296 2.6995,-4.44296 0.1419,0 0.44342,0.28299 0.67005,0.62886 0.38122,0.58181 0.36079,0.78156 -0.27303,2.66968 -0.38612,1.15023 -0.64987,2.4634 -0.60439,3.00916 0.0798,0.95786 0.0979,0.97174 1.6682,1.28183 3.52959,0.69699 3.02732,0.88909 4.35789,-1.66672 1.20315,-2.31105 2.15439,-3.36466 2.90048,-3.21264 0.49131,0.10011 0.47346,0.6249 -0.0878,2.5815 -0.22959,0.80036 -0.41884,1.95895 -0.42057,2.57464 -0.003,1.00123 0.0737,1.13891 0.72447,1.30383 0.92931,0.23549 3.79613,0.81116 4.24544,0.85249 0.18856,0.0173 0.82148,-1.01026 1.40647,-2.28357 z m 50.78971,-5.23884 c 1.77169,-1.22778 2.91215,-4.06259 2.92227,-7.26376 0.0231,-7.30054 -8.5516,-10.86747 -11.76425,-4.89375 -0.48377,0.89954 -0.56923,1.495 -0.56956,3.96875 -4.7e-4,3.43129 0.63615,5.52852 2.21617,7.30077 1.8512,2.07641 4.93186,2.4566 7.19537,0.88799 z m -4.79741,-3.48005 c -1.14275,-0.96156 -1.57182,-2.10122 -1.57182,-4.17493 0,-1.5891 0.0718,-1.8105 0.86898,-2.6804 1.05626,-1.15258 2.76073,-1.48641 4.08716,-0.80048 1.0659,0.5512 1.92302,2.33648 1.92302,4.00543 0,3.51546 -3.00852,5.58471 -5.30734,3.65038 z m -112.432236,2.76483 c 1.08908,-2.28551 1.63737,-2.44646 8.33438,-2.44646 6.630686,0 7.251336,0.17546 8.286086,2.34247 l 0.61318,1.28413 1.22851,-0.18422 c 2.91512,-0.43715 5.02522,-1.73015 10.55272,-6.46634 2.95317,-2.5304 5.46519,-4.22082 7.29282,-4.90758 1.59237,-0.59836 4.98289,-0.44907 7.09449,0.31238 l 1.46572,0.52855 1.13087,-1.00357 c 1.55517,-1.38009 3.30974,-1.76646 6.07181,-1.33705 1.11992,0.17411 2.57211,0.59587 3.22709,0.93725 0.93416,0.48689 1.33345,0.56592 1.85232,0.36665 1.27666,-0.49031 4.70585,0.005 13.09688,1.89354 8.70799,1.95937 9.94159,2.09562 11.1269,1.2289 0.45185,-0.3304 0.35683,-0.55358 -1.48563,-3.48944 -1.0826,-1.72506 -2.20648,-3.4132 -2.49752,-3.75142 l -0.52917,-0.61495 -2.01073,0.92987 c -4.56026,2.10893 -9.34623,2.98459 -14.05368,2.57133 -3.45871,-0.30364 -3.48194,-0.31821 -7.21439,-4.52601 -5.03321,-5.67423 -7.72574,-7.399369 -13.44943,-8.61725 -2.63572,-0.560826 -8.20002,-0.496486 -11.90968,0.137711 -3.40538,0.58218 -8.38358,2.090679 -10.29935,3.120909 -2.31472,1.24478 -1.91992,0.1589 0.86702,-2.384683 4.58813,-4.187498 11.31452,-6.545566 18.67882,-6.54823 6.1198,-0.0022 12.22204,1.819197 15.93946,4.757644 0.73903,0.584169 1.42092,1.062125 1.51532,1.062125 0.35886,0 -0.0939,-4.940279 -0.58006,-6.328853 -0.47809,-1.365627 -0.61562,-1.50404 -2.88192,-2.900491 -2.4817,-1.529177 -6.14141,-4.822038 -7.66302,-6.894875 -1.23093,-1.676869 -1.87745,-2.304975 -2.36929,-4.152767 -0.22722,-0.853596 -8.73414,-1.51335 -10.89263,-1.769859 -9.47589,-1.126085 -11.65526,-2.449558 -18.204725,-3.664656 l -6.079771,17.723424 c -1.576708,4.596334 -4.10536,12.790261 -5.72056,18.174531 -1.6152,5.38427 -3.27509,10.86115 -3.68864,12.17083 -0.41355,1.30969 -0.83134,2.6433 -0.92843,2.96358 -0.16703,0.55102 -0.0868,0.58741 1.49084,0.67663 0.91704,0.0519 1.72688,0.11681 1.79964,0.14433 0.0728,0.0275 0.42995,-0.57462 0.79375,-1.33808 z m 95.562396,-1.45387 8.38218,-2.3155 -0.0472,-1.7198 c -0.026,-0.94588 0.0502,-2.18223 0.16927,-2.74744 0.19605,-0.93074 0.17104,-1.00922 -0.2652,-0.83228 -1.13424,0.46004 -7.01447,2.12613 -12.78479,3.62241 -3.41974,0.88676 -6.41924,1.7167 -6.66555,1.84432 -0.4129,0.21393 -0.40068,0.3403 0.15667,1.61991 0.33247,0.76333 0.73981,1.7153 0.90518,2.11548 0.22572,0.5462 0.4835,0.72771 1.03396,0.72801 0.40331,2.2e-4 4.50526,-1.04158 9.11547,-2.31511 z m 2.0222,-10.2708 c 1.11707,-0.37359 2.13504,-0.78121 2.26218,-0.90583 0.24299,-0.23819 -4.54413,-6.29888 -4.83029,-6.11534 -0.0899,0.0576 -0.91222,0.78066 -1.82749,1.60672 l -1.66412,1.50194 1.79641,2.27733 c 0.98803,1.25253 1.89449,2.28567 2.01435,2.29588 0.11987,0.0102 1.1319,-0.28711 2.24896,-0.6607 z m 10.89457,-4.70145 c 0.3638,-0.15548 0.70683,-0.31388 0.76229,-0.352 0.0555,-0.0381 -1.84613,-2.39419 -4.22575,-5.2357 l -4.3266,-5.166386 -1.10661,1.086055 c -0.60863,0.597329 -1.31885,1.480161 -1.57825,1.961847 l -0.47165,0.875794 2.48992,2.8644 c 1.36946,1.57542 3.13027,3.59844 3.91293,4.49559 l 1.423,1.63118 1.22963,-0.93905 c 0.6763,-0.51647 1.52729,-1.06625 1.89109,-1.22173 z m -46.16578,0.91773 c 1.05982,-0.48145 3.97889,-2.25712 7.31216,-4.44798 2.51444,-1.65267 2.6067,-1.95846 2.60165,-8.62304 -0.002,-2.943852 -0.0951,-5.49569 -0.20636,-5.670751 -0.11128,-0.175062 -0.68911,-0.396135 -1.28408,-0.491274 -1.80969,-0.289382 -1.94509,0.128065 -1.94509,5.997026 v 4.937424 l -1.02536,0.926355 c -0.56395,0.50949 -1.58754,1.25581 -2.27465,1.65848 -1.02567,0.60108 -1.29132,0.66573 -1.48413,0.3612 -0.12916,-0.20401 -0.23666,-2.94779 -0.23889,-6.097299 -0.004,-4.975203 -0.059,-5.747446 -0.42257,-5.886978 -0.70562,-0.270773 -1.83633,-0.17907 -2.34086,0.189848 -0.44381,0.324524 -0.47589,0.868576 -0.4337,7.354885 0.0506,7.777454 0.13141,7.406434 -1.77783,8.162314 -1.08647,0.43015 -0.98893,0.74726 0.46659,1.51696 1.37579,0.72753 1.6756,0.73861 3.05312,0.11283 z m 24.9026,-7.19601 c 0.83055,-0.40206 1.76601,-1.34639 3.53968,-3.573261 1.32593,-1.664727 3.14748,-3.624074 4.04787,-4.354103 2.9452,-2.387928 7.97296,-4.490729 10.73726,-4.490729 1.46096,0 1.4198,-0.485432 -0.17648,-2.081717 -3.5841,-3.584094 -10.35778,-5.76745 -14.93489,-4.813948 -3.45007,0.718719 -6.49324,3.075827 -8.07911,6.257746 -1.9093,3.830861 -2.1464,9.346074 -0.50728,11.800245 1.16519,1.744567 3.32193,2.248647 5.37295,1.255767 z M 46.281944,99.546302 c 0.36057,-0.236252 0.82648,-0.838567 1.03535,-1.33848 0.33475,-0.801169 0.33062,-1.003986 -0.0348,-1.710683 -0.22803,-0.440963 -0.67676,-0.912629 -0.99718,-1.048146 -1.04224,-0.440796 -11.14839,-2.996043 -11.77668,-2.977624 -1.07728,0.03158 -1.6382,0.803964 -1.6382,2.255773 0,2.267518 0.66673,2.626917 9.26041,4.991752 1.90935,0.525416 3.16554,0.473196 4.15113,-0.172592 z m 15.10471,-2.839395 c 0.30946,-0.329408 0.74184,-1.027768 0.96085,-1.551912 0.95339,-2.281799 2.00865,-11.29992 1.6231,-13.87092 -0.21784,-1.452664 -0.44229,-1.576028 -5.14719,-2.829067 -2.15302,-0.573404 -3.70898,-0.823245 -5.22305,-0.838668 -2.03283,-0.02071 -2.21491,0.02516 -3.175,0.799834 -0.56018,0.451991 -1.23292,1.187743 -1.49499,1.635003 -0.59257,1.01132 -2.08517,6.832901 -1.98131,7.727699 0.0979,0.84335 1.11179,1.336969 3.12022,1.519087 l 1.53364,0.139066 2.36857,-2.283308 c 2.58341,-2.490413 3.05225,-2.663294 5.43113,-2.002675 l 0.99993,0.277682 -0.52062,0.661855 c -1.95855,2.489896 -1.94094,8.513333 0.031,10.612401 0.70042,0.745558 0.77677,0.745761 1.47369,0.0039 z m -15.0225,-5.082824 c 0,-0.214544 -0.35517,-0.573747 -0.78927,-0.798229 -1.56256,-0.808031 -1.96875,-2.585859 -1.0523,-4.605773 0.29043,-0.640131 0.49618,-1.182954 0.45721,-1.206274 -0.31963,-0.191288 -9.58006,-2.26006 -10.11668,-2.26006 -0.38161,0 -0.97781,0.28397 -1.32489,0.631044 -1.22517,1.225173 -1.51711,4.340537 -0.45799,4.887379 0.79039,0.408098 12.16225,3.676243 12.95319,3.722607 0.1819,0.01066 0.33073,-0.15615 0.33073,-0.370694 z M 147.31325,87.108659 c 1.91549,-0.495091 3.99044,-1.821631 5.18633,-3.315682 1.87322,-2.340247 1.72957,-2.263543 4.55482,-2.4321 3.44456,-0.205505 4.79537,-0.844545 5.72455,-2.708171 0.55097,-1.105078 0.65512,-1.677043 0.6325,-3.473496 -0.0447,-3.548155 -0.9905,-4.797468 -3.25599,-4.300789 -1.51644,0.33246 -2.24724,1.062034 -2.44543,2.441312 -0.26951,1.875662 -0.96812,3.744366 -1.61858,4.329568 -1.08875,0.979509 -1.21293,0.954106 -0.92284,-0.188775 0.31135,-1.226628 -0.0302,-4.072552 -0.67339,-5.611424 -0.52242,-1.249855 -1.21907,-1.435037 -3.76212,-1.000034 l -1.95212,0.33392 0.34669,0.692151 c 0.42074,0.839966 1.02359,3.223443 0.85736,3.389677 -0.0658,0.06579 -0.47777,-0.06559 -0.91551,-0.291956 l -0.7959,-0.411573 -0.17835,1.119668 c -0.21643,1.358803 -1.24034,3.699972 -2.12603,4.861163 -0.35801,0.469373 -0.65092,0.911647 -0.65092,0.982832 0,0.07118 0.41672,0.266956 0.92604,0.435047 0.50932,0.168092 0.92604,0.393432 0.92604,0.500756 0,0.465617 -3.36988,1.356591 -5.12118,1.354006 -4.66356,-0.0069 -8.94272,-2.332606 -11.15069,-6.060397 -0.64494,-1.088873 -0.93016,-1.341098 -1.52136,-1.345364 -0.40018,-0.0029 -0.7276,0.04441 -0.7276,0.105106 0,0.370244 1.17121,2.735789 1.8184,3.672711 1.14821,1.662219 3.2665,3.635574 5.08485,4.736933 1.49294,0.904254 4.757,2.147723 6.32591,2.409901 1.53167,0.255953 3.96325,0.155285 5.43452,-0.22499 z M 122.03499,67.608581 C 0,0 0,0 122.03499,67.608581 Z M 42.072944,79.157444 c 0.82758,-0.542249 1.3808,-1.912393 1.3808,-3.419796 0,-2.200793 -0.93575,-3.271023 -3.78024,-4.323545 -1.96206,-0.726003 -3.34895,-0.730048 -4.26126,-0.01243 -1.62652,1.279422 -2.23768,4.063656 -1.24819,5.686316 0.5376,0.88161 2.13522,1.749191 4.34774,2.361025 1.52027,0.420404 2.61081,0.331116 3.56115,-0.291572 z M 140.38489,76.28409 c 0.93186,-0.863618 0.95333,-2.196032 0.0491,-3.045535 -0.84758,-0.796251 -2.37916,-0.61119 -3.25159,0.392889 -0.82661,0.951344 -0.75597,1.796332 0.21874,2.616492 1.02485,0.862359 2.07851,0.875125 2.98377,0.03615 z M 63.650674,73.427185 c 1.41127,-1.882332 1.72994,-2.896105 1.90159,-6.049521 0.19285,-3.542974 -0.19925,-9.592265 -0.65754,-10.144478 -0.42507,-0.512174 -7.68051,-4.542547 -41.94619,-23.300966 -6.67547,-3.65442 -9.63018,-5.15347 -10.1578,-5.15347 -0.12145,0 -0.42702,1.041797 -0.67904,2.315104 -0.7369,3.723183 -3.1770766,10.488344 -6.0720136,16.834072 -1.075405,2.357298 -1.14307,2.828135 -0.487501,3.392206 0.424761,0.365477 6.8908546,3.878216 15.1759246,8.244406 1.8347,0.966878 3.57584,1.75796 3.86918,1.75796 0.51002,0 1.30702,-1.34822 2.62664,-4.443282 0.64665,-1.516669 -1.93726,-2.738364 25.75481,12.177095 4.87495,2.625737 8.97666,4.876825 9.1149,5.002418 0.45989,0.417804 0.90595,0.236881 1.55704,-0.631544 z m -47.5752,-19.924277 c -4.21675,-2.227511 -7.7135836,-4.190336 -7.7707496,-4.361834 -0.155166,-0.4655 1.056273,-2.899825 1.443095,-2.899825 0.2675526,0 15.0556546,7.758778 15.4153046,8.087843 0.18825,0.172254 -0.22499,1.312801 -0.82044,2.26435 l -0.6004,0.959485 z m 22.21889,2.699191 c -0.87312,-0.484356 -6.64766,-3.534772 -12.83229,-6.778703 -6.18464,-3.243931 -11.40906,-6.050806 -11.60982,-6.2375 -0.4106,-0.381817 -0.26695,-1.286286 0.33416,-2.104022 0.49175,-0.668959 -1.12506,-1.462679 21.65859,10.632579 2.87296,1.525179 5.29257,2.884712 5.37691,3.021185 0.1837,0.29724 -0.69874,2.159635 -1.07547,2.269762 -0.14552,0.04254 -0.97895,-0.318946 -1.85208,-0.803301 z m 1.71979,-6.362564 c -1.0914,-0.612974 -6.84667,-3.774568 -12.78948,-7.025763 -5.9428,-3.251196 -10.86274,-6.061489 -10.9332,-6.245097 -0.16497,-0.42991 0.62616,-1.969092 1.01211,-1.969092 0.26704,0 13.04061,6.83244 22.3137,11.935344 2.1235,1.168545 3.74239,2.227157 3.79374,2.480775 0.14136,0.698167 -0.50488,1.990687 -0.98157,1.963189 -0.23701,-0.01367 -1.32389,-0.526382 -2.4153,-1.139356 z m 94.551986,21.362387 c 5.70154,-2.528164 8.94053,-3.332692 13.57035,-3.370723 3.6383,-0.02989 3.69517,-0.09199 1.67085,-1.824727 -1.58265,-1.354688 -3.97958,-2.543714 -5.96538,-2.959197 -0.96328,-0.201545 -1.80999,-0.425013 -1.88157,-0.496596 -0.0716,-0.07158 0.39684,-0.209179 1.04095,-0.305768 1.51567,-0.227289 1.59567,-0.29352 2.1545,-1.783596 0.66971,-1.785732 2.37825,-3.99551 4.79169,-6.197434 2.44605,-2.231681 2.42986,-2.345495 -0.46866,-3.295231 -2.71429,-0.889374 -7.14039,-0.892034 -9.98139,-0.006 -2.94072,0.917136 -5.46643,2.348016 -7.45519,4.223563 -2.10422,1.984436 -3.17001,3.572012 -4.25458,6.337572 -0.71535,1.824059 -0.81442,2.423283 -0.90724,5.487254 l -0.1042,3.439583 0.72799,-0.926042 c 2.54866,-3.242062 6.00973,-5.447101 9.9427,-6.334473 0.54571,-0.123123 0.99219,-0.182383 0.99219,-0.131688 0,0.05069 -1.24764,0.821423 -2.77254,1.71273 -1.7011,0.994297 -3.20925,2.107512 -3.90261,2.880636 -1.0423,1.162221 -3.11443,4.883648 -3.11443,5.593332 0,0.479384 1.02903,0.124024 5.91657,-2.043195 z m 23.46194,-2.140362 c 0.49748,-0.626969 0.55704,-0.949586 0.43058,-2.332566 -0.18177,-1.987877 -1.02359,-4.310993 -2.222,-6.131932 -0.98425,-1.495534 -3.61671,-3.767313 -4.36914,-3.770514 -0.64642,-0.0027 -2.48062,1.717822 -3.27342,3.070637 -0.85602,1.460689 -0.71908,1.707812 2.07025,3.735922 2.04041,1.483585 3.21396,2.681996 5.05671,5.16387 0.87532,1.178906 1.52262,1.253142 2.30702,0.264583 z M 4.3700524,37.681349 c 1.232378,-0.517931 3.022163,-2.590677 3.951089,-4.575746 0.650407,-1.389888 0.831873,-2.183851 0.94247,-4.123562 0.120957,-2.121391 0.08009,-2.443837 -0.349519,-2.757977 -0.619975,-0.453337 -1.99608,-0.458258 -2.610021,-0.0093 -0.448027,0.327605 -0.435115,0.40296 0.238008,1.389062 0.602709,0.882948 0.687715,1.225047 0.55494,2.23329 -0.338769,2.572487 -2.950234,6.35 -4.389873,6.35 -0.605137,0 -0.742923,1.002564 -0.210905,1.534583 0.40941,0.40941 0.824997,0.400468 1.873811,-0.04032 z"
         id="path1"
         sodipodi:nodetypes="cscsscsssssssccscssssssssscsscssssssssssscssssssssssssssscsscssssssssssscsssssccssssssssssssssssssssccssscsscsssccssssssccssssccssscsscsssssssssssssssssscsssssscssssssssssssssssssscssssssssssssssscsssscssssssccsssssssscssssssssssssssssscsssssscsssssssssssssssssssssssssssssssssssssssssssscssccsscsssscssssscsssssssssssscssssssssscssssssssssscssssscsccscsssscssscssccsscssssscssssssssssccsssssssssscscssssssssssssssssscsssscsssscssscsssssssssscsssscssssccscccsssssssscsscscsssssscsscsscsssscssscssscssssssssssssssscssssssccccssssssscsscssccsssssssssssssssssssscssscsssssssssssssssssssssssssssssssssscssssssssssssccssscssssssscsssssssssssssssssscsssssssssscsssscssscsssscc" /><path
         style="opacity:1;fill:#d40000;stroke:none;stroke-width:6.28542;stroke-linecap:round;stroke-dasharray:none"
         d="m 525.78371,274.56359 c -5.52472,-0.0584 -12.36389,6.60529 -8.33445,11.96235 2.49757,3.94536 8.01506,6.0137 11.92451,2.83717 3.37376,-2.03949 5.43456,-6.11368 3.54274,-9.89698 -1.03279,-2.87374 -4.11654,-4.8866 -7.1328,-4.90254 z"
         id="path5"
         transform="scale(0.26458333)" /><path
         style="opacity:1;fill:#2a7fff;stroke:none;stroke-width:4.44446;stroke-linecap:round;stroke-dasharray:none"
         d="m 544.54064,189.75588 c -19.35975,-0.12782 -38.13369,9.41579 -50.85135,23.7607 -6.96601,7.89366 -11.62106,17.75226 -13.8311,28.00246 -0.76257,8.00313 -1.15543,16.16802 -0.97566,24.13873 1.9351,0.89058 2.92379,-2.77493 4.42603,-3.78443 9.56162,-11.54936 22.99875,-19.9042 37.71414,-22.74949 -9.86774,6.56501 -21.7541,11.66257 -27.7829,22.49151 -2.70513,4.88918 -6.02443,9.69445 -7.46628,15.12037 0.62219,2.54819 3.98943,0.62408 5.57602,0.19019 19.9727,-7.71092 39.26374,-18.94283 61.16237,-19.59822 6.07728,-0.60347 12.46098,0.0885 18.40827,-1.41939 2.08545,-1.57937 -1.17923,-3.55763 -2.1572,-4.71104 -8.30183,-8.15179 -19.45763,-12.44505 -30.64997,-14.84709 3.22879,-1.10868 8.14834,-0.45008 9.39819,-4.51033 3.41342,-7.0411 7.09016,-13.96887 12.80325,-19.45581 4.36952,-4.96127 9.87987,-9.05541 13.48549,-14.61968 -0.0427,-3.16349 -4.19955,-3.81702 -6.48019,-4.87065 -7.28278,-2.65002 -15.08405,-3.28026 -22.77911,-3.13783 z"
         id="path6"
         transform="scale(0.26458333)" /><path
         style="opacity:1;fill:#0044aa;stroke:none;stroke-width:4.44446;stroke-linecap:round;stroke-dasharray:none"
         d="m 575.85678,266.64842 c -4.37733,0.42737 -8.93282,0.63017 -13.11331,1.98515 -1.12691,2.24918 1.4382,4.53057 1.70047,6.80068 0.6688,2.66073 2.05171,5.66283 1.77762,8.31117 -2.15741,0.18078 -4.57601,-3.18076 -6.46585,-1.22627 -1.03651,9.20889 -5.59325,17.65969 -10.91215,25.11696 0.16502,2.38625 4.21482,2.1651 5.86078,3.49793 2.0255,0.50513 -1.05573,1.57059 -1.70791,1.88311 -14.86563,5.56149 -32.61102,3.26005 -45.60316,-6.20684 -6.38699,-4.39285 -10.63357,-10.90444 -15.09082,-17.04252 -1.35502,-1.75638 -4.83042,-2.34867 -6.35402,-0.63272 0.37854,3.67515 2.99427,6.86522 4.51422,10.18499 5.2829,9.92281 14.21738,17.46566 23.70455,23.21694 8.25925,4.01835 17.02605,7.7069 26.25827,8.52241 9.64419,0.4248 19.75003,-0.98702 27.83286,-6.63789 6.41285,-3.64461 9.92926,-10.60739 15.67576,-14.89297 8.89265,-2.72407 19.53495,-0.18371 27.26841,-6.40755 7.53235,-6.26384 7.71788,-17.14583 6.28235,-26.04693 -0.54309,-4.29633 -2.75993,-9.77124 -7.83454,-9.88564 -5.43166,-0.29559 -12.45067,2.05539 -13.55421,8.11176 -2.02232,7.02286 -2.54081,15.83938 -9.44282,20.11244 0.91466,-5.35189 1.0141,-10.84231 -0.1351,-16.18481 -1.0863,-4.10806 -1.47317,-9.56361 -5.6034,-11.8511 -1.57676,-0.71049 -3.35815,-0.76218 -5.058,-0.7283 z"
         id="path7"
         transform="scale(0.26458333)" /><path
         style="opacity:1;fill:#003380;stroke:none;stroke-width:4.44446;stroke-linecap:round;stroke-dasharray:none"
         d="m 573.65945,214.13497 c -6.05909,3.07352 -10.7377,8.63144 -13.66193,14.67983 -1.78628,4.32309 3.04442,7.28894 5.84651,9.58648 8.15982,5.77744 15.4341,12.62102 21.42102,20.67854 1.93834,1.81211 3.80607,5.8564 7.02205,4.96027 4.05867,-1.99882 6.19806,-6.67312 5.21377,-11.07008 -1.37823,-13.02429 -7.39863,-25.80872 -17.87866,-33.94042 -2.39849,-1.91232 -4.91721,-4.30863 -7.96276,-4.89462 z"
         id="path8"
         transform="scale(0.26458333)" /><path
         style="opacity:1;fill:#002255;stroke:none;stroke-width:4.44446;stroke-linecap:round;stroke-dasharray:none"
         d="m 588.25135,334.57096 c -3.94447,-0.13147 -5.314,4.43775 -5.07615,7.65484 -0.55115,11.50167 -0.56711,23.01984 -0.79521,34.53044 -4.98177,4.18257 -10.01278,8.95045 -16.23871,11.07272 -1.49443,-5.52072 -0.7388,-11.4293 -1.14504,-17.11535 -0.39964,-9.08689 0.0446,-18.29894 -1.20905,-27.30359 -2.65866,-3.55628 -8.65144,-2.49533 -11.39959,0.49895 -1.08804,3.71181 -0.2229,8.05461 -0.56343,12.00596 -0.34514,13.15669 0.22336,26.41656 -0.81672,39.48955 0.0483,2.78756 -2.1099,4.67275 -4.62311,5.36957 -1.36073,0.84955 -5.12286,1.9261 -3.5383,4.11941 2.97023,2.68591 6.86095,5.20988 11.01059,5.1421 7.04624,-1.60567 12.89628,-6.31003 19.10592,-9.78938 6.79544,-4.54455 14.1958,-8.4681 20.12122,-14.15292 3.86365,-4.88419 3.18914,-11.64628 3.60683,-17.50218 -0.01,-10.40124 0.37146,-20.88835 -0.76816,-31.23211 -1.49305,-2.42494 -5.11396,-2.62691 -7.67109,-2.78801 z"
         id="path9"
         transform="scale(0.26458333)" /><path
         style="opacity:1;fill:#999999;stroke:none;stroke-width:3.14271;stroke-linecap:round;stroke-dasharray:none"
         d="m 48.321127,108.22546 c -1.659681,0.94304 -1.487754,3.43264 -2.180114,5.04314 -4.585258,21.70204 -12.897526,42.34499 -21.656479,62.63859 -1.793723,4.60752 -4.405012,8.97244 -5.477242,13.82308 -0.530708,2.31355 0.843977,4.50408 2.943839,5.42906 15.185241,8.97537 30.900097,17.0243 46.447509,25.34928 7.939886,4.00389 15.67852,8.51379 23.955415,11.78734 2.752962,0.2069 3.905915,-3.03335 5.170168,-4.9424 2.594667,-4.72309 4.807007,-9.67423 6.900987,-14.61097 1.34816,-0.94391 3.1522,0.35559 4.50672,0.71652 14.45997,6.57021 28.27366,14.46574 42.33072,21.84067 27.51042,14.8642 55.15744,29.48617 82.45527,44.73812 1.46822,1.28751 3.78026,1.74102 5.17152,0.0966 5.14828,-5.19316 8.48464,-12.17099 8.98733,-19.49977 1.23381,-12.65773 0.7096,-25.45514 -0.65356,-38.08074 -0.542,-2.88472 -0.36193,-6.76034 -3.58154,-8.11394 -20.00642,-11.91576 -40.55435,-22.8978 -60.89923,-34.22072 -39.35799,-21.54965 -78.60232,-43.31203 -118.13355,-64.54242 -5.260444,-2.62252 -10.406889,-5.67508 -16.022159,-7.45824 l -0.09935,-0.004 z m 16.998024,23.2252 c 12.387087,5.87003 24.306634,12.69381 36.439449,19.07029 18.85695,10.27256 37.9564,20.10523 56.44153,31.04085 1.7837,1.28158 4.05845,2.27601 5.33125,4.07897 -0.19819,2.3473 -0.96023,5.2512 -3.16631,6.45629 -8.66287,-3.71911 -16.70438,-8.73423 -25.03478,-13.14394 -23.57053,-13.11301 -47.435742,-25.70145 -70.664578,-39.40531 -1.092374,-0.73687 -3.068552,-1.44737 -2.245237,-3.14258 0.555423,-1.81481 1.43196,-3.72691 2.898676,-4.95457 z m -9.019072,23.58475 c 8.80391,3.49132 16.992657,8.38161 25.463781,12.64351 23.80373,12.66047 47.76471,25.03037 71.3208,38.14748 0.87161,0.64098 2.78659,1.08686 1.96224,2.55297 -0.84972,2.27682 -1.73762,4.99862 -3.69076,6.47994 -11.51949,-5.32508 -22.53406,-11.73531 -33.83868,-17.52559 -21.087566,-11.24306 -42.447786,-22.081 -63.278011,-33.73138 -1.787708,-0.55323 -2.50727,-2.35305 -1.889647,-4.0699 0.399544,-1.83002 1.303736,-3.53173 2.522905,-4.94714 0.475791,0.15004 0.951581,0.30007 1.427372,0.45011 z m -14.860344,22.63114 c 17.821422,9.07604 35.590009,18.26156 53.02902,28.05001 0.12537,2.84319 -1.760522,5.52669 -3.068572,8.00898 -0.979378,1.52811 -1.76628,4.08808 -3.723956,2.05199 -18.08456,-9.71139 -36.44362,-18.90529 -54.14143,-29.30765 -2.485672,-0.70166 -0.906046,-3.35183 -0.322724,-4.97133 1.024101,-2.12235 1.87726,-4.47319 3.638717,-6.11025 1.529648,0.75941 3.059297,1.51883 4.588945,2.27825 z"
         id="path10"
         transform="scale(0.26458333)" /><path
         style="opacity:1;fill:#4d4d4d;stroke:none;stroke-width:3.14271;stroke-linecap:round;stroke-dasharray:none"
         d="m 28.607583,97.268756 c -2.262817,0.114193 -5.303195,0.678082 -6.318418,2.956124 0.09539,2.98161 2.963743,5.00855 3.67724,7.85122 1.123382,4.64849 -0.919044,9.40874 -2.713187,13.62965 -2.589773,5.19106 -5.863349,10.41852 -10.763716,13.70465 -1.85165,0.66647 -4.5244672,1.02708 -4.8160276,3.47584 -0.6250978,3.30596 2.9607456,6.41348 6.1345896,5.06 7.084285,-1.89364 11.771813,-8.22573 15.619753,-14.05068 5.142149,-7.59237 6.578695,-16.95241 6.318046,-25.95019 0.285094,-2.38929 -0.491828,-5.150123 -3.044048,-5.937922 -1.291329,-0.53595 -2.701513,-0.748157 -4.094232,-0.738692 z"
         id="path11"
         transform="scale(0.26458333)" /><path
         style="opacity:1;fill:#4d4d4d;stroke:none;stroke-width:3.14271;stroke-linecap:round;stroke-dasharray:none"
         d="m 477.4788,727.81695 c -8.67816,0.24539 -17.8735,1.67232 -25.0797,6.84017 -4.19976,3.75692 -7.88194,8.32034 -10.06527,13.54448 -0.79646,1.61118 0.9172,2.7936 2.38504,2.73039 10.1648,0.82688 20.44764,0.64156 30.41382,2.73219 13.80613,2.65179 27.15605,7.98206 38.9266,15.79031 12.40658,7.77311 24.03333,16.75609 36.48175,24.4791 2.10886,0.97282 2.97686,-2.00293 3.02235,-3.56505 0.68767,-10.35877 -0.88468,-20.67466 -2.33164,-30.9007 -0.10206,-1.50634 -0.38026,-3.28736 -0.14666,-4.66937 5.84576,3.6007 10.45304,8.95168 15.13,13.95201 1.51694,1.33802 2.61096,3.78553 4.76872,4.08072 1.63403,-0.93436 -0.11789,-2.99797 -0.48525,-4.27063 -3.15956,-6.9928 -7.80994,-13.24021 -13.62524,-18.24845 -7.87909,-6.9248 -17.0196,-12.61107 -26.99741,-15.9321 -1.16884,-0.62377 -2.9224,0.6131 -1.82679,1.83017 4.08322,5.42073 8.93155,10.59471 10.99966,17.17942 1.29135,4.31324 2.8866,8.86827 2.46711,13.45704 -0.34365,0.56186 -1.12236,-1.01982 -1.53146,-1.31046 -11.19749,-15.2091 -25.87852,-28.60566 -43.82003,-35.20309 -6.03768,-1.83431 -12.38591,-2.58403 -18.6856,-2.51615 z"
         id="path13"
         transform="scale(0.26458333)" /><path
         style="opacity:1;fill:#4d4d4d;stroke:none;stroke-width:3.14271;stroke-linecap:round;stroke-dasharray:none"
         d="m 531.62701,637.61612 c -1.88193,-0.12931 -4.058,0.82376 -4.11991,2.96761 -3.1461,17.04583 -5.02913,34.30257 -6.9436,51.52298 -0.85355,8.3328 -1.7135,16.79785 -0.96092,25.13247 1.88927,1.23464 4.67826,1.12953 6.90387,1.85801 6.72071,1.33185 13.29971,3.2814 19.63052,5.84789 1.51401,0.79111 2.99985,-0.50472 3.04361,-2.06243 4.76937,-22.61093 8.3127,-45.55305 13.21467,-68.07454 0.2213,-0.75841 0.34012,-2.31647 1.38682,-1.32397 4.6289,2.81672 8.82365,6.58802 13.98176,8.40135 1.63187,-0.39965 2.31694,-2.53907 2.57832,-4.03678 -0.81249,-3.17663 -3.83134,-5.19561 -5.84078,-7.62469 -3.569,-3.27025 -6.784,-7.40887 -11.46626,-9.10324 -7.06169,-1.67401 -14.38192,-1.92954 -21.56653,-2.8518 -3.27251,-0.29643 -6.55125,-0.67721 -9.84157,-0.65286 z"
         id="path14"
         transform="scale(0.26458333)" /><path
         style="opacity:1;fill:#0044aa;stroke:none;stroke-width:6.28542;stroke-linecap:round;stroke-dasharray:none"
         d="m 561.84242,574.38463 c -13.80003,5.97755 -27.15708,16.6509 -31.28729,31.67657 -0.6161,2.73881 -1.54805,7.51267 2.58035,7.71943 9.46503,1.41914 19.22264,3.19469 28.77857,2.06131 2.83689,-2.95986 2.1347,-7.90809 4.11046,-11.44601 3.52211,-10.77831 12.03337,-20.45375 23.01366,-23.85981 4.08082,0.53437 7.40321,-1.60721 1.64124,-3.28925 -7.92918,-4.87251 -17.61195,-2.25516 -26.35531,-2.94604 -0.81917,0.076 -1.68069,-0.13974 -2.48168,0.0838 z"
         id="path15"
         transform="scale(0.26458333)" /><path
         style="opacity:1;fill:#002255;stroke:none;stroke-width:6.28542;stroke-linecap:round;stroke-dasharray:none"
         d="m 593.82176,592.79178 c -10.02897,0.82222 -15.41622,11.20754 -17.61642,19.91427 -2.64527,10.82762 -0.91746,24.81791 9.41038,31.06561 8.04893,4.4456 19.64457,2.65508 24.18287,-5.92711 5.46971,-10.23394 6.57277,-23.38563 1.49225,-33.99199 -3.23079,-6.54456 -10.06357,-11.22224 -17.46908,-11.06078 z m 0.55824,12.58006 c 4.60434,-0.54977 9.22003,2.45149 9.60367,7.26257 1.26575,7.16796 1.71849,16.19459 -5.07149,20.84422 -4.71279,2.46095 -10.45661,-1.3304 -10.98509,-6.45156 -1.1332,-6.60309 -2.19982,-15.02936 3.11697,-20.23732 0.92996,-0.83315 2.03531,-1.50659 3.33594,-1.41791 z"
         id="path16"
         transform="scale(0.26458333)" /><path
         style="opacity:1;fill:#0044aa;stroke:none;stroke-width:2.22223;stroke-linecap:round;stroke-dasharray:none"
         d="m 514.87369,433.42447 c -4.55737,-0.0137 -8.9678,2.14814 -11.80054,5.71126 -4.93536,6.04677 -8.24218,13.21129 -11.65718,20.17557 -2.68716,5.64984 -4.72037,11.64147 -5.40697,17.88463 -0.13665,1.4656 -0.61643,2.94351 -0.49593,4.41373 1.01665,1.05136 2.78571,0.49799 4.12339,0.83334 5.00844,0.30227 9.9465,1.16681 14.94443,1.49972 2.09121,-0.0898 2.49259,-2.6573 3.46724,-4.05125 3.39099,-6.32109 6.07497,-13.06219 10.43602,-18.78856 0.40161,-0.75197 1.06912,-0.74325 1.50296,-0.0167 1.52434,1.42975 2.52488,3.59357 1.70225,5.65535 -1.50264,5.72188 -4.02917,11.36866 -3.90198,17.38421 10e-4,1.8357 1.04642,3.80121 3.01788,4.07067 4.55209,1.05054 9.13829,2.15514 13.7962,2.57103 2.88891,0.25318 4.19973,-2.78269 5.38324,-4.86338 2.72231,-4.83001 4.95273,-10.17535 9.08299,-14.0319 0.83842,-0.76066 2.46253,-1.69827 3.50867,-0.8516 0.4677,2.644 -0.66183,5.268 -1.15871,7.83482 -0.97049,4.38609 -2.32362,8.91703 -1.63312,13.44133 0.41078,2.5226 3.39373,2.84307 5.41003,3.2988 4.60155,0.914 9.18361,2.0948 13.82648,2.71163 1.93996,-0.84439 2.65973,-3.15931 3.75627,-4.81997 3.00478,-5.22626 4.89059,-11.20676 8.99528,-15.73314 5.09332,-5.42011 12.71789,-7.60472 19.85013,-8.89497 3.65635,-0.66662 7.4846,-0.39205 10.79267,1.43176 6.53663,3.32326 11.20846,9.6472 13.15775,16.66833 0.69526,1.53233 0.91043,3.79247 2.63795,4.52324 1.71336,-0.009 2.45745,-2.04097 3.35341,-3.21659 2.15613,-3.42136 3.63482,-7.42702 3.09426,-11.52697 -0.56938,-4.99566 -1.95478,-9.97928 -4.34658,-14.41607 -3.84775,-6.41311 -11.39389,-9.70418 -18.66528,-9.98027 -5.16426,-0.47823 -10.32061,0.55191 -15.13815,2.38117 -1.34919,1.04375 -1.93689,-0.52167 -2.7755,-1.35449 -2.47739,-3.1101 -5.87792,-5.46899 -9.76648,-6.4005 -7.09503,-1.88719 -14.64965,-0.73746 -21.3724,1.9767 -1.07556,0.33826 -2.09685,0.77774 -3.23675,0.9166 -0.85094,-2.92039 -0.93971,-6.17975 -2.57869,-8.808 -2.47428,-2.92518 -6.75455,-2.98542 -10.28746,-2.98465 -4.88888,0.057 -9.99289,1.07651 -13.80729,4.33613 -1.46115,1.00869 -2.67958,2.5003 -4.32491,3.17988 -1.45926,0.10865 -1.28046,-1.85706 -1.47046,-2.80187 -0.0254,-3.08985 -1.70135,-6.03284 -4.42336,-7.52247 -2.27556,-1.35128 -4.96502,-1.89307 -7.59176,-1.83653 z"
         id="path21"
         transform="scale(0.26458333)" /><path
         style="opacity:1;fill:#4d4d4d;stroke:none;stroke-width:2.22223;stroke-linecap:round;stroke-dasharray:none"
         d="m 603.03584,483.8395 c -4.44359,-0.009 -7.99808,3.49614 -9.59792,7.39751 -2.32381,5.01118 -2.66158,11.58177 1.23293,15.9264 2.34826,2.86601 6.29089,4.37561 9.91287,3.32229 5.59217,-1.47269 9.53002,-7.11798 9.86509,-12.76732 0.28836,-5.61774 -2.78123,-11.94241 -8.51696,-13.51521 -0.94057,-0.26259 -1.9196,-0.38724 -2.89601,-0.36367 z"
         id="path22"
         transform="scale(0.26458333)" /><path
         style="opacity:1;fill:#003380;stroke:none;stroke-width:2.22223;stroke-linecap:round;stroke-dasharray:none"
         d="m 716.45305,431.36094 c -4.04553,1.15058 -8.02822,2.60631 -12.10113,3.70557 -19.53157,5.77917 -39.3459,10.53361 -58.93124,16.11583 -1.61345,0.68789 -3.79945,0.71492 -4.90821,2.22176 -0.67964,1.82044 0.84836,3.5858 1.29381,5.28607 1.54496,3.45517 2.77043,7.11393 4.73716,10.34907 2.00979,2.31204 5.24805,1.00284 7.74627,0.52329 20.77202,-5.04036 41.29789,-11.03056 61.92487,-16.62294 1.21286,-0.9537 0.23949,-2.86594 0.47062,-4.22208 -0.26442,-5.38834 0.10913,-10.76563 0.94633,-16.09925 0.0909,-0.68889 -0.46302,-1.337 -1.17848,-1.25732 z"
         id="path23"
         transform="scale(0.26458333)" /><path
         style="opacity:1;fill:#002255;stroke:none;stroke-width:2.22223;stroke-linecap:round;stroke-dasharray:none"
         d="m 681.93408,395.11535 c -4.40666,3.92685 -8.87769,7.79428 -13.13863,11.87653 -0.39263,1.43053 1.38402,2.33741 1.97006,3.50287 3.95162,4.90269 7.70096,10.01073 12.09186,14.53223 1.52015,0.68911 3.21182,-0.45239 4.74383,-0.71192 4.46016,-1.47675 9.03776,-2.79148 13.21815,-4.95825 1.17311,-1.1194 -0.52437,-2.56618 -1.03143,-3.60544 -4.76767,-6.71124 -9.78808,-13.28497 -15.42042,-19.29745 -0.71699,-0.50349 -1.40363,-1.98062 -2.43342,-1.33857 z"
         id="path24"
         transform="scale(0.26458333)" /><path
         style="opacity:1;fill:#002255;stroke:none;stroke-width:2.22223;stroke-linecap:round;stroke-dasharray:none"
         d="m 750.29294,411.21404 c -10.52948,0.17322 -19.83678,9.60824 -20.08286,20.09528 -0.22344,7.21753 -0.26789,14.56211 1.37919,21.6341 2.1601,8.5821 8.03829,16.8127 16.73702,19.5877 8.11266,2.68159 17.79884,-0.27726 22.81556,-7.2567 5.50963,-7.53003 7.20096,-17.24269 6.71197,-26.39866 -0.74581,-12.30866 -9.59904,-24.09426 -21.78699,-27.00611 -1.88694,-0.45576 -3.83038,-0.71191 -5.77389,-0.65561 z m 5.1636,15.27289 c 4.48175,-0.16957 8.41665,3.03962 10.07769,7.05094 2.12273,3.9657 2.05303,8.5671 1.62536,12.92153 -1.04553,5.03198 -4.42385,10.1468 -9.63188,11.46602 -2.75294,0.37446 -5.70461,0.12906 -7.95878,-1.65446 -3.67814,-2.59836 -6.03209,-6.80406 -6.38484,-11.28832 -0.2826,-3.54259 -0.61592,-7.17723 0.30512,-10.68459 1.28292,-2.98249 3.9021,-5.33183 6.80134,-6.72917 1.61818,-0.72533 3.39584,-1.07441 5.16599,-1.08195 z"
         id="path25"
         transform="scale(0.26458333)" /><path
         style="opacity:1;fill:#003380;stroke:none;stroke-width:2.22223;stroke-linecap:round;stroke-dasharray:none"
         d="m 703.32349,363.36815 c -4.47709,4.55774 -9.54905,9.01662 -11.94888,15.07981 0.27836,1.47268 1.86828,2.45732 2.70686,3.6994 8.93341,10.18665 17.63238,20.59123 26.87952,30.49557 1.25696,1.01206 2.37036,-1.04906 3.45084,-1.52399 3.71072,-2.85772 7.58921,-5.53509 11.90043,-7.41351 1.20335,-1.23914 -1.02533,-2.42097 -1.53951,-3.5202 -9.9059,-12.40334 -20.19087,-24.49771 -30.33721,-36.70382 -0.39124,-0.30293 -0.66544,-0.31615 -1.11205,-0.11326 z"
         id="path26"
         transform="scale(0.26458333)" /><path
         style="opacity:1;fill:#0044aa;stroke:none;stroke-width:1.11112;stroke-linecap:round;stroke-dasharray:none"
         d="m 674.07996,306.14605 c -5.05572,-0.015 -10.13368,0.70664 -14.88909,2.46312 -12.216,4.33919 -22.38312,14.13143 -27.04536,26.24451 -3.77972,9.64804 -5.26878,20.25123 -3.94134,30.54669 0.77638,5.12504 2.46627,10.47208 6.44231,14.03148 2.9071,2.61452 6.8579,4.10278 10.78013,3.81581 3.67857,0.007 7.32131,-1.29542 10.26209,-3.48065 5.66814,-4.71137 9.85963,-10.84028 14.67351,-16.34582 3.78385,-4.32561 7.57519,-8.70017 11.99843,-12.39244 6.86049,-5.37468 14.7146,-9.45121 22.8408,-12.60288 5.53354,-2.08281 11.37247,-3.81145 17.31933,-3.95585 1.41087,-0.11733 3.2696,0.008 4.09892,-1.40035 0.67787,-1.42833 -0.48652,-2.86437 -1.27262,-3.97533 -3.3753,-3.98804 -7.28274,-7.53774 -11.65465,-10.40845 -9.78275,-6.46497 -21.09291,-10.57627 -32.70881,-12.10435 -2.28888,-0.30224 -4.5945,-0.45791 -6.90365,-0.43549 z"
         id="path27"
         transform="scale(0.26458333)" /><path
         style="opacity:1;fill:#0044aa;stroke:none;stroke-width:3.14271;stroke-linecap:round;stroke-dasharray:none"
         d="m 140.14803,267.2963 c -5.61214,-0.12962 -9.96454,4.43211 -11.8603,9.34279 -2.22418,5.49508 -2.42928,12.84875 2.23162,17.15009 5.69071,4.36034 12.68852,6.99754 19.75748,8.01612 4.92158,0.38425 10.60535,-1.59491 12.51856,-6.52792 2.49756,-5.14845 2.71316,-11.50876 0.40145,-16.75202 -3.2561,-5.69463 -9.92112,-8.05146 -15.7903,-10.07135 -2.35118,-0.70411 -4.793,-1.2144 -7.25851,-1.15771 z"
         id="path28"
         transform="scale(0.26458333)" /><path
         style="opacity:1;fill:#0044aa;stroke:none;stroke-width:3.14271;stroke-linecap:round;stroke-dasharray:none"
         d="m 131.9251,312.26391 c -4.21191,0.13039 -7.29939,3.71913 -8.52503,7.48694 -1.47254,3.83025 -1.97996,8.34561 -0.50688,12.24282 1.83994,3.01658 5.86811,3.29641 8.86424,4.52205 13.99764,4.19998 28.01166,8.43797 42.22107,11.84609 1.93818,-0.1607 2.36808,-2.75602 0.85696,-3.79686 -2.72557,-2.2533 -6.49885,-3.99811 -7.22675,-7.85933 -1.05023,-4.5356 0.38912,-9.09661 2.2519,-13.1775 0.7053,-1.1743 0.78487,-3.19904 -1.04481,-3.25783 -12.0921,-2.90173 -24.22501,-5.70322 -36.44668,-7.99489 -0.14776,-0.009 -0.29593,-0.0154 -0.44402,-0.0115 z"
         id="path29"
         transform="scale(0.26458333)" /><path
         style="opacity:1;fill:#0044aa;stroke:none;stroke-width:3.14271;stroke-linecap:round;stroke-dasharray:none"
         d="m 130.04086,348.94236 c -3.92421,0.12143 -6.55066,4.26535 -6.22921,7.94719 -0.2346,3.34715 0.0129,7.33147 3.1217,9.36645 6.12697,4.1381 13.54744,5.67762 20.49144,7.91475 6.01645,1.54717 11.91842,3.79791 18.10049,4.56837 4.07674,0.17797 8.71751,-0.34496 11.42285,-3.79453 2.28747,-2.59019 4.57959,-6.47512 2.54116,-9.85847 -1.44205,-3.12574 -4.36038,-5.31979 -7.72464,-5.96505 -13.3279,-3.70134 -26.72327,-7.23323 -40.26195,-10.0753 -0.48374,-0.0705 -0.97255,-0.11598 -1.46184,-0.10341 z"
         id="path30"
         transform="scale(0.26458333)" /><path
         style="opacity:1;fill:#002255;stroke:none;stroke-width:3.14271;stroke-linecap:round;stroke-dasharray:none"
         d="m 201.64801,292.84233 c -3.69888,0.0888 -7.9878,-0.34183 -10.76914,2.65171 -3.3198,2.85505 -6.79501,5.98384 -7.86238,10.42374 -2.70922,8.3019 -5.2169,16.77871 -6.20555,25.47507 0.40834,4.08554 5.03038,5.48032 8.45271,6.11905 3.2805,0.56227 6.667,1.05903 9.95831,1.07079 6.03613,-5.18753 11.15848,-11.6733 17.93086,-16.0413 4.34901,-2.46677 9.66166,-0.44447 13.98986,0.67381 -2.8848,3.77479 -5.00913,8.07788 -5.97374,12.74835 -1.0991,5.32328 -0.5709,10.83418 -0.52156,16.23206 0.75342,5.79632 2.77184,12.10241 7.68883,15.67903 2.16382,0.86017 3.74189,-1.7713 4.96134,-3.16969 4.79545,-6.28676 5.26223,-14.51369 6.70229,-21.99788 1.79672,-12.17372 3.16152,-24.55475 2.15525,-36.85957 -0.67481,-4.49373 -5.68062,-5.77966 -9.33445,-6.982 -10.16115,-2.89406 -20.48872,-6.19743 -31.17263,-6.02317 z"
         id="path31"
         transform="scale(0.26458333)" /><path
         style="opacity:1;fill:#999999;stroke:none;stroke-width:2.22223;stroke-linecap:round;stroke-dasharray:none"
         d="m 261.26164,460.14713 c -3.12032,0.1422 -6.868,0.37934 -8.96809,3.01883 -1.21548,2.75705 -0.74557,5.95162 -0.3718,8.8534 0.1796,1.766 1.66907,3.13292 3.44798,3.14691 2.37486,0.38416 4.85703,0.0675 7.14972,0.81098 2.58648,2.14779 4.20928,5.21555 6.5973,7.57454 4.65817,5.01649 9.34948,10.10395 14.8485,14.21534 5.97103,3.57791 13.24684,3.12504 19.93901,3.24969 2.25885,-0.13301 4.62891,0.31667 6.81567,-0.19406 1.64614,-4.76003 3.21928,-9.61358 4.34785,-14.54268 0.35809,-1.11692 -0.0264,-2.66575 -1.41312,-2.7278 -7.26142,-0.53324 -14.56778,-0.36671 -21.84723,-0.56008 -6.45815,-6.89055 -12.72469,-14.03632 -19.97581,-20.11584 -2.95841,-2.37194 -6.93595,-2.64603 -10.56998,-2.72923 z"
         id="path32"
         transform="scale(0.26458333)" /><path
         style="opacity:1;fill:#cccccc;stroke:none;stroke-width:2.22223;stroke-linecap:round;stroke-dasharray:none"
         d="m 468.68894,442.3333 c -5.69241,-0.28866 -10.84177,2.71084 -15.54267,5.55183 -8.97753,5.92662 -17.04781,13.08182 -25.7098,19.42585 -6.63966,4.83932 -13.2412,10.09144 -20.83025,13.29559 -4.79312,1.85185 -10.02653,1.62078 -15.0541,2.22838 -4.15255,0.37599 -8.3394,0.53189 -12.46425,0.80622 -1.38501,0.94878 -1.26754,2.99421 -1.88184,4.41124 -0.84905,3.67336 -2.33024,7.36343 -2.05598,11.18662 0.36731,1.87139 2.81754,1.62974 4.24892,1.92781 7.34615,0.69323 14.77623,0.1319 22.04843,-1.01026 11.67899,-1.90239 21.63176,-8.8221 30.82828,-15.85277 8.64215,-6.48577 16.62795,-13.85341 25.46719,-20.02914 2.83064,-1.97031 6.32668,-3.2274 9.83068,-2.96579 3.03083,-0.2161 6.28237,0.32546 9.15255,-0.8645 1.58494,-1.25625 1.9546,-3.49269 2.93733,-5.18358 1.40146,-3.3393 3.07594,-6.61147 4.04847,-10.10413 -0.27346,-1.49195 -2.30281,-1.33562 -3.42934,-1.79495 -3.78957,-1.02907 -7.69411,-1.08431 -11.59362,-1.02842 z"
         id="path33"
         transform="scale(0.26458333)" /><path
         style="opacity:1;fill:#ffffff;stroke:none;stroke-width:4.44446;stroke-linecap:round;stroke-dasharray:none"
         d="m 469.37901,244.60621 c -2.75033,11.48426 -7.55512,22.57193 -15.02678,31.84947 -11.4182,14.43973 -27.689,25.45956 -45.82871,29.20578 -8.42215,0.56309 -17.58771,1.00536 -25.68047,-2.43465 -9.07716,-3.40571 -17.16927,-8.96458 -24.09276,-15.71753 -2.59605,-0.0203 -2.11186,4.67109 -3.41405,6.51556 -13.65331,40.60052 -25.50535,81.78093 -38.06969,122.7203 -0.21525,2.2173 -2.12844,4.78917 -1.09437,6.88257 4.10067,1.29138 8.54671,0.95722 12.80268,1.20238 3.33505,-3.73733 4.42655,-10.22152 9.66008,-12.33531 7.57749,-2.04438 15.55255,-1.48845 23.34302,-1.76134 8.59655,0.31841 17.32019,-0.39354 25.63117,1.72789 5.34116,1.65668 6.39824,8.05133 9.36474,11.91285 12.22318,-0.63236 22.83918,-7.51241 32.12951,-14.92356 12.91705,-9.70997 24.26199,-22.08898 39.43742,-28.30544 8.33728,-2.97411 17.41196,-1.77478 25.72015,0.42639 2.61025,0.37759 5.43817,2.82423 7.92584,1.7561 4.91997,-5.18707 11.63831,-9.20548 19.03854,-8.79105 7.90879,0.0737 15.51075,2.25587 22.70838,5.42053 3.73392,0.73024 7.38167,-1.29122 11.20057,-0.50412 21.48776,2.26988 42.32692,8.25115 63.50755,12.32407 6.64593,1.02335 14.09997,3.41039 20.51247,0.23627 2.49537,-1.20143 1.08334,-3.98082 -0.0664,-5.62403 -5.05532,-8.53501 -10.00972,-17.23314 -16.27937,-24.94948 -2.65421,-0.28261 -5.23732,2.15362 -7.86183,2.92816 -19.40564,8.93517 -41.42432,12.64341 -62.47405,8.62913 -6.29809,-1.83359 -10.07717,-7.79556 -14.64447,-12.03996 -11.11585,-12.31689 -22.60089,-25.50578 -38.50266,-31.65736 -11.77407,-4.95988 -24.65348,-6.24147 -37.32034,-5.97853 -21.58978,-0.22736 -42.93738,5.16487 -62.69887,13.60441 -1.53755,0.58138 -3.25966,1.74195 -4.80793,1.73694 1.9497,-4.06668 5.82804,-7.03648 9.03595,-10.15421 15.43401,-13.84652 35.76325,-21.35418 56.18333,-23.4682 14.60218,-0.78013 29.52779,-0.96173 43.70268,3.13763 12.61928,3.06643 24.09605,9.18317 34.30916,17.13529 1.19627,1.43984 2.86954,0.14757 2.52445,-1.44599 -0.042,-8.43277 -0.76397,-17.13845 -3.8776,-25.0424 -2.72462,-5.0387 -8.61311,-7.07541 -12.86014,-10.57196 -12.38477,-8.52803 -23.36768,-19.34695 -31.61046,-31.97084 -2.09439,-2.46889 -1.88072,-6.34815 -4.36978,-8.43375 -5.57237,-2.11945 -11.61856,-2.81113 -17.51755,-3.47618 l -0.45951,0.16828 z"
         id="path34"
         transform="matrix(0.26458333,0,0,0.26458333,-2.2417522,12.454087)" /><path
         style="opacity:1;fill:#ffffff;stroke:none;stroke-width:4.44446;stroke-linecap:round;stroke-dasharray:none"
         d="m 478.7925,435.59504 c -17.12644,10.49943 -33.1222,22.88215 -50.98083,32.16945 -9.62374,5.19062 -20.67334,4.5816 -31.29658,5.17959 -3.49554,-0.57916 -5.45723,4.12476 -3.0757,6.4324 4.84014,2.6081 10.65651,2.8906 15.80359,4.71446 25.36559,7.01864 48.35862,21.33317 66.87375,39.92491 12.57296,11.92779 22.77802,26.05878 31.90165,40.74846 1.94549,2.98716 4.32762,6.81325 8.46246,6.3346 2.97869,0.32193 6.67396,-0.38043 7.55544,-3.72563 3.03475,-9.05344 4.48709,-18.78058 9.79467,-26.89602 8.38947,-12.93346 21.41356,-23.83645 36.90954,-26.75767 10.38365,-1.21706 21.32339,-0.70882 31.15845,3.39301 9.23658,3.17107 17.34688,8.70053 24.8608,14.87482 1.01093,0.75813 3.64356,3.31146 4.04104,0.80667 -0.95236,-4.94745 -4.30973,-9.24816 -5.13158,-14.11018 5.61762,-2.24874 11.91669,-1.76082 17.91036,-2.44585 3.00213,-0.52403 6.60966,0.29398 9.23953,-1.06473 4.9892,-14.70038 9.22714,-29.89702 10.59197,-45.33554 -1.44154,-1.82194 -4.33136,0.0916 -6.24794,-0.0277 -15.88241,3.03177 -31.51827,7.79862 -47.35893,10.54704 -3.89718,0.55046 -8.0993,-1.4739 -11.48776,1.27547 -5.07856,2.65016 -10.48822,5.43008 -16.4172,4.69147 -8.07746,-0.40713 -15.79333,-3.53356 -21.90076,-8.78362 -4.79965,0.46351 -9.59242,2.01313 -14.40456,1.15649 -6.31334,-0.74041 -12.35663,-2.88658 -18.59376,-3.97605 -2.6985,3.02666 -5.20689,6.93358 -9.46891,8.06201 -9.04794,2.9803 -18.40887,-1.1997 -26.84692,-4.28381 -4.95614,-2.41626 -11.1072,-3.60521 -14.40457,-8.35925 -2.88695,-6.86861 1.48708,-13.98436 3.91588,-20.24863 0.96186,-3.22332 3.97502,-6.56863 2.71819,-10.06586 -1.19603,-1.47178 -2.38983,-3.61381 -4.12132,-4.23029 z"
         id="path35"
         transform="matrix(0.26458333,0,0,0.26458333,-2.2417522,12.454087)" /><path
         style="opacity:1;fill:#ffffff;stroke:none;stroke-width:4.44446;stroke-linecap:round;stroke-dasharray:none"
         d="m 306.82178,471.26668 c -1.92263,0.10456 -5.01212,-0.27578 -5.17837,2.43537 -3.08007,9.89003 -6.37385,19.77514 -8.97578,29.77635 0.71501,2.39658 3.89405,0.18997 5.46297,0.19394 2.87308,-0.79707 6.65105,-1.07866 7.53756,-4.56664 3.52737,-8.22528 6.28091,-16.84862 8.30382,-25.54897 -0.34122,-3.15834 -5.11122,-1.96736 -7.1502,-2.29005 z"
         id="path36"
         transform="matrix(0.26458333,0,0,0.26458333,-2.2417522,12.454087)" /><path
         style="opacity:1;fill:#ffffff;stroke:none;stroke-width:3.14271;stroke-linecap:round;stroke-dasharray:none"
         d="m 202.76991,629.85208 c -2.72838,1.51659 -2.00608,5.30282 -2.15456,7.90934 -0.26195,5.02355 0.48367,10.02229 2.18902,14.75492 2.32665,7.58491 7.04569,14.27622 12.45776,19.98531 1.01878,1.90876 3.01312,1.86521 3.45972,-0.30799 1.33548,-3.31818 2.63119,-7.40449 0.30598,-10.61805 -3.01151,-4.70489 -6.59182,-9.02447 -8.92881,-14.13313 -2.18175,-4.55933 -4.71572,-9.11639 -5.6652,-14.12132 -0.095,-1.1418 -0.0225,-3.48435 -1.66391,-3.46908 z"
         id="path37"
         transform="matrix(0.26458333,0,0,0.26458333,-2.2417522,12.454087)" /><path
         style="opacity:1;fill:#ffffff;stroke:none;stroke-width:3.14271;stroke-linecap:round;stroke-dasharray:none"
         d="m 188.63001,673.26594 c -1.33508,1.21015 -0.43447,3.43543 -0.62214,5.03116 0.52077,8.05858 0.99623,16.41913 4.79274,23.73119 4.52928,9.7268 11.88543,18.14407 20.80434,24.07947 1.95894,0.52949 1.3653,-2.28348 1.53414,-3.42757 -0.0304,-3.45719 0.6309,-7.44481 -2.016,-10.19362 -5.0294,-5.99636 -10.35843,-11.79175 -14.46359,-18.49957 -3.90131,-6.15029 -7.55747,-12.66694 -8.75216,-19.91073 -0.12136,-0.56398 -0.67757,-1.05469 -1.27733,-0.81033 z"
         id="path38"
         transform="matrix(0.26458333,0,0,0.26458333,-2.2417522,12.454087)" /><path
         style="opacity:1;fill:#ffffff;stroke:none;stroke-width:3.14271;stroke-linecap:round;stroke-dasharray:none"
         d="m 187.40674,733.40073 c -0.34632,3.98343 1.58014,7.8492 2.923,11.55009 2.44834,6.26732 5.91843,12.18771 10.92453,16.7599 6.6212,6.39002 13.79991,12.24562 21.43058,17.3828 1.77809,0.51764 1.53705,-1.9191 1.22529,-2.9453 -1.04634,-4.58364 -1.13835,-9.58045 -3.50016,-13.74657 -2.60435,-3.3482 -7.03983,-4.38516 -10.25042,-7.02092 -7.58926,-5.58739 -13.86685,-12.65401 -19.7064,-19.99776 -0.90099,-0.71816 -1.72847,-2.777 -3.04642,-1.98224 z"
         id="path39"
         transform="matrix(0.26458333,0,0,0.26458333,-2.2417522,12.454087)" /><path
         style="opacity:1;fill:#ffffff;stroke:none;stroke-width:3.14271;stroke-linecap:round;stroke-dasharray:none"
         d="m 203.07741,792.80764 c -1.84583,0.61185 -0.15838,2.592 0.58595,3.45557 9.32628,11.67193 22.20979,20.53043 36.57438,24.69853 1.97175,0.48078 2.25488,-1.95436 1.56119,-3.23856 -1.25645,-3.92779 -2.49688,-8.83344 -6.89964,-10.31877 -7.44827,-2.44 -15.07526,-4.72431 -21.68248,-9.04458 -3.34162,-1.80443 -6.34617,-4.48596 -10.01572,-5.5603 z"
         id="path40"
         transform="matrix(0.26458333,0,0,0.26458333,-2.2417522,12.454087)" /><path
         style="opacity:1;fill:#ffffff;stroke:none;stroke-width:4.44446;stroke-linecap:round;stroke-dasharray:none"
         d="m 285.49354,584.28295 c -5.67851,1.72354 -9.8696,6.4402 -14.20863,10.26603 -14.60882,14.456 -23.88833,33.45699 -30.2113,52.79824 -5.85518,18.6542 -9.23559,38.16581 -8.93812,57.75396 -0.26047,13.14589 0.26559,26.34141 2.89695,39.25889 4.27079,25.32643 13.78069,49.80799 27.6839,71.39857 6.99302,10.44507 16.3399,19.0546 25.52958,27.52876 13.4426,10.93701 30.06984,18.80791 47.54035,19.77905 11.26618,0.52859 22.46194,-2.08891 32.59064,-6.96049 19.4392,-9.05726 34.81,-25.07741 46.86403,-42.50375 8.75521,-13.27954 15.62001,-27.88547 19.97752,-43.19344 -0.88248,-1.64761 -1.56947,-6.80987 -3.86231,-5.60566 -7.68729,21.37111 -17.59541,42.56659 -33.87476,58.78242 -11.30127,11.43239 -25.37625,20.64697 -41.13733,24.52997 -9.54252,1.56096 -19.37557,1.45692 -28.88124,0.21327 -12.81837,-2.56631 -24.50077,-9.20131 -34.57345,-17.38565 -14.60067,-11.85449 -25.24414,-27.9176 -32.05952,-45.32342 -9.96652,-24.76004 -14.35378,-51.42087 -14.02917,-78.03438 -0.0529,-30.35046 5.97119,-60.93003 19.01858,-88.47187 5.1842,-11.13293 12.69791,-20.88989 19.77655,-30.83725 0.72095,-1.05024 2.36381,-3.89281 -0.10227,-3.99325 z"
         id="path41"
         transform="matrix(0.26458333,0,0,0.26458333,-2.2417522,12.454087)" /><path
         style="opacity:1;fill:#ffffff;stroke:none;stroke-width:1.11112;stroke-linecap:round;stroke-dasharray:none"
         d="m 371.89729,533.45502 c -1.46415,-0.1148 -2.72138,1.09987 -2.82361,2.53234 -0.27206,1.49657 -0.0302,3.35258 1.44131,4.15047 1.56931,0.83514 3.34567,1.18896 4.95733,1.94052 6.20945,2.59354 12.43233,5.39272 17.88261,9.38019 10.44203,7.49155 18.98568,17.27631 26.27021,27.81579 9.85339,14.36864 17.35982,30.23929 23.00509,46.68178 1.5859,4.34714 2.72019,8.86097 4.56847,13.10931 0.27482,0.63845 0.93678,1.61175 1.68658,0.98383 0.5445,-0.68435 0.29467,-1.71639 0.27396,-2.54725 -1.45933,-9.26844 -4.13152,-18.31548 -7.41701,-27.0924 -5.88606,-15.47289 -13.80489,-30.22105 -23.83844,-43.40669 -3.77389,-5.0517 -8.16913,-9.6046 -12.79575,-13.87578 -8.44067,-7.36777 -17.79663,-13.82637 -28.11978,-18.26162 -1.6294,-0.64576 -3.31188,-1.36967 -5.09097,-1.41049 z"
         id="path42"
         transform="matrix(0.26458333,0,0,0.26458333,-2.2417522,12.454087)" /><path
         style="opacity:1;fill:#cccccc;stroke:none;stroke-width:6.28542;stroke-linecap:round;stroke-dasharray:none"
         d="m 352.16882,423.43467 c -3.9345,-0.0765 -9.5904,-0.13628 -10.60527,4.76061 -10.60781,32.49517 -20.06038,65.3724 -29.62607,98.19051 -4.4282,13.59953 -1.44464,28.0411 -1.16785,41.99605 2.97437,44.10558 6.30785,88.19172 9.61719,132.27247 -0.51414,1.7971 1.82954,4.54585 2.76283,1.93019 4.14009,-19.13017 8.92943,-38.16101 12.71307,-57.40263 5.26649,-33.60516 10.17427,-67.30391 13.52531,-101.15823 0.76411,-16.08564 3.00588,-32.10535 7.76977,-47.49194 6.29337,-23.56612 13.7426,-46.84148 19.42772,-70.55858 0.78189,-3.48321 -4.33749,-1.89979 -6.2499,-2.40736 -6.05376,-0.17202 -12.11129,-0.13851 -18.1668,-0.13109 z"
         id="path43"
         transform="matrix(0.26458333,0,0,0.26458333,-2.2417522,12.454087)" /><g
         id="g43"
         transform="matrix(1.0612219,0,0,0.97678536,-4.2667306,5.6258186)"><path
           id="path3"
           style="fill:#aa0000;stroke:#000000;stroke-width:2.403;stroke-linecap:round;stroke-dasharray:none"
           d="m 121.18453,73.604745 c 0,9.10508 -7.04882,16.448188 -14.6535,18.489518 -8.647777,2.32133 -18.011447,-6.44223 -17.487267,-15.53242 0.49811,-8.63794 6.58501,-16.85623 15.768287,-17.47535 9.18329,-0.61913 15.53748,5.39739 16.37149,14.46502"
           sodipodi:nodetypes="csssc" /><path
           style="fill:#ff2a2a;stroke:none;stroke-width:3.57692;stroke-linecap:round;stroke-dasharray:none"
           d="m 99.963033,90.607463 c 0,0 -4.285558,-2.500976 -5.671617,-4.327436 -1.285168,-1.693509 -2.048277,-3.626908 -2.52067,-5.729796 -0.419616,-1.867897 -0.271142,-3.686881 0.142727,-5.556162 0.424376,-1.916725 2.282858,-5.308117 2.282858,-5.308117 0,0 2.626834,1.846267 4.256562,2.356406 2.293977,0.718048 4.787807,0.8285 7.181477,0.744128 2.38652,-0.08413 4.9344,-0.519708 7.25282,-1.116196 2.30529,-0.593108 4.18701,-1.177944 6.15732,-2.428897 0,0 -0.68948,-2.050347 -1.33003,-2.978432 -0.84948,-1.230803 -1.83351,-2.379392 -2.94831,-3.352925 -1.05874,-0.924551 -2.20784,-1.800666 -3.49751,-2.315189 -1.65586,-0.660625 -3.47455,-0.980246 -5.24621,-0.912041 -1.79864,0.06923 -3.57462,0.636912 -5.2462,1.332985 -1.632247,0.679686 -3.217174,1.570518 -4.573655,2.736124 -1.189964,1.022533 -2.186904,2.29948 -3.026679,3.648185 -1.092568,1.754723 -2.062745,3.654583 -2.555827,5.682706 -0.474783,1.952756 -0.550274,4.03136 -0.336294,6.033526 0.188669,1.765448 0.614843,3.551952 1.412448,5.121476 0.738093,1.452387 1.840182,2.706568 3.026659,3.788471 0.857029,0.781496 1.946763,1.217502 2.949362,1.779803 0.561439,0.314884 2.290769,0.801381 2.290769,0.801381 z"
           id="path4"
           sodipodi:nodetypes="cssscssscssssssssssssc" /></g></g></g></svg>
